<?xml version="1.0" encoding="UTF-8" standalone="no"?>
<!DOCTYPE svg PUBLIC "-//W3C//DTD SVG 1.1//EN"
 "http://www.w3.org/Graphics/SVG/1.1/DTD/svg11.dtd">
<!-- Generated by graphviz version 14.1.2 (0)
 -->
<!-- Title: adder_tree Pages: 1 -->
<svg width="713pt" height="242pt"
 viewBox="0.00 0.00 713.00 242.00" xmlns="http://www.w3.org/2000/svg" xmlns:xlink="http://www.w3.org/1999/xlink">
<g id="graph0" class="graph" transform="scale(1 1) rotate(0) translate(4 237.75)">
<title>adder_tree</title>
<polygon fill="white" stroke="none" points="-4,4 -4,-237.75 708.6,-237.75 708.6,4 -4,4"/>
<!-- n3 -->
<g id="node1" class="node">
<title>n3</title>
<polygon fill="none" stroke="black" points="54,-188.54 54,-203.46 38.18,-214 15.82,-214 0,-203.46 0,-188.54 15.82,-178 38.18,-178 54,-188.54"/>
<text xml:space="preserve" text-anchor="middle" x="27" y="-191.32" font-family="Times,serif" font-size="14.00">p0</text>
</g>
<!-- x0 -->
<g id="node7" class="node">
<title>x0</title>
<path fill="none" stroke="black" d="M102,-182.75C102,-182.75 170.5,-182.75 170.5,-182.75 176.5,-182.75 182.5,-188.75 182.5,-194.75 182.5,-194.75 182.5,-221.25 182.5,-221.25 182.5,-227.25 176.5,-233.25 170.5,-233.25 170.5,-233.25 102,-233.25 102,-233.25 96,-233.25 90,-227.25 90,-221.25 90,-221.25 90,-194.75 90,-194.75 90,-188.75 96,-182.75 102,-182.75"/>
<text xml:space="preserve" text-anchor="middle" x="136.25" y="-215.95" font-family="Times,serif" font-size="14.00">0 &#45;&gt; 31:16</text>
<polyline fill="none" stroke="black" points="90,-208 182.5,-208"/>
<text xml:space="preserve" text-anchor="middle" x="136.25" y="-190.7" font-family="Times,serif" font-size="14.00">15:0 &#45; 15:0</text>
</g>
<!-- n3&#45;&gt;x0 -->
<g id="edge7" class="edge">
<title>n3:e&#45;&gt;x0:w</title>
<path fill="none" stroke="black" stroke-width="3" d="M54,-196C65.38,-196 70.68,-195.68 78.55,-195.5"/>
<polygon fill="black" stroke="black" stroke-width="3" points="75.5,-199.04 85.46,-195.43 75.42,-192.04 75.5,-199.04"/>
</g>
<!-- n4 -->
<g id="node2" class="node">
<title>n4</title>
<polygon fill="none" stroke="black" points="54,-118.54 54,-133.46 38.18,-144 15.82,-144 0,-133.46 0,-118.54 15.82,-108 38.18,-108 54,-118.54"/>
<text xml:space="preserve" text-anchor="middle" x="27" y="-121.33" font-family="Times,serif" font-size="14.00">p1</text>
</g>
<!-- x1 -->
<g id="node8" class="node">
<title>x1</title>
<path fill="none" stroke="black" d="M102,-112.75C102,-112.75 170.5,-112.75 170.5,-112.75 176.5,-112.75 182.5,-118.75 182.5,-124.75 182.5,-124.75 182.5,-151.25 182.5,-151.25 182.5,-157.25 176.5,-163.25 170.5,-163.25 170.5,-163.25 102,-163.25 102,-163.25 96,-163.25 90,-157.25 90,-151.25 90,-151.25 90,-124.75 90,-124.75 90,-118.75 96,-112.75 102,-112.75"/>
<text xml:space="preserve" text-anchor="middle" x="136.25" y="-145.95" font-family="Times,serif" font-size="14.00">0 &#45;&gt; 31:16</text>
<polyline fill="none" stroke="black" points="90,-138 182.5,-138"/>
<text xml:space="preserve" text-anchor="middle" x="136.25" y="-120.7" font-family="Times,serif" font-size="14.00">15:0 &#45; 15:0</text>
</g>
<!-- n4&#45;&gt;x1 -->
<g id="edge8" class="edge">
<title>n4:e&#45;&gt;x1:w</title>
<path fill="none" stroke="black" stroke-width="3" d="M54,-126C65.38,-126 70.68,-125.68 78.55,-125.5"/>
<polygon fill="black" stroke="black" stroke-width="3" points="75.5,-129.04 85.46,-125.43 75.42,-122.04 75.5,-129.04"/>
</g>
<!-- n5 -->
<g id="node3" class="node">
<title>n5</title>
<polygon fill="none" stroke="black" points="163.25,-64.54 163.25,-79.46 147.43,-90 125.07,-90 109.25,-79.46 109.25,-64.54 125.07,-54 147.43,-54 163.25,-64.54"/>
<text xml:space="preserve" text-anchor="middle" x="136.25" y="-67.33" font-family="Times,serif" font-size="14.00">p2</text>
</g>
<!-- x2 -->
<g id="node10" class="node">
<title>x2</title>
<path fill="none" stroke="black" d="M235.62,-58.75C235.62,-58.75 304.12,-58.75 304.12,-58.75 310.12,-58.75 316.12,-64.75 316.12,-70.75 316.12,-70.75 316.12,-97.25 316.12,-97.25 316.12,-103.25 310.12,-109.25 304.12,-109.25 304.12,-109.25 235.62,-109.25 235.62,-109.25 229.62,-109.25 223.62,-103.25 223.62,-97.25 223.62,-97.25 223.62,-70.75 223.62,-70.75 223.62,-64.75 229.62,-58.75 235.62,-58.75"/>
<text xml:space="preserve" text-anchor="middle" x="269.88" y="-91.95" font-family="Times,serif" font-size="14.00">0 &#45;&gt; 31:16</text>
<polyline fill="none" stroke="black" points="223.62,-84 316.12,-84"/>
<text xml:space="preserve" text-anchor="middle" x="269.88" y="-66.7" font-family="Times,serif" font-size="14.00">15:0 &#45; 15:0</text>
</g>
<!-- n5&#45;&gt;x2 -->
<g id="edge9" class="edge">
<title>n5:e&#45;&gt;x2:w</title>
<path fill="none" stroke="black" stroke-width="3" d="M164.5,-72C186.1,-72 194.15,-71.56 211.3,-71.42"/>
<polygon fill="black" stroke="black" stroke-width="3" points="208.1,-74.93 218.08,-71.39 208.07,-67.93 208.1,-74.93"/>
</g>
<!-- n6 -->
<g id="node4" class="node">
<title>n6</title>
<polygon fill="none" stroke="black" points="296.88,-10.54 296.88,-25.46 281.06,-36 258.69,-36 242.88,-25.46 242.88,-10.54 258.69,0 281.06,0 296.88,-10.54"/>
<text xml:space="preserve" text-anchor="middle" x="269.88" y="-13.32" font-family="Times,serif" font-size="14.00">p3</text>
</g>
<!-- x3 -->
<g id="node12" class="node">
<title>x3</title>
<path fill="none" stroke="black" d="M374.38,-4.75C374.38,-4.75 442.88,-4.75 442.88,-4.75 448.88,-4.75 454.88,-10.75 454.88,-16.75 454.88,-16.75 454.88,-43.25 454.88,-43.25 454.88,-49.25 448.88,-55.25 442.88,-55.25 442.88,-55.25 374.38,-55.25 374.38,-55.25 368.38,-55.25 362.38,-49.25 362.38,-43.25 362.38,-43.25 362.38,-16.75 362.38,-16.75 362.38,-10.75 368.38,-4.75 374.38,-4.75"/>
<text xml:space="preserve" text-anchor="middle" x="408.62" y="-37.95" font-family="Times,serif" font-size="14.00">0 &#45;&gt; 31:16</text>
<polyline fill="none" stroke="black" points="362.38,-30 454.88,-30"/>
<text xml:space="preserve" text-anchor="middle" x="408.62" y="-12.7" font-family="Times,serif" font-size="14.00">15:0 &#45; 15:0</text>
</g>
<!-- n6&#45;&gt;x3 -->
<g id="edge10" class="edge">
<title>n6:e&#45;&gt;x3:w</title>
<path fill="none" stroke="black" stroke-width="3" d="M298.13,-18C322.07,-18 330.71,-17.55 350.11,-17.41"/>
<polygon fill="black" stroke="black" stroke-width="3" points="346.85,-20.92 356.83,-17.39 346.82,-13.92 346.85,-20.92"/>
</g>
<!-- n7 -->
<g id="node5" class="node">
<title>n7</title>
<polygon fill="none" stroke="black" points="704.6,-57.54 704.6,-72.46 684.14,-83 655.21,-83 634.75,-72.46 634.75,-57.54 655.21,-47 684.14,-47 704.6,-57.54"/>
<text xml:space="preserve" text-anchor="middle" x="669.68" y="-60.33" font-family="Times,serif" font-size="14.00">sum</text>
</g>
<!-- c11 -->
<g id="node6" class="node">
<title>c11</title>
<polygon fill="none" stroke="black" points="218.5,-128.75 218.5,-179.25 321.25,-179.25 321.25,-128.75 218.5,-128.75"/>
<text xml:space="preserve" text-anchor="middle" x="231.75" y="-161.95" font-family="Times,serif" font-size="14.00">A</text>
<polyline fill="none" stroke="black" points="218.5,-154 245,-154"/>
<text xml:space="preserve" text-anchor="middle" x="231.75" y="-136.7" font-family="Times,serif" font-size="14.00">B</text>
<polyline fill="none" stroke="black" points="245,-128.75 245,-179.25"/>
<text xml:space="preserve" text-anchor="middle" x="270.62" y="-157.95" font-family="Times,serif" font-size="14.00">$1</text>
<text xml:space="preserve" text-anchor="middle" x="270.62" y="-140.7" font-family="Times,serif" font-size="14.00">$add</text>
<polyline fill="none" stroke="black" points="296.25,-128.75 296.25,-179.25"/>
<text xml:space="preserve" text-anchor="middle" x="308.75" y="-149.45" font-family="Times,serif" font-size="14.00">Y</text>
</g>
<!-- c12 -->
<g id="node9" class="node">
<title>c12</title>
<polygon fill="none" stroke="black" points="357.25,-74.75 357.25,-125.25 460,-125.25 460,-74.75 357.25,-74.75"/>
<text xml:space="preserve" text-anchor="middle" x="370.5" y="-107.95" font-family="Times,serif" font-size="14.00">A</text>
<polyline fill="none" stroke="black" points="357.25,-100 383.75,-100"/>
<text xml:space="preserve" text-anchor="middle" x="370.5" y="-82.7" font-family="Times,serif" font-size="14.00">B</text>
<polyline fill="none" stroke="black" points="383.75,-74.75 383.75,-125.25"/>
<text xml:space="preserve" text-anchor="middle" x="409.38" y="-103.95" font-family="Times,serif" font-size="14.00">$2</text>
<text xml:space="preserve" text-anchor="middle" x="409.38" y="-86.7" font-family="Times,serif" font-size="14.00">$add</text>
<polyline fill="none" stroke="black" points="435,-74.75 435,-125.25"/>
<text xml:space="preserve" text-anchor="middle" x="447.5" y="-95.45" font-family="Times,serif" font-size="14.00">Y</text>
</g>
<!-- c11&#45;&gt;c12 -->
<g id="edge5" class="edge">
<title>c11:e&#45;&gt;c12:w</title>
<path fill="none" stroke="black" stroke-width="3" d="M321.25,-154.12C340.9,-154.12 336.43,-127.25 346.65,-116.76"/>
<polygon fill="black" stroke="black" stroke-width="3" points="344.97,-121.17 353.02,-114.27 342.43,-114.64 344.97,-121.17"/>
</g>
<!-- x0&#45;&gt;c11 -->
<g id="edge1" class="edge">
<title>x0:e&#45;&gt;c11:w</title>
<path fill="none" stroke="black" stroke-width="3" d="M194.21,-202.59C200.39,-194.71 200.57,-180.13 206.68,-172.17"/>
<polygon fill="none" stroke="black" stroke-width="3" points="195.85,-201.84 192.08,-207.98 184.96,-206.87 188.73,-200.72 195.85,-201.84"/>
<polygon fill="none" stroke="black" stroke-width="3" points="205.19,-172.87 208.92,-166.7 216.05,-167.77 212.32,-173.94 205.19,-172.87"/>
</g>
<!-- x1&#45;&gt;c11 -->
<g id="edge2" class="edge">
<title>x1:e&#45;&gt;c11:w</title>
<path fill="none" stroke="black" stroke-width="3" d="M195.24,-138.85C198.83,-139.35 201.94,-139.98 205.51,-140.49"/>
<polygon fill="none" stroke="black" stroke-width="3" points="197.17,-138.98 190.92,-142.57 185.2,-138.18 191.45,-134.59 197.17,-138.98"/>
<polygon fill="none" stroke="black" stroke-width="3" points="203.83,-140.37 210.09,-136.79 215.8,-141.19 209.54,-144.77 203.83,-140.37"/>
</g>
<!-- c13 -->
<g id="node11" class="node">
<title>c13</title>
<polygon fill="none" stroke="black" points="496,-39.75 496,-90.25 598.75,-90.25 598.75,-39.75 496,-39.75"/>
<text xml:space="preserve" text-anchor="middle" x="509.25" y="-72.95" font-family="Times,serif" font-size="14.00">A</text>
<polyline fill="none" stroke="black" points="496,-65 522.5,-65"/>
<text xml:space="preserve" text-anchor="middle" x="509.25" y="-47.7" font-family="Times,serif" font-size="14.00">B</text>
<polyline fill="none" stroke="black" points="522.5,-39.75 522.5,-90.25"/>
<text xml:space="preserve" text-anchor="middle" x="548.12" y="-68.95" font-family="Times,serif" font-size="14.00">$3</text>
<text xml:space="preserve" text-anchor="middle" x="548.12" y="-51.7" font-family="Times,serif" font-size="14.00">$add</text>
<polyline fill="none" stroke="black" points="573.75,-39.75 573.75,-90.25"/>
<text xml:space="preserve" text-anchor="middle" x="586.25" y="-60.45" font-family="Times,serif" font-size="14.00">Y</text>
</g>
<!-- c12&#45;&gt;c13 -->
<g id="edge6" class="edge">
<title>c12:e&#45;&gt;c13:w</title>
<path fill="none" stroke="black" stroke-width="3" d="M460,-100.12C474.15,-100.12 476.71,-87.47 485.07,-81.14"/>
<polygon fill="black" stroke="black" stroke-width="3" points="483.23,-85.41 491.68,-79.02 481.09,-78.74 483.23,-85.41"/>
</g>
<!-- x2&#45;&gt;c12 -->
<g id="edge3" class="edge">
<title>x2:e&#45;&gt;c12:w</title>
<path fill="none" stroke="black" stroke-width="3" d="M329.9,-84.68C335.1,-85.27 339.28,-86.11 344.48,-86.69"/>
<polygon fill="none" stroke="black" stroke-width="3" points="331.81,-84.79 325.6,-88.46 319.83,-84.14 326.03,-80.47 331.81,-84.79"/>
<polygon fill="none" stroke="black" stroke-width="3" points="342.57,-86.59 348.77,-82.92 354.55,-87.23 348.34,-90.9 342.57,-86.59"/>
</g>
<!-- c13&#45;&gt;n7 -->
<g id="edge11" class="edge">
<title>c13:e&#45;&gt;n7:w</title>
<path fill="none" stroke="black" stroke-width="3" d="M598.75,-65.12C610.13,-65.12 615.43,-65.06 623.3,-65.03"/>
<polygon fill="black" stroke="black" stroke-width="3" points="620.22,-68.53 630.21,-65.01 620.2,-61.53 620.22,-68.53"/>
</g>
<!-- x3&#45;&gt;c13 -->
<g id="edge4" class="edge">
<title>x3:e&#45;&gt;c13:w</title>
<path fill="none" stroke="black" stroke-width="3" d="M468.18,-33.69C474.18,-37.87 477.76,-44.61 483.8,-48.75"/>
<polygon fill="none" stroke="black" stroke-width="3" points="469.96,-34.23 463.06,-36.33 458.46,-30.78 465.36,-28.67 469.96,-34.23"/>
<polygon fill="none" stroke="black" stroke-width="3" points="481.9,-48.19 488.8,-46.06 493.41,-51.6 486.52,-53.73 481.9,-48.19"/>
</g>
</g>
</svg>
