<?xml version="1.0" encoding="UTF-8" standalone="no"?>
<!DOCTYPE svg PUBLIC "-//W3C//DTD SVG 1.1//EN"
 "http://www.w3.org/Graphics/SVG/1.1/DTD/svg11.dtd">
<!-- Generated by graphviz version 14.1.2 (0)
 -->
<!-- Title: adder_tree_v2 Pages: 1 -->
<svg width="713pt" height="267pt"
 viewBox="0.00 0.00 713.00 267.00" xmlns="http://www.w3.org/2000/svg" xmlns:xlink="http://www.w3.org/1999/xlink">
<g id="graph0" class="graph" transform="scale(1 1) rotate(0) translate(4 263)">
<title>adder_tree_v2</title>
<polygon fill="white" stroke="none" points="-4,4 -4,-263 708.6,-263 708.6,4 -4,4"/>
<text xml:space="preserve" text-anchor="middle" x="352.3" y="-7.95" font-family="Times,serif" font-size="14.00">adder_tree_v2</text>
<!-- n3 -->
<g id="node1" class="node">
<title>n3</title>
<polygon fill="none" stroke="black" points="54,-213.79 54,-228.71 38.18,-239.25 15.82,-239.25 0,-228.71 0,-213.79 15.82,-203.25 38.18,-203.25 54,-213.79"/>
<text xml:space="preserve" text-anchor="middle" x="27" y="-216.57" font-family="Times,serif" font-size="14.00">p0</text>
</g>
<!-- x0 -->
<g id="node7" class="node">
<title>x0</title>
<path fill="none" stroke="black" d="M102,-208C102,-208 170.5,-208 170.5,-208 176.5,-208 182.5,-214 182.5,-220 182.5,-220 182.5,-246.5 182.5,-246.5 182.5,-252.5 176.5,-258.5 170.5,-258.5 170.5,-258.5 102,-258.5 102,-258.5 96,-258.5 90,-252.5 90,-246.5 90,-246.5 90,-220 90,-220 90,-214 96,-208 102,-208"/>
<text xml:space="preserve" text-anchor="middle" x="136.25" y="-241.2" font-family="Times,serif" font-size="14.00">0 &#45;&gt; 31:16</text>
<polyline fill="none" stroke="black" points="90,-233.25 182.5,-233.25"/>
<text xml:space="preserve" text-anchor="middle" x="136.25" y="-215.95" font-family="Times,serif" font-size="14.00">15:0 &#45; 15:0</text>
</g>
<!-- n3&#45;&gt;x0 -->
<g id="edge7" class="edge">
<title>n3:e&#45;&gt;x0:w</title>
<path fill="none" stroke="black" stroke-width="3" d="M54,-221.25C65.38,-221.25 70.68,-220.93 78.55,-220.75"/>
<polygon fill="black" stroke="black" stroke-width="3" points="75.5,-224.29 85.46,-220.68 75.42,-217.29 75.5,-224.29"/>
</g>
<!-- n4 -->
<g id="node2" class="node">
<title>n4</title>
<polygon fill="none" stroke="black" points="54,-143.79 54,-158.71 38.18,-169.25 15.82,-169.25 0,-158.71 0,-143.79 15.82,-133.25 38.18,-133.25 54,-143.79"/>
<text xml:space="preserve" text-anchor="middle" x="27" y="-146.57" font-family="Times,serif" font-size="14.00">p1</text>
</g>
<!-- x1 -->
<g id="node8" class="node">
<title>x1</title>
<path fill="none" stroke="black" d="M102,-138C102,-138 170.5,-138 170.5,-138 176.5,-138 182.5,-144 182.5,-150 182.5,-150 182.5,-176.5 182.5,-176.5 182.5,-182.5 176.5,-188.5 170.5,-188.5 170.5,-188.5 102,-188.5 102,-188.5 96,-188.5 90,-182.5 90,-176.5 90,-176.5 90,-150 90,-150 90,-144 96,-138 102,-138"/>
<text xml:space="preserve" text-anchor="middle" x="136.25" y="-171.2" font-family="Times,serif" font-size="14.00">0 &#45;&gt; 31:16</text>
<polyline fill="none" stroke="black" points="90,-163.25 182.5,-163.25"/>
<text xml:space="preserve" text-anchor="middle" x="136.25" y="-145.95" font-family="Times,serif" font-size="14.00">15:0 &#45; 15:0</text>
</g>
<!-- n4&#45;&gt;x1 -->
<g id="edge8" class="edge">
<title>n4:e&#45;&gt;x1:w</title>
<path fill="none" stroke="black" stroke-width="3" d="M54,-151.25C65.38,-151.25 70.68,-150.93 78.55,-150.75"/>
<polygon fill="black" stroke="black" stroke-width="3" points="75.5,-154.29 85.46,-150.68 75.42,-147.29 75.5,-154.29"/>
</g>
<!-- n5 -->
<g id="node3" class="node">
<title>n5</title>
<polygon fill="none" stroke="black" points="163.25,-89.79 163.25,-104.71 147.43,-115.25 125.07,-115.25 109.25,-104.71 109.25,-89.79 125.07,-79.25 147.43,-79.25 163.25,-89.79"/>
<text xml:space="preserve" text-anchor="middle" x="136.25" y="-92.58" font-family="Times,serif" font-size="14.00">p2</text>
</g>
<!-- x2 -->
<g id="node10" class="node">
<title>x2</title>
<path fill="none" stroke="black" d="M235.62,-84C235.62,-84 304.12,-84 304.12,-84 310.12,-84 316.12,-90 316.12,-96 316.12,-96 316.12,-122.5 316.12,-122.5 316.12,-128.5 310.12,-134.5 304.12,-134.5 304.12,-134.5 235.62,-134.5 235.62,-134.5 229.62,-134.5 223.62,-128.5 223.62,-122.5 223.62,-122.5 223.62,-96 223.62,-96 223.62,-90 229.62,-84 235.62,-84"/>
<text xml:space="preserve" text-anchor="middle" x="269.88" y="-117.2" font-family="Times,serif" font-size="14.00">0 &#45;&gt; 31:16</text>
<polyline fill="none" stroke="black" points="223.62,-109.25 316.12,-109.25"/>
<text xml:space="preserve" text-anchor="middle" x="269.88" y="-91.95" font-family="Times,serif" font-size="14.00">15:0 &#45; 15:0</text>
</g>
<!-- n5&#45;&gt;x2 -->
<g id="edge9" class="edge">
<title>n5:e&#45;&gt;x2:w</title>
<path fill="none" stroke="black" stroke-width="3" d="M164.5,-97.25C186.1,-97.25 194.15,-96.81 211.3,-96.67"/>
<polygon fill="black" stroke="black" stroke-width="3" points="208.1,-100.18 218.08,-96.64 208.07,-93.18 208.1,-100.18"/>
</g>
<!-- n6 -->
<g id="node4" class="node">
<title>n6</title>
<polygon fill="none" stroke="black" points="296.88,-35.79 296.88,-50.71 281.06,-61.25 258.69,-61.25 242.88,-50.71 242.88,-35.79 258.69,-25.25 281.06,-25.25 296.88,-35.79"/>
<text xml:space="preserve" text-anchor="middle" x="269.88" y="-38.58" font-family="Times,serif" font-size="14.00">p3</text>
</g>
<!-- x3 -->
<g id="node12" class="node">
<title>x3</title>
<path fill="none" stroke="black" d="M374.38,-30C374.38,-30 442.88,-30 442.88,-30 448.88,-30 454.88,-36 454.88,-42 454.88,-42 454.88,-68.5 454.88,-68.5 454.88,-74.5 448.88,-80.5 442.88,-80.5 442.88,-80.5 374.38,-80.5 374.38,-80.5 368.38,-80.5 362.38,-74.5 362.38,-68.5 362.38,-68.5 362.38,-42 362.38,-42 362.38,-36 368.38,-30 374.38,-30"/>
<text xml:space="preserve" text-anchor="middle" x="408.62" y="-63.2" font-family="Times,serif" font-size="14.00">0 &#45;&gt; 31:16</text>
<polyline fill="none" stroke="black" points="362.38,-55.25 454.88,-55.25"/>
<text xml:space="preserve" text-anchor="middle" x="408.62" y="-37.95" font-family="Times,serif" font-size="14.00">15:0 &#45; 15:0</text>
</g>
<!-- n6&#45;&gt;x3 -->
<g id="edge10" class="edge">
<title>n6:e&#45;&gt;x3:w</title>
<path fill="none" stroke="black" stroke-width="3" d="M298.13,-43.25C322.07,-43.25 330.71,-42.8 350.11,-42.66"/>
<polygon fill="black" stroke="black" stroke-width="3" points="346.85,-46.17 356.83,-42.64 346.82,-39.17 346.85,-46.17"/>
</g>
<!-- n7 -->
<g id="node5" class="node">
<title>n7</title>
<polygon fill="none" stroke="black" points="704.6,-82.79 704.6,-97.71 684.14,-108.25 655.21,-108.25 634.75,-97.71 634.75,-82.79 655.21,-72.25 684.14,-72.25 704.6,-82.79"/>
<text xml:space="preserve" text-anchor="middle" x="669.68" y="-85.58" font-family="Times,serif" font-size="14.00">sum</text>
</g>
<!-- c11 -->
<g id="node6" class="node">
<title>c11</title>
<polygon fill="none" stroke="black" points="218.5,-154 218.5,-204.5 321.25,-204.5 321.25,-154 218.5,-154"/>
<text xml:space="preserve" text-anchor="middle" x="231.75" y="-187.2" font-family="Times,serif" font-size="14.00">A</text>
<polyline fill="none" stroke="black" points="218.5,-179.25 245,-179.25"/>
<text xml:space="preserve" text-anchor="middle" x="231.75" y="-161.95" font-family="Times,serif" font-size="14.00">B</text>
<polyline fill="none" stroke="black" points="245,-154 245,-204.5"/>
<text xml:space="preserve" text-anchor="middle" x="270.62" y="-183.2" font-family="Times,serif" font-size="14.00">$2</text>
<text xml:space="preserve" text-anchor="middle" x="270.62" y="-165.95" font-family="Times,serif" font-size="14.00">$add</text>
<polyline fill="none" stroke="black" points="296.25,-154 296.25,-204.5"/>
<text xml:space="preserve" text-anchor="middle" x="308.75" y="-174.7" font-family="Times,serif" font-size="14.00">Y</text>
</g>
<!-- c12 -->
<g id="node9" class="node">
<title>c12</title>
<polygon fill="none" stroke="black" points="357.25,-100 357.25,-150.5 460,-150.5 460,-100 357.25,-100"/>
<text xml:space="preserve" text-anchor="middle" x="370.5" y="-133.2" font-family="Times,serif" font-size="14.00">A</text>
<polyline fill="none" stroke="black" points="357.25,-125.25 383.75,-125.25"/>
<text xml:space="preserve" text-anchor="middle" x="370.5" y="-107.95" font-family="Times,serif" font-size="14.00">B</text>
<polyline fill="none" stroke="black" points="383.75,-100 383.75,-150.5"/>
<text xml:space="preserve" text-anchor="middle" x="409.38" y="-129.2" font-family="Times,serif" font-size="14.00">$3</text>
<text xml:space="preserve" text-anchor="middle" x="409.38" y="-111.95" font-family="Times,serif" font-size="14.00">$add</text>
<polyline fill="none" stroke="black" points="435,-100 435,-150.5"/>
<text xml:space="preserve" text-anchor="middle" x="447.5" y="-120.7" font-family="Times,serif" font-size="14.00">Y</text>
</g>
<!-- c11&#45;&gt;c12 -->
<g id="edge5" class="edge">
<title>c11:e&#45;&gt;c12:w</title>
<path fill="none" stroke="black" stroke-width="3" d="M321.25,-179.38C340.9,-179.38 336.43,-152.5 346.65,-142.01"/>
<polygon fill="black" stroke="black" stroke-width="3" points="344.97,-146.42 353.02,-139.52 342.43,-139.89 344.97,-146.42"/>
</g>
<!-- x0&#45;&gt;c11 -->
<g id="edge1" class="edge">
<title>x0:e&#45;&gt;c11:w</title>
<path fill="none" stroke="black" stroke-width="3" d="M194.21,-227.84C200.39,-219.96 200.57,-205.38 206.68,-197.42"/>
<polygon fill="none" stroke="black" stroke-width="3" points="195.85,-227.09 192.08,-233.23 184.96,-232.12 188.73,-225.97 195.85,-227.09"/>
<polygon fill="none" stroke="black" stroke-width="3" points="205.19,-198.12 208.92,-191.95 216.05,-193.02 212.32,-199.19 205.19,-198.12"/>
</g>
<!-- x1&#45;&gt;c11 -->
<g id="edge2" class="edge">
<title>x1:e&#45;&gt;c11:w</title>
<path fill="none" stroke="black" stroke-width="3" d="M195.24,-164.1C198.83,-164.6 201.94,-165.23 205.51,-165.74"/>
<polygon fill="none" stroke="black" stroke-width="3" points="197.17,-164.23 190.92,-167.82 185.2,-163.43 191.45,-159.84 197.17,-164.23"/>
<polygon fill="none" stroke="black" stroke-width="3" points="203.83,-165.62 210.09,-162.04 215.8,-166.44 209.54,-170.02 203.83,-165.62"/>
</g>
<!-- c13 -->
<g id="node11" class="node">
<title>c13</title>
<polygon fill="none" stroke="black" points="496,-65 496,-115.5 598.75,-115.5 598.75,-65 496,-65"/>
<text xml:space="preserve" text-anchor="middle" x="509.25" y="-98.2" font-family="Times,serif" font-size="14.00">A</text>
<polyline fill="none" stroke="black" points="496,-90.25 522.5,-90.25"/>
<text xml:space="preserve" text-anchor="middle" x="509.25" y="-72.95" font-family="Times,serif" font-size="14.00">B</text>
<polyline fill="none" stroke="black" points="522.5,-65 522.5,-115.5"/>
<text xml:space="preserve" text-anchor="middle" x="548.12" y="-94.2" font-family="Times,serif" font-size="14.00">$4</text>
<text xml:space="preserve" text-anchor="middle" x="548.12" y="-76.95" font-family="Times,serif" font-size="14.00">$add</text>
<polyline fill="none" stroke="black" points="573.75,-65 573.75,-115.5"/>
<text xml:space="preserve" text-anchor="middle" x="586.25" y="-85.7" font-family="Times,serif" font-size="14.00">Y</text>
</g>
<!-- c12&#45;&gt;c13 -->
<g id="edge6" class="edge">
<title>c12:e&#45;&gt;c13:w</title>
<path fill="none" stroke="black" stroke-width="3" d="M460,-125.38C474.15,-125.38 476.71,-112.72 485.07,-106.39"/>
<polygon fill="black" stroke="black" stroke-width="3" points="483.23,-110.66 491.68,-104.27 481.09,-103.99 483.23,-110.66"/>
</g>
<!-- x2&#45;&gt;c12 -->
<g id="edge3" class="edge">
<title>x2:e&#45;&gt;c12:w</title>
<path fill="none" stroke="black" stroke-width="3" d="M329.9,-109.93C335.1,-110.52 339.28,-111.36 344.48,-111.94"/>
<polygon fill="none" stroke="black" stroke-width="3" points="331.81,-110.04 325.6,-113.71 319.83,-109.39 326.03,-105.72 331.81,-110.04"/>
<polygon fill="none" stroke="black" stroke-width="3" points="342.57,-111.84 348.77,-108.17 354.55,-112.48 348.34,-116.15 342.57,-111.84"/>
</g>
<!-- c13&#45;&gt;n7 -->
<g id="edge11" class="edge">
<title>c13:e&#45;&gt;n7:w</title>
<path fill="none" stroke="black" stroke-width="3" d="M598.75,-90.38C610.13,-90.38 615.43,-90.31 623.3,-90.28"/>
<polygon fill="black" stroke="black" stroke-width="3" points="620.22,-93.78 630.21,-90.26 620.2,-86.78 620.22,-93.78"/>
</g>
<!-- x3&#45;&gt;c13 -->
<g id="edge4" class="edge">
<title>x3:e&#45;&gt;c13:w</title>
<path fill="none" stroke="black" stroke-width="3" d="M468.18,-58.94C474.18,-63.12 477.76,-69.86 483.8,-74"/>
<polygon fill="none" stroke="black" stroke-width="3" points="469.96,-59.48 463.06,-61.58 458.46,-56.03 465.36,-53.92 469.96,-59.48"/>
<polygon fill="none" stroke="black" stroke-width="3" points="481.9,-73.44 488.8,-71.31 493.41,-76.85 486.52,-78.98 481.9,-73.44"/>
</g>
</g>
</svg>
