<?xml version="1.0" encoding="UTF-8" standalone="no"?>
<!DOCTYPE svg PUBLIC "-//W3C//DTD SVG 1.1//EN"
 "http://www.w3.org/Graphics/SVG/1.1/DTD/svg11.dtd">
<!-- Generated by graphviz version 14.1.2 (0)
 -->
<!-- Title: control_fsm_v2 Pages: 1 -->
<svg width="1395pt" height="896pt"
 viewBox="0.00 0.00 1395.00 896.00" xmlns="http://www.w3.org/2000/svg" xmlns:xlink="http://www.w3.org/1999/xlink">
<g id="graph0" class="graph" transform="scale(1 1) rotate(0) translate(4 892.25)">
<title>control_fsm_v2</title>
<polygon fill="white" stroke="none" points="-4,4 -4,-892.25 1390.58,-892.25 1390.58,4 -4,4"/>
<text xml:space="preserve" text-anchor="middle" x="693.29" y="-7.95" font-family="Times,serif" font-size="14.00">control_fsm_v2</text>
<!-- n7 -->
<g id="node1" class="node">
<title>n7</title>
<polygon fill="none" stroke="black" points="67.01,-502.79 67.01,-517.71 50.88,-528.25 28.08,-528.25 11.96,-517.71 11.96,-502.79 28.08,-492.25 50.88,-492.25 67.01,-502.79"/>
<text xml:space="preserve" text-anchor="middle" x="39.48" y="-505.57" font-family="Times,serif" font-size="14.00">clk</text>
</g>
<!-- c20 -->
<g id="node9" class="node">
<title>c20</title>
<polygon fill="none" stroke="black" points="114.96,-462.75 114.96,-563.75 257.46,-563.75 257.46,-462.75 114.96,-462.75"/>
<text xml:space="preserve" text-anchor="middle" x="142.46" y="-546.45" font-family="Times,serif" font-size="14.00">ARST</text>
<polyline fill="none" stroke="black" points="114.96,-538.5 169.96,-538.5"/>
<text xml:space="preserve" text-anchor="middle" x="142.46" y="-521.2" font-family="Times,serif" font-size="14.00">CLK</text>
<polyline fill="none" stroke="black" points="114.96,-513.25 169.96,-513.25"/>
<text xml:space="preserve" text-anchor="middle" x="142.46" y="-495.95" font-family="Times,serif" font-size="14.00">D</text>
<polyline fill="none" stroke="black" points="114.96,-488 169.96,-488"/>
<text xml:space="preserve" text-anchor="middle" x="142.46" y="-470.7" font-family="Times,serif" font-size="14.00">EN</text>
<polyline fill="none" stroke="black" points="169.96,-462.75 169.96,-563.75"/>
<text xml:space="preserve" text-anchor="middle" x="200.09" y="-517.2" font-family="Times,serif" font-size="14.00">$90</text>
<text xml:space="preserve" text-anchor="middle" x="200.09" y="-499.95" font-family="Times,serif" font-size="14.00">$adffe</text>
<polyline fill="none" stroke="black" points="230.21,-462.75 230.21,-563.75"/>
<text xml:space="preserve" text-anchor="middle" x="243.84" y="-508.95" font-family="Times,serif" font-size="14.00">Q</text>
</g>
<!-- n7&#45;&gt;c20 -->
<g id="edge23" class="edge">
<title>n7:e&#45;&gt;c20:w</title>
<path fill="none" stroke="black" d="M68.26,-510.25C85.71,-510.25 91.11,-520.17 103.66,-524.2"/>
<polygon fill="black" stroke="black" points="103.06,-527.65 113.47,-525.65 104.09,-520.73 103.06,-527.65"/>
</g>
<!-- n8 -->
<g id="node2" class="node">
<title>n8</title>
<polygon fill="none" stroke="black" points="404.57,-569.25 293.46,-551.25 404.57,-533.25 515.68,-551.25 404.57,-569.25"/>
<text xml:space="preserve" text-anchor="middle" x="404.57" y="-546.58" font-family="Times,serif" font-size="14.00">current_state</text>
</g>
<!-- c30 -->
<g id="node26" class="node">
<title>c30</title>
<polygon fill="none" stroke="black" points="552.06,-559 552.06,-601.5 696.06,-601.5 696.06,-559 552.06,-559"/>
<text xml:space="preserve" text-anchor="middle" x="564.93" y="-575.7" font-family="Times,serif" font-size="14.00">A</text>
<polyline fill="none" stroke="black" points="577.81,-559 577.81,-601.5"/>
<text xml:space="preserve" text-anchor="middle" x="624.43" y="-584.2" font-family="Times,serif" font-size="14.00">$47_CMP0</text>
<text xml:space="preserve" text-anchor="middle" x="624.43" y="-566.95" font-family="Times,serif" font-size="14.00">$logic_not</text>
<polyline fill="none" stroke="black" points="671.06,-559 671.06,-601.5"/>
<text xml:space="preserve" text-anchor="middle" x="683.56" y="-575.7" font-family="Times,serif" font-size="14.00">Y</text>
</g>
<!-- n8&#45;&gt;c30 -->
<g id="edge25" class="edge">
<title>n8:e&#45;&gt;c30:w</title>
<path fill="none" stroke="black" stroke-width="3" d="M515.68,-551.25C531.6,-551.25 532.12,-568.67 541.06,-576.57"/>
<polygon fill="black" stroke="black" stroke-width="3" points="536.81,-578.76 547.41,-578.84 539.18,-572.17 536.81,-578.76"/>
</g>
<!-- c32 -->
<g id="node31" class="node">
<title>c32</title>
<polygon fill="none" stroke="black" points="551.68,-729 551.68,-779.5 696.43,-779.5 696.43,-729 551.68,-729"/>
<text xml:space="preserve" text-anchor="middle" x="564.93" y="-762.2" font-family="Times,serif" font-size="14.00">A</text>
<polyline fill="none" stroke="black" points="551.68,-754.25 578.18,-754.25"/>
<text xml:space="preserve" text-anchor="middle" x="564.93" y="-736.95" font-family="Times,serif" font-size="14.00">B</text>
<polyline fill="none" stroke="black" points="578.18,-729 578.18,-779.5"/>
<text xml:space="preserve" text-anchor="middle" x="624.81" y="-758.2" font-family="Times,serif" font-size="14.00">$50_CMP0</text>
<text xml:space="preserve" text-anchor="middle" x="624.81" y="-740.95" font-family="Times,serif" font-size="14.00">$eq</text>
<polyline fill="none" stroke="black" points="671.43,-729 671.43,-779.5"/>
<text xml:space="preserve" text-anchor="middle" x="683.93" y="-749.7" font-family="Times,serif" font-size="14.00">Y</text>
</g>
<!-- n8&#45;&gt;c32 -->
<g id="edge26" class="edge">
<title>n8:e&#45;&gt;c32:w</title>
<path fill="none" stroke="black" stroke-width="3" d="M515.68,-551.25C608.67,-551.25 467.66,-748.74 540.53,-765.71"/>
<polygon fill="black" stroke="black" stroke-width="3" points="536.86,-768.85 547.17,-766.41 537.58,-761.89 536.86,-768.85"/>
</g>
<!-- c34 -->
<g id="node36" class="node">
<title>c34</title>
<polygon fill="none" stroke="black" points="551.68,-328 551.68,-378.5 696.43,-378.5 696.43,-328 551.68,-328"/>
<text xml:space="preserve" text-anchor="middle" x="564.93" y="-361.2" font-family="Times,serif" font-size="14.00">A</text>
<polyline fill="none" stroke="black" points="551.68,-353.25 578.18,-353.25"/>
<text xml:space="preserve" text-anchor="middle" x="564.93" y="-335.95" font-family="Times,serif" font-size="14.00">B</text>
<polyline fill="none" stroke="black" points="578.18,-328 578.18,-378.5"/>
<text xml:space="preserve" text-anchor="middle" x="624.81" y="-357.2" font-family="Times,serif" font-size="14.00">$54_CMP0</text>
<text xml:space="preserve" text-anchor="middle" x="624.81" y="-339.95" font-family="Times,serif" font-size="14.00">$eq</text>
<polyline fill="none" stroke="black" points="671.43,-328 671.43,-378.5"/>
<text xml:space="preserve" text-anchor="middle" x="683.93" y="-348.7" font-family="Times,serif" font-size="14.00">Y</text>
</g>
<!-- n8&#45;&gt;c34 -->
<g id="edge27" class="edge">
<title>n8:e&#45;&gt;c34:w</title>
<path fill="none" stroke="black" stroke-width="3" d="M515.68,-551.25C595.35,-551.25 480.59,-384.22 540.51,-367.26"/>
<polygon fill="black" stroke="black" stroke-width="3" points="537.68,-371.14 547.18,-366.43 536.82,-364.19 537.68,-371.14"/>
</g>
<!-- n9 -->
<g id="node3" class="node">
<title>n9</title>
<polygon fill="none" stroke="black" points="967.65,-808.79 967.65,-823.71 945.19,-834.25 913.42,-834.25 890.96,-823.71 890.96,-808.79 913.42,-798.25 945.19,-798.25 967.65,-808.79"/>
<text xml:space="preserve" text-anchor="middle" x="929.31" y="-811.58" font-family="Times,serif" font-size="14.00">done</text>
</g>
<!-- n10 -->
<g id="node4" class="node">
<title>n10</title>
<polygon fill="none" stroke="black" points="1289.49,-236.25 1199.95,-218.25 1289.49,-200.25 1379.02,-218.25 1289.49,-236.25"/>
<text xml:space="preserve" text-anchor="middle" x="1289.49" y="-213.57" font-family="Times,serif" font-size="14.00">next_state</text>
</g>
<!-- n10&#45;&gt;c20 -->
<g id="edge6" class="edge">
<title>n10:e&#45;&gt;c20:w</title>
<path fill="none" stroke="black" stroke-width="3" d="M1382.25,-218.25C1398.23,-218.25 1372.63,-301.9 1199.95,-236.25 1179.94,-228.64 1183.64,-212.66 1163.95,-204.25 1068.15,-163.31 1034.49,-185.25 930.31,-185.25 623.06,-185.25 623.06,-185.25 623.06,-185.25 465.75,-185.25 428.98,-234.37 293.46,-314.25 204.69,-366.58 160,-369.56 114.96,-462.25 110.07,-472.32 103.82,-485.7 104.93,-493.71"/>
<polygon fill="black" stroke="black" stroke-width="3" points="100.29,-494.57 110.36,-497.87 104.54,-489.01 100.29,-494.57"/>
</g>
<!-- n11 -->
<g id="node5" class="node">
<title>n11</title>
<polygon fill="none" stroke="black" points="1163.95,-626.79 1163.95,-641.71 1121.48,-652.25 1061.41,-652.25 1018.93,-641.71 1018.93,-626.79 1061.41,-616.25 1121.48,-616.25 1163.95,-626.79"/>
<text xml:space="preserve" text-anchor="middle" x="1091.44" y="-629.58" font-family="Times,serif" font-size="14.00">product_en</text>
</g>
<!-- n12 -->
<g id="node6" class="node">
<title>n12</title>
<polygon fill="none" stroke="black" points="1153.7,-317.79 1153.7,-332.71 1117.23,-343.25 1065.65,-343.25 1029.18,-332.71 1029.18,-317.79 1065.65,-307.25 1117.23,-307.25 1153.7,-317.79"/>
<text xml:space="preserve" text-anchor="middle" x="1091.44" y="-320.57" font-family="Times,serif" font-size="14.00">result_en</text>
</g>
<!-- n13 -->
<g id="node7" class="node">
<title>n13</title>
<polygon fill="none" stroke="black" points="78.96,-556.79 78.96,-571.71 55.84,-582.25 23.13,-582.25 0,-571.71 0,-556.79 23.13,-546.25 55.84,-546.25 78.96,-556.79"/>
<text xml:space="preserve" text-anchor="middle" x="39.48" y="-559.58" font-family="Times,serif" font-size="14.00">rst_n</text>
</g>
<!-- n13&#45;&gt;c20 -->
<g id="edge9" class="edge">
<title>n13:e&#45;&gt;c20:w</title>
<path fill="none" stroke="black" d="M78.96,-564.25C91.34,-564.25 95.75,-557.32 103.76,-553.53"/>
<polygon fill="black" stroke="black" points="104.44,-556.97 113.48,-551.44 102.97,-550.12 104.44,-556.97"/>
</g>
<!-- n14 -->
<g id="node8" class="node">
<title>n14</title>
<polygon fill="none" stroke="black" points="662.4,-514.79 662.4,-529.71 639.94,-540.25 608.17,-540.25 585.71,-529.71 585.71,-514.79 608.17,-504.25 639.94,-504.25 662.4,-514.79"/>
<text xml:space="preserve" text-anchor="middle" x="624.06" y="-517.58" font-family="Times,serif" font-size="14.00">start</text>
</g>
<!-- x0 -->
<g id="node12" class="node">
<title>x0</title>
<path fill="none" stroke="black" d="M904.06,-524C904.06,-524 954.56,-524 954.56,-524 960.56,-524 966.56,-530 966.56,-536 966.56,-536 966.56,-562.5 966.56,-562.5 966.56,-568.5 960.56,-574.5 954.56,-574.5 954.56,-574.5 904.06,-574.5 904.06,-574.5 898.06,-574.5 892.06,-568.5 892.06,-562.5 892.06,-562.5 892.06,-536 892.06,-536 892.06,-530 898.06,-524 904.06,-524"/>
<text xml:space="preserve" text-anchor="middle" x="929.31" y="-557.2" font-family="Times,serif" font-size="14.00">0:0 &#45; 1:1</text>
<polyline fill="none" stroke="black" points="892.06,-549.25 966.56,-549.25"/>
<text xml:space="preserve" text-anchor="middle" x="929.31" y="-531.95" font-family="Times,serif" font-size="14.00">0:0 &#45; 0:0</text>
</g>
<!-- n14&#45;&gt;x0 -->
<g id="edge12" class="edge">
<title>n14:e&#45;&gt;x0:w</title>
<path fill="none" stroke="black" d="M663.76,-522.25C761.13,-522.25 787.83,-535.55 879.82,-536.56"/>
<polygon fill="black" stroke="black" points="879.52,-540.06 889.54,-536.62 879.56,-533.06 879.52,-540.06"/>
</g>
<!-- c26 -->
<g id="node15" class="node">
<title>c26</title>
<polygon fill="none" stroke="black" points="732.43,-79.38 732.43,-155.12 839.68,-155.12 839.68,-79.38 732.43,-79.38"/>
<text xml:space="preserve" text-anchor="middle" x="745.68" y="-137.82" font-family="Times,serif" font-size="14.00">A</text>
<polyline fill="none" stroke="black" points="732.43,-129.88 758.93,-129.88"/>
<text xml:space="preserve" text-anchor="middle" x="745.68" y="-112.58" font-family="Times,serif" font-size="14.00">B</text>
<polyline fill="none" stroke="black" points="732.43,-104.62 758.93,-104.62"/>
<text xml:space="preserve" text-anchor="middle" x="745.68" y="-87.33" font-family="Times,serif" font-size="14.00">S</text>
<polyline fill="none" stroke="black" points="758.93,-79.38 758.93,-155.12"/>
<text xml:space="preserve" text-anchor="middle" x="786.81" y="-121.2" font-family="Times,serif" font-size="14.00">$26</text>
<text xml:space="preserve" text-anchor="middle" x="786.81" y="-103.95" font-family="Times,serif" font-size="14.00">$mux</text>
<polyline fill="none" stroke="black" points="814.68,-79.38 814.68,-155.12"/>
<text xml:space="preserve" text-anchor="middle" x="827.18" y="-112.83" font-family="Times,serif" font-size="14.00">Y</text>
</g>
<!-- n14&#45;&gt;c26 -->
<g id="edge10" class="edge">
<title>n14:e&#45;&gt;c26:w</title>
<path fill="none" stroke="black" d="M663.76,-522.25C725.06,-522.25 685.46,-448.56 696.43,-388.25 701.79,-358.81 699.79,-141.29 723.71,-99.08"/>
<polygon fill="black" stroke="black" points="725.7,-101.98 731.26,-92.95 721.29,-96.54 725.7,-101.98"/>
</g>
<!-- c27 -->
<g id="node18" class="node">
<title>c27</title>
<polygon fill="none" stroke="black" points="732.43,-596.38 732.43,-672.12 839.68,-672.12 839.68,-596.38 732.43,-596.38"/>
<text xml:space="preserve" text-anchor="middle" x="745.68" y="-654.83" font-family="Times,serif" font-size="14.00">A</text>
<polyline fill="none" stroke="black" points="732.43,-646.88 758.93,-646.88"/>
<text xml:space="preserve" text-anchor="middle" x="745.68" y="-629.58" font-family="Times,serif" font-size="14.00">B</text>
<polyline fill="none" stroke="black" points="732.43,-621.62 758.93,-621.62"/>
<text xml:space="preserve" text-anchor="middle" x="745.68" y="-604.33" font-family="Times,serif" font-size="14.00">S</text>
<polyline fill="none" stroke="black" points="758.93,-596.38 758.93,-672.12"/>
<text xml:space="preserve" text-anchor="middle" x="786.81" y="-638.2" font-family="Times,serif" font-size="14.00">$34</text>
<text xml:space="preserve" text-anchor="middle" x="786.81" y="-620.95" font-family="Times,serif" font-size="14.00">$mux</text>
<polyline fill="none" stroke="black" points="814.68,-596.38 814.68,-672.12"/>
<text xml:space="preserve" text-anchor="middle" x="827.18" y="-629.83" font-family="Times,serif" font-size="14.00">Y</text>
</g>
<!-- n14&#45;&gt;c27 -->
<g id="edge11" class="edge">
<title>n14:e&#45;&gt;c27:w</title>
<path fill="none" stroke="black" d="M663.76,-522.25C682.6,-522.25 684.14,-534.98 696.43,-549.25 713.67,-569.25 705.17,-598.52 721.42,-606.76"/>
<polygon fill="black" stroke="black" points="720.45,-610.14 730.95,-608.7 721.85,-603.28 720.45,-610.14"/>
</g>
<!-- c20&#45;&gt;n8 -->
<g id="edge24" class="edge">
<title>c20:e&#45;&gt;n8:w</title>
<path fill="none" stroke="black" stroke-width="3" d="M257.46,-513.62C275.91,-513.62 273.12,-537.52 282.94,-547.22"/>
<polygon fill="black" stroke="black" stroke-width="3" points="278.63,-549.32 289.22,-549.63 281.13,-542.79 278.63,-549.32"/>
</g>
<!-- v1 -->
<g id="node10" class="node">
<title>v1</title>
<ellipse fill="none" stroke="black" cx="929.31" cy="-449.25" rx="32.79" ry="18"/>
<text xml:space="preserve" text-anchor="middle" x="929.31" y="-444.57" font-family="Times,serif" font-size="14.00">2&#39;10</text>
</g>
<!-- c24 -->
<g id="node11" class="node">
<title>c24</title>
<polygon fill="none" stroke="black" points="1044.19,-470 1044.19,-520.5 1138.69,-520.5 1138.69,-470 1044.19,-470"/>
<text xml:space="preserve" text-anchor="middle" x="1057.44" y="-503.2" font-family="Times,serif" font-size="14.00">A</text>
<polyline fill="none" stroke="black" points="1044.19,-495.25 1070.69,-495.25"/>
<text xml:space="preserve" text-anchor="middle" x="1057.44" y="-477.95" font-family="Times,serif" font-size="14.00">B</text>
<polyline fill="none" stroke="black" points="1070.69,-470 1070.69,-520.5"/>
<text xml:space="preserve" text-anchor="middle" x="1092.19" y="-499.2" font-family="Times,serif" font-size="14.00">$92</text>
<text xml:space="preserve" text-anchor="middle" x="1092.19" y="-481.95" font-family="Times,serif" font-size="14.00">$ne</text>
<polyline fill="none" stroke="black" points="1113.69,-470 1113.69,-520.5"/>
<text xml:space="preserve" text-anchor="middle" x="1126.19" y="-490.7" font-family="Times,serif" font-size="14.00">Y</text>
</g>
<!-- v1&#45;&gt;c24 -->
<g id="edge29" class="edge">
<title>v1:e&#45;&gt;c24:w</title>
<path fill="none" stroke="black" stroke-width="3" d="M963.41,-449.25C997.64,-449.25 1003.69,-475.72 1031.76,-481.51"/>
<polygon fill="black" stroke="black" stroke-width="3" points="1028.38,-484.7 1038.67,-482.19 1029.06,-477.74 1028.38,-484.7"/>
</g>
<!-- c24&#45;&gt;c20 -->
<g id="edge14" class="edge">
<title>c24:e&#45;&gt;c20:w</title>
<path fill="none" stroke="black" d="M1139.69,-495.38C1151.09,-495.38 1146.91,-513.1 1138.69,-521 1088.75,-569.03 1051.94,-520.52 982.93,-514.25 661,-484.99 580.52,-473.81 257.46,-462.25 194.17,-459.98 161.42,-419.2 114.96,-462.25 114.43,-462.75 113.92,-463.32 113.45,-463.96"/>
<polygon fill="black" stroke="black" points="109.95,-464.03 113.9,-473.86 116.94,-463.72 109.95,-464.03"/>
</g>
<!-- x0&#45;&gt;c24 -->
<g id="edge1" class="edge">
<title>x0:e&#45;&gt;c24:w</title>
<path fill="none" stroke="black" stroke-width="3" d="M980.24,-547.47C1002.48,-540.7 1008.2,-516.54 1030.38,-509.69"/>
<polygon fill="none" stroke="black" stroke-width="3" points="982.12,-547.21 976.73,-552 970.24,-548.87 975.62,-544.08 982.12,-547.21"/>
<polygon fill="none" stroke="black" stroke-width="3" points="1028.63,-509.94 1034.01,-505.14 1040.52,-508.25 1035.14,-513.06 1028.63,-509.94"/>
</g>
<!-- v2 -->
<g id="node13" class="node">
<title>v2</title>
<ellipse fill="none" stroke="black" cx="624.06" cy="-139.25" rx="27" ry="18"/>
<text xml:space="preserve" text-anchor="middle" x="624.06" y="-134.57" font-family="Times,serif" font-size="14.00">2&#39;x</text>
</g>
<!-- v2&#45;&gt;c26 -->
<g id="edge37" class="edge">
<title>v2:e&#45;&gt;c26:w</title>
<path fill="none" stroke="black" stroke-width="3" d="M652.31,-139.25C683.77,-139.25 694.35,-141.78 720.92,-142.38"/>
<polygon fill="black" stroke="black" stroke-width="3" points="717.85,-145.84 727.89,-142.45 717.93,-138.84 717.85,-145.84"/>
</g>
<!-- v3 -->
<g id="node14" class="node">
<title>v3</title>
<ellipse fill="none" stroke="black" cx="624.06" cy="-85.25" rx="32.79" ry="18"/>
<text xml:space="preserve" text-anchor="middle" x="624.06" y="-80.58" font-family="Times,serif" font-size="14.00">2&#39;01</text>
</g>
<!-- v3&#45;&gt;c26 -->
<g id="edge38" class="edge">
<title>v3:e&#45;&gt;c26:w</title>
<path fill="none" stroke="black" stroke-width="3" d="M658.16,-85.25C689.89,-85.25 695.47,-110.19 721.07,-116.03"/>
<polygon fill="black" stroke="black" stroke-width="3" points="717.6,-119.18 727.92,-116.77 718.35,-112.22 717.6,-119.18"/>
</g>
<!-- x7 -->
<g id="node22" class="node">
<title>x7</title>
<path fill="none" stroke="black" d="M904.06,-80C904.06,-80 954.56,-80 954.56,-80 960.56,-80 966.56,-86 966.56,-92 966.56,-92 966.56,-118.5 966.56,-118.5 966.56,-124.5 960.56,-130.5 954.56,-130.5 954.56,-130.5 904.06,-130.5 904.06,-130.5 898.06,-130.5 892.06,-124.5 892.06,-118.5 892.06,-118.5 892.06,-92 892.06,-92 892.06,-86 898.06,-80 904.06,-80"/>
<text xml:space="preserve" text-anchor="middle" x="929.31" y="-113.2" font-family="Times,serif" font-size="14.00">1:0 &#45; 3:2</text>
<polyline fill="none" stroke="black" points="892.06,-105.25 966.56,-105.25"/>
<text xml:space="preserve" text-anchor="middle" x="929.31" y="-87.95" font-family="Times,serif" font-size="14.00">1:0 &#45; 1:0</text>
</g>
<!-- c26&#45;&gt;x7 -->
<g id="edge4" class="edge">
<title>c26:e&#45;&gt;x7:w</title>
<path fill="none" stroke="black" stroke-width="3" d="M839.68,-117.5C858.23,-117.5 865.48,-117.75 879.79,-117.84"/>
<polygon fill="black" stroke="black" stroke-width="3" points="876.51,-121.33 886.52,-117.86 876.53,-114.33 876.51,-121.33"/>
</g>
<!-- v4 -->
<g id="node16" class="node">
<title>v4</title>
<ellipse fill="none" stroke="black" cx="624.06" cy="-692.25" rx="27" ry="18"/>
<text xml:space="preserve" text-anchor="middle" x="624.06" y="-687.58" font-family="Times,serif" font-size="14.00">1&#39;0</text>
</g>
<!-- v4&#45;&gt;c27 -->
<g id="edge39" class="edge">
<title>v4:e&#45;&gt;c27:w</title>
<path fill="none" stroke="black" d="M652.31,-692.25C686.57,-692.25 692.84,-666.27 720.98,-660.59"/>
<polygon fill="black" stroke="black" points="721.3,-664.08 730.93,-659.64 720.64,-657.11 721.3,-664.08"/>
</g>
<!-- v5 -->
<g id="node17" class="node">
<title>v5</title>
<ellipse fill="none" stroke="black" cx="624.06" cy="-638.25" rx="27" ry="18"/>
<text xml:space="preserve" text-anchor="middle" x="624.06" y="-633.58" font-family="Times,serif" font-size="14.00">1&#39;1</text>
</g>
<!-- v5&#45;&gt;c27 -->
<g id="edge40" class="edge">
<title>v5:e&#45;&gt;c27:w</title>
<path fill="none" stroke="black" d="M652.31,-638.25C683.93,-638.25 694.44,-635.1 721.27,-634.39"/>
<polygon fill="black" stroke="black" points="720.96,-637.9 730.92,-634.27 720.87,-630.9 720.96,-637.9"/>
</g>
<!-- c29 -->
<g id="node25" class="node">
<title>c29</title>
<polygon fill="none" stroke="black" points="875.68,-596.38 875.68,-672.12 982.93,-672.12 982.93,-596.38 875.68,-596.38"/>
<text xml:space="preserve" text-anchor="middle" x="888.93" y="-654.83" font-family="Times,serif" font-size="14.00">A</text>
<polyline fill="none" stroke="black" points="875.68,-646.88 902.18,-646.88"/>
<text xml:space="preserve" text-anchor="middle" x="888.93" y="-629.58" font-family="Times,serif" font-size="14.00">B</text>
<polyline fill="none" stroke="black" points="875.68,-621.62 902.18,-621.62"/>
<text xml:space="preserve" text-anchor="middle" x="888.93" y="-604.33" font-family="Times,serif" font-size="14.00">S</text>
<polyline fill="none" stroke="black" points="902.18,-596.38 902.18,-672.12"/>
<text xml:space="preserve" text-anchor="middle" x="930.06" y="-638.2" font-family="Times,serif" font-size="14.00">$46</text>
<text xml:space="preserve" text-anchor="middle" x="930.06" y="-620.95" font-family="Times,serif" font-size="14.00">$mux</text>
<polyline fill="none" stroke="black" points="957.93,-596.38 957.93,-672.12"/>
<text xml:space="preserve" text-anchor="middle" x="970.43" y="-629.83" font-family="Times,serif" font-size="14.00">Y</text>
</g>
<!-- c27&#45;&gt;c29 -->
<g id="edge13" class="edge">
<title>c27:e&#45;&gt;c29:w</title>
<path fill="none" stroke="black" d="M839.68,-634.5C851.06,-634.5 856.37,-634.37 864.24,-634.3"/>
<polygon fill="black" stroke="black" points="864.18,-637.8 874.17,-634.26 864.15,-630.8 864.18,-637.8"/>
</g>
<!-- v6 -->
<g id="node19" class="node">
<title>v6</title>
<ellipse fill="none" stroke="black" cx="929.31" cy="-231.25" rx="32.79" ry="18"/>
<text xml:space="preserve" text-anchor="middle" x="929.31" y="-226.57" font-family="Times,serif" font-size="14.00">2&#39;00</text>
</g>
<!-- c28 -->
<g id="node21" class="node">
<title>c28</title>
<polygon fill="none" stroke="black" points="1033.32,-213.38 1033.32,-289.12 1149.57,-289.12 1149.57,-213.38 1033.32,-213.38"/>
<text xml:space="preserve" text-anchor="middle" x="1046.57" y="-271.82" font-family="Times,serif" font-size="14.00">A</text>
<polyline fill="none" stroke="black" points="1033.32,-263.88 1059.82,-263.88"/>
<text xml:space="preserve" text-anchor="middle" x="1046.57" y="-246.57" font-family="Times,serif" font-size="14.00">B</text>
<polyline fill="none" stroke="black" points="1033.32,-238.62 1059.82,-238.62"/>
<text xml:space="preserve" text-anchor="middle" x="1046.57" y="-221.32" font-family="Times,serif" font-size="14.00">S</text>
<polyline fill="none" stroke="black" points="1059.82,-213.38 1059.82,-289.12"/>
<text xml:space="preserve" text-anchor="middle" x="1092.19" y="-255.2" font-family="Times,serif" font-size="14.00">$40</text>
<text xml:space="preserve" text-anchor="middle" x="1092.19" y="-237.95" font-family="Times,serif" font-size="14.00">$pmux</text>
<polyline fill="none" stroke="black" points="1124.57,-213.38 1124.57,-289.12"/>
<text xml:space="preserve" text-anchor="middle" x="1137.07" y="-246.82" font-family="Times,serif" font-size="14.00">Y</text>
</g>
<!-- v6&#45;&gt;c28 -->
<g id="edge41" class="edge">
<title>v6:e&#45;&gt;c28:w</title>
<path fill="none" stroke="black" stroke-width="3" d="M963.41,-231.25C995.75,-231.25 996.14,-266.52 1020.99,-274.78"/>
<polygon fill="black" stroke="black" stroke-width="3" points="1017.42,-277.78 1027.83,-275.82 1018.47,-270.86 1017.42,-277.78"/>
</g>
<!-- v8 -->
<g id="node20" class="node">
<title>v8</title>
<ellipse fill="none" stroke="black" cx="786.06" cy="-43.25" rx="32.79" ry="18"/>
<text xml:space="preserve" text-anchor="middle" x="786.06" y="-38.58" font-family="Times,serif" font-size="14.00">2&#39;10</text>
</g>
<!-- v8&#45;&gt;x7 -->
<g id="edge42" class="edge">
<title>v8:e&#45;&gt;x7:w</title>
<path fill="none" stroke="black" stroke-width="3" d="M820.16,-43.25C854.36,-43.25 853.42,-82.41 879.93,-90.98"/>
<polygon fill="black" stroke="black" stroke-width="3" points="876.16,-93.96 886.57,-91.96 877.18,-87.04 876.16,-93.96"/>
</g>
<!-- c28&#45;&gt;n10 -->
<g id="edge5" class="edge">
<title>c28:e&#45;&gt;n10:w</title>
<path fill="none" stroke="black" stroke-width="3" d="M1150.57,-251.5C1172.69,-251.5 1173.85,-228.27 1189.09,-220.64"/>
<polygon fill="black" stroke="black" stroke-width="3" points="1186.51,-224.79 1195.52,-219.23 1185,-217.96 1186.51,-224.79"/>
</g>
<!-- x7&#45;&gt;c28 -->
<g id="edge2" class="edge">
<title>x7:e&#45;&gt;c28:w</title>
<path fill="none" stroke="black" stroke-width="3" d="M980.44,-107.31C1024.86,-123.74 974.93,-233.12 1019.64,-249.26"/>
<polygon fill="none" stroke="black" stroke-width="3" points="982.08,-107.58 975.52,-110.58 970.23,-105.68 976.78,-102.68 982.08,-107.58"/>
<polygon fill="none" stroke="black" stroke-width="3" points="1017.79,-248.97 1024.34,-245.95 1029.65,-250.83 1023.1,-253.85 1017.79,-248.97"/>
</g>
<!-- x9 -->
<g id="node23" class="node">
<title>x9</title>
<path fill="none" stroke="black" d="M904.06,-362C904.06,-362 954.56,-362 954.56,-362 960.56,-362 966.56,-368 966.56,-374 966.56,-374 966.56,-400.5 966.56,-400.5 966.56,-406.5 960.56,-412.5 954.56,-412.5 954.56,-412.5 904.06,-412.5 904.06,-412.5 898.06,-412.5 892.06,-406.5 892.06,-400.5 892.06,-400.5 892.06,-374 892.06,-374 892.06,-368 898.06,-362 904.06,-362"/>
<text xml:space="preserve" text-anchor="middle" x="929.31" y="-395.2" font-family="Times,serif" font-size="14.00">0:0 &#45; 1:1</text>
<polyline fill="none" stroke="black" points="892.06,-387.25 966.56,-387.25"/>
<text xml:space="preserve" text-anchor="middle" x="929.31" y="-369.95" font-family="Times,serif" font-size="14.00">0:0 &#45; 0:0</text>
</g>
<!-- x9&#45;&gt;c28 -->
<g id="edge3" class="edge">
<title>x9:e&#45;&gt;c28:w</title>
<path fill="none" stroke="black" stroke-width="3" d="M980.16,-385.44C1030.53,-368.93 969.47,-244.8 1019.44,-227.9"/>
<polygon fill="none" stroke="black" stroke-width="3" points="982.11,-385.16 976.74,-389.97 970.23,-386.87 975.6,-382.05 982.11,-385.16"/>
<polygon fill="none" stroke="black" stroke-width="3" points="1017.77,-228.15 1023.12,-223.31 1029.64,-226.4 1024.29,-231.23 1017.77,-228.15"/>
</g>
<!-- v10 -->
<g id="node24" class="node">
<title>v10</title>
<ellipse fill="none" stroke="black" cx="786.06" cy="-708.25" rx="27" ry="18"/>
<text xml:space="preserve" text-anchor="middle" x="786.06" y="-703.58" font-family="Times,serif" font-size="14.00">1&#39;0</text>
</g>
<!-- v10&#45;&gt;c29 -->
<g id="edge30" class="edge">
<title>v10:e&#45;&gt;c29:w</title>
<path fill="none" stroke="black" d="M814.31,-708.25C844.79,-708.25 842.25,-670.93 864.47,-661.59"/>
<polygon fill="black" stroke="black" points="865.01,-665.06 874.19,-659.78 863.72,-658.17 865.01,-665.06"/>
</g>
<!-- c29&#45;&gt;n11 -->
<g id="edge7" class="edge">
<title>c29:e&#45;&gt;n11:w</title>
<path fill="none" stroke="black" d="M982.93,-634.5C994.31,-634.5 999.62,-634.37 1007.49,-634.3"/>
<polygon fill="black" stroke="black" points="1007.43,-637.8 1017.42,-634.26 1007.4,-630.8 1007.43,-637.8"/>
</g>
<!-- n4 -->
<g id="node37" class="node">
<title>n4</title>
<ellipse fill="black" stroke="black" cx="786.06" cy="-567.25" rx="1.8" ry="1.8"/>
</g>
<!-- c30&#45;&gt;n4 -->
<g id="edge15" class="edge">
<title>c30:e&#45;&gt;n4:w</title>
<path fill="none" stroke="black" d="M696.43,-580.38C731.16,-580.38 741.79,-569.87 771.43,-567.66"/>
<polygon fill="black" stroke="black" points="771.4,-571.16 781.27,-567.3 771.15,-564.17 771.4,-571.16"/>
</g>
<!-- v11 -->
<g id="node27" class="node">
<title>v11</title>
<ellipse fill="none" stroke="black" cx="624.06" cy="-870.25" rx="27" ry="18"/>
<text xml:space="preserve" text-anchor="middle" x="624.06" y="-865.58" font-family="Times,serif" font-size="14.00">1&#39;0</text>
</g>
<!-- c31 -->
<g id="node29" class="node">
<title>c31</title>
<polygon fill="none" stroke="black" points="732.43,-778.38 732.43,-854.12 839.68,-854.12 839.68,-778.38 732.43,-778.38"/>
<text xml:space="preserve" text-anchor="middle" x="745.68" y="-836.83" font-family="Times,serif" font-size="14.00">A</text>
<polyline fill="none" stroke="black" points="732.43,-828.88 758.93,-828.88"/>
<text xml:space="preserve" text-anchor="middle" x="745.68" y="-811.58" font-family="Times,serif" font-size="14.00">B</text>
<polyline fill="none" stroke="black" points="732.43,-803.62 758.93,-803.62"/>
<text xml:space="preserve" text-anchor="middle" x="745.68" y="-786.33" font-family="Times,serif" font-size="14.00">S</text>
<polyline fill="none" stroke="black" points="758.93,-778.38 758.93,-854.12"/>
<text xml:space="preserve" text-anchor="middle" x="786.81" y="-820.2" font-family="Times,serif" font-size="14.00">$49</text>
<text xml:space="preserve" text-anchor="middle" x="786.81" y="-802.95" font-family="Times,serif" font-size="14.00">$mux</text>
<polyline fill="none" stroke="black" points="814.68,-778.38 814.68,-854.12"/>
<text xml:space="preserve" text-anchor="middle" x="827.18" y="-811.83" font-family="Times,serif" font-size="14.00">Y</text>
</g>
<!-- v11&#45;&gt;c31 -->
<g id="edge31" class="edge">
<title>v11:e&#45;&gt;c31:w</title>
<path fill="none" stroke="black" d="M652.31,-870.25C686.01,-870.25 693.23,-847.45 721.13,-842.46"/>
<polygon fill="black" stroke="black" points="721.25,-845.96 730.92,-841.63 720.66,-838.98 721.25,-845.96"/>
</g>
<!-- v12 -->
<g id="node28" class="node">
<title>v12</title>
<ellipse fill="none" stroke="black" cx="624.06" cy="-816.25" rx="27" ry="18"/>
<text xml:space="preserve" text-anchor="middle" x="624.06" y="-811.58" font-family="Times,serif" font-size="14.00">1&#39;1</text>
</g>
<!-- v12&#45;&gt;c31 -->
<g id="edge32" class="edge">
<title>v12:e&#45;&gt;c31:w</title>
<path fill="none" stroke="black" d="M652.31,-816.25C683.75,-816.25 694.37,-816.25 720.93,-816.25"/>
<polygon fill="black" stroke="black" points="720.92,-819.75 730.92,-816.25 720.92,-812.75 720.92,-819.75"/>
</g>
<!-- c31&#45;&gt;n9 -->
<g id="edge28" class="edge">
<title>c31:e&#45;&gt;n9:w</title>
<path fill="none" stroke="black" d="M839.68,-816.5C857.54,-816.5 864.62,-816.34 878.26,-816.27"/>
<polygon fill="black" stroke="black" points="878.1,-819.78 888.09,-816.25 878.08,-812.78 878.1,-819.78"/>
</g>
<!-- v13 -->
<g id="node30" class="node">
<title>v13</title>
<ellipse fill="none" stroke="black" cx="404.57" cy="-742.25" rx="32.79" ry="18"/>
<text xml:space="preserve" text-anchor="middle" x="404.57" y="-737.58" font-family="Times,serif" font-size="14.00">2&#39;10</text>
</g>
<!-- v13&#45;&gt;c32 -->
<g id="edge33" class="edge">
<title>v13:e&#45;&gt;c32:w</title>
<path fill="none" stroke="black" stroke-width="3" d="M438.67,-742.25C484.88,-742.25 499.2,-741.72 540.3,-741.64"/>
<polygon fill="black" stroke="black" stroke-width="3" points="537.15,-745.14 547.14,-741.63 537.14,-738.14 537.15,-745.14"/>
</g>
<!-- c32&#45;&gt;c31 -->
<g id="edge22" class="edge">
<title>c32:e&#45;&gt;c31:w</title>
<path fill="none" stroke="black" d="M696.43,-754.38C714.44,-754.38 712.23,-777.18 721.71,-786.8"/>
<polygon fill="black" stroke="black" points="720.44,-790.06 731.02,-790.45 722.99,-783.54 720.44,-790.06"/>
</g>
<!-- v14 -->
<g id="node32" class="node">
<title>v14</title>
<ellipse fill="none" stroke="black" cx="786.06" cy="-372.25" rx="27" ry="18"/>
<text xml:space="preserve" text-anchor="middle" x="786.06" y="-367.57" font-family="Times,serif" font-size="14.00">1&#39;0</text>
</g>
<!-- c33 -->
<g id="node34" class="node">
<title>c33</title>
<polygon fill="none" stroke="black" points="875.68,-267.38 875.68,-343.12 982.93,-343.12 982.93,-267.38 875.68,-267.38"/>
<text xml:space="preserve" text-anchor="middle" x="888.93" y="-325.82" font-family="Times,serif" font-size="14.00">A</text>
<polyline fill="none" stroke="black" points="875.68,-317.88 902.18,-317.88"/>
<text xml:space="preserve" text-anchor="middle" x="888.93" y="-300.57" font-family="Times,serif" font-size="14.00">B</text>
<polyline fill="none" stroke="black" points="875.68,-292.62 902.18,-292.62"/>
<text xml:space="preserve" text-anchor="middle" x="888.93" y="-275.32" font-family="Times,serif" font-size="14.00">S</text>
<polyline fill="none" stroke="black" points="902.18,-267.38 902.18,-343.12"/>
<text xml:space="preserve" text-anchor="middle" x="930.06" y="-309.2" font-family="Times,serif" font-size="14.00">$53</text>
<text xml:space="preserve" text-anchor="middle" x="930.06" y="-291.95" font-family="Times,serif" font-size="14.00">$mux</text>
<polyline fill="none" stroke="black" points="957.93,-267.38 957.93,-343.12"/>
<text xml:space="preserve" text-anchor="middle" x="970.43" y="-300.82" font-family="Times,serif" font-size="14.00">Y</text>
</g>
<!-- v14&#45;&gt;c33 -->
<g id="edge34" class="edge">
<title>v14:e&#45;&gt;c33:w</title>
<path fill="none" stroke="black" d="M814.31,-372.25C842.92,-372.25 843.25,-340.85 864.35,-332.51"/>
<polygon fill="black" stroke="black" points="864.96,-335.96 874.19,-330.76 863.73,-329.07 864.96,-335.96"/>
</g>
<!-- v15 -->
<g id="node33" class="node">
<title>v15</title>
<ellipse fill="none" stroke="black" cx="786.06" cy="-318.25" rx="27" ry="18"/>
<text xml:space="preserve" text-anchor="middle" x="786.06" y="-313.57" font-family="Times,serif" font-size="14.00">1&#39;1</text>
</g>
<!-- v15&#45;&gt;c33 -->
<g id="edge35" class="edge">
<title>v15:e&#45;&gt;c33:w</title>
<path fill="none" stroke="black" d="M814.31,-318.25C837.94,-318.25 845.57,-308.91 864.33,-306.06"/>
<polygon fill="black" stroke="black" points="864.45,-309.56 874.17,-305.36 863.95,-302.58 864.45,-309.56"/>
</g>
<!-- c33&#45;&gt;n12 -->
<g id="edge8" class="edge">
<title>c33:e&#45;&gt;n12:w</title>
<path fill="none" stroke="black" d="M982.93,-305.5C1000.33,-305.5 1004.7,-318.04 1016.81,-323.14"/>
<polygon fill="black" stroke="black" points="1015.96,-326.54 1026.43,-324.97 1017.26,-319.66 1015.96,-326.54"/>
</g>
<!-- v16 -->
<g id="node35" class="node">
<title>v16</title>
<ellipse fill="none" stroke="black" cx="404.57" cy="-341.25" rx="32.79" ry="18"/>
<text xml:space="preserve" text-anchor="middle" x="404.57" y="-336.57" font-family="Times,serif" font-size="14.00">2&#39;01</text>
</g>
<!-- v16&#45;&gt;c34 -->
<g id="edge36" class="edge">
<title>v16:e&#45;&gt;c34:w</title>
<path fill="none" stroke="black" stroke-width="3" d="M438.67,-341.25C484.88,-341.25 499.2,-340.72 540.3,-340.64"/>
<polygon fill="black" stroke="black" stroke-width="3" points="537.15,-344.14 547.14,-340.63 537.14,-337.14 537.15,-344.14"/>
</g>
<!-- n5 -->
<g id="node38" class="node">
<title>n5</title>
<ellipse fill="black" stroke="black" cx="786.06" cy="-280.25" rx="1.8" ry="1.8"/>
</g>
<!-- c34&#45;&gt;n5 -->
<g id="edge19" class="edge">
<title>c34:e&#45;&gt;n5:w</title>
<path fill="none" stroke="black" d="M696.43,-353.38C728.34,-353.38 706.65,-310.06 732.43,-291.25 747.61,-280.18 756.35,-279.87 771.65,-280.12"/>
<polygon fill="black" stroke="black" points="771.22,-283.61 781.27,-280.23 771.31,-276.61 771.22,-283.61"/>
</g>
<!-- n4&#45;&gt;x0 -->
<g id="edge17" class="edge">
<title>n4:e&#45;&gt;x0:w</title>
<path fill="none" stroke="black" d="M789.34,-567.25C830.54,-567.25 843.5,-562.8 879.63,-562"/>
<polygon fill="black" stroke="black" points="879.58,-565.5 889.54,-561.89 879.51,-558.5 879.58,-565.5"/>
</g>
<!-- n4&#45;&gt;x9 -->
<g id="edge18" class="edge">
<title>n4:e&#45;&gt;x9:w</title>
<path fill="none" stroke="black" d="M789.34,-567.25C872.3,-567.25 810.44,-415.2 879.83,-400.94"/>
<polygon fill="black" stroke="black" points="879.93,-404.45 889.55,-400.02 879.26,-397.48 879.93,-404.45"/>
</g>
<!-- n4&#45;&gt;c29 -->
<g id="edge16" class="edge">
<title>n4:e&#45;&gt;c29:w</title>
<path fill="none" stroke="black" d="M789.34,-567.25C813.41,-567.25 818.12,-576.54 839.68,-587.25 852.24,-593.48 855.7,-602.6 864.53,-606.77"/>
<polygon fill="black" stroke="black" points="863.71,-610.18 874.2,-608.7 865.08,-603.31 863.71,-610.18"/>
</g>
<!-- n5&#45;&gt;x9 -->
<g id="edge21" class="edge">
<title>n5:e&#45;&gt;x9:w</title>
<path fill="none" stroke="black" d="M789.34,-280.25C812.24,-280.25 821.13,-277.82 839.68,-291.25 871.36,-314.17 852.45,-363.21 879.85,-372.93"/>
<polygon fill="black" stroke="black" points="879.15,-376.36 889.56,-374.4 880.2,-369.44 879.15,-376.36"/>
</g>
<!-- n5&#45;&gt;c33 -->
<g id="edge20" class="edge">
<title>n5:e&#45;&gt;c33:w</title>
<path fill="none" stroke="black" d="M789.34,-280.25C823.66,-280.25 834.96,-280.05 864.43,-280.01"/>
<polygon fill="black" stroke="black" points="864.17,-283.51 874.17,-280 864.17,-276.51 864.17,-283.51"/>
</g>
</g>
</svg>
