<?xml version="1.0" encoding="UTF-8" standalone="no"?>
<!DOCTYPE svg PUBLIC "-//W3C//DTD SVG 1.1//EN"
 "http://www.w3.org/Graphics/SVG/1.1/DTD/svg11.dtd">
<!-- Generated by graphviz version 14.1.2 (0)
 -->
<!-- Title: control_fsm Pages: 1 -->
<svg width="1467pt" height="455pt"
 viewBox="0.00 0.00 1467.00 455.00" xmlns="http://www.w3.org/2000/svg" xmlns:xlink="http://www.w3.org/1999/xlink">
<g id="graph0" class="graph" transform="scale(1 1) rotate(0) translate(4 450.95)">
<title>control_fsm</title>
<polygon fill="white" stroke="none" points="-4,4 -4,-450.95 1463.41,-450.95 1463.41,4 -4,4"/>
<!-- n2 -->
<g id="node1" class="node">
<title>n2</title>
<polygon fill="none" stroke="black" points="67.01,-107.75 67.01,-122.66 50.88,-133.2 28.08,-133.2 11.96,-122.66 11.96,-107.75 28.08,-97.2 50.88,-97.2 67.01,-107.75"/>
<text xml:space="preserve" text-anchor="middle" x="39.48" y="-110.53" font-family="Times,serif" font-size="14.00">clk</text>
</g>
<!-- c20 -->
<g id="node15" class="node">
<title>c20</title>
<polygon fill="none" stroke="black" points="114.96,-27.7 114.96,-128.7 296.46,-128.7 296.46,-27.7 114.96,-27.7"/>
<text xml:space="preserve" text-anchor="middle" x="128.59" y="-111.4" font-family="Times,serif" font-size="14.00">C</text>
<polyline fill="none" stroke="black" points="114.96,-103.45 142.21,-103.45"/>
<text xml:space="preserve" text-anchor="middle" x="128.59" y="-86.15" font-family="Times,serif" font-size="14.00">D</text>
<polyline fill="none" stroke="black" points="114.96,-78.2 142.21,-78.2"/>
<text xml:space="preserve" text-anchor="middle" x="128.59" y="-60.9" font-family="Times,serif" font-size="14.00">E</text>
<polyline fill="none" stroke="black" points="114.96,-52.95 142.21,-52.95"/>
<text xml:space="preserve" text-anchor="middle" x="128.59" y="-35.65" font-family="Times,serif" font-size="14.00">R</text>
<polyline fill="none" stroke="black" points="142.21,-27.7 142.21,-128.7"/>
<text xml:space="preserve" text-anchor="middle" x="205.71" y="-82.15" font-family="Times,serif" font-size="14.00">$123</text>
<text xml:space="preserve" text-anchor="middle" x="205.71" y="-64.9" font-family="Times,serif" font-size="14.00">$_DFFE_PN0P_</text>
<polyline fill="none" stroke="black" points="269.21,-27.7 269.21,-128.7"/>
<text xml:space="preserve" text-anchor="middle" x="282.84" y="-73.9" font-family="Times,serif" font-size="14.00">Q</text>
</g>
<!-- n2&#45;&gt;c20 -->
<g id="edge8" class="edge">
<title>n2:e&#45;&gt;c20:w</title>
<path fill="none" stroke="black" d="M68.26,-115.2C84.64,-115.2 91.33,-115.75 103.61,-115.98"/>
<polygon fill="black" stroke="black" points="103.42,-119.48 113.45,-116.07 103.48,-112.48 103.42,-119.48"/>
</g>
<!-- n3 -->
<g id="node2" class="node">
<title>n3</title>
<polygon fill="none" stroke="black" points="554.07,-299.2 442.96,-281.2 554.07,-263.2 665.18,-281.2 554.07,-299.2"/>
<text xml:space="preserve" text-anchor="middle" x="554.07" y="-276.53" font-family="Times,serif" font-size="14.00">current_state</text>
</g>
<!-- x0 -->
<g id="node9" class="node">
<title>x0</title>
<path fill="none" stroke="black" d="M714.28,-208.2C714.28,-208.2 764.78,-208.2 764.78,-208.2 770.78,-208.2 776.78,-214.2 776.78,-220.2 776.78,-220.2 776.78,-232.2 776.78,-232.2 776.78,-238.2 770.78,-244.2 764.78,-244.2 764.78,-244.2 714.28,-244.2 714.28,-244.2 708.28,-244.2 702.28,-238.2 702.28,-232.2 702.28,-232.2 702.28,-220.2 702.28,-220.2 702.28,-214.2 708.28,-208.2 714.28,-208.2"/>
<text xml:space="preserve" text-anchor="middle" x="739.53" y="-221.9" font-family="Times,serif" font-size="14.00">0:0 &#45; 0:0</text>
</g>
<!-- n3&#45;&gt;x0 -->
<g id="edge11" class="edge">
<title>n3:e&#45;&gt;x0:w</title>
<path fill="none" stroke="black" d="M665.18,-281.2C689.51,-281.2 678.05,-243.03 690.64,-230.51"/>
<polygon fill="black" stroke="black" points="691.69,-233.85 699.86,-227.1 689.26,-227.28 691.69,-233.85"/>
</g>
<!-- x1 -->
<g id="node11" class="node">
<title>x1</title>
<path fill="none" stroke="black" d="M714.28,-390.2C714.28,-390.2 764.78,-390.2 764.78,-390.2 770.78,-390.2 776.78,-396.2 776.78,-402.2 776.78,-402.2 776.78,-414.2 776.78,-414.2 776.78,-420.2 770.78,-426.2 764.78,-426.2 764.78,-426.2 714.28,-426.2 714.28,-426.2 708.28,-426.2 702.28,-420.2 702.28,-414.2 702.28,-414.2 702.28,-402.2 702.28,-402.2 702.28,-396.2 708.28,-390.2 714.28,-390.2"/>
<text xml:space="preserve" text-anchor="middle" x="739.53" y="-403.9" font-family="Times,serif" font-size="14.00">0:0 &#45; 0:0</text>
</g>
<!-- n3&#45;&gt;x1 -->
<g id="edge12" class="edge">
<title>n3:e&#45;&gt;x1:w</title>
<path fill="none" stroke="black" d="M665.18,-281.2C719.66,-281.2 653.77,-390.37 690.38,-406.58"/>
<polygon fill="black" stroke="black" points="689.32,-409.94 699.79,-408.31 690.58,-403.06 689.32,-409.94"/>
</g>
<!-- x3 -->
<g id="node14" class="node">
<title>x3</title>
<path fill="none" stroke="black" d="M714.28,-263.2C714.28,-263.2 764.78,-263.2 764.78,-263.2 770.78,-263.2 776.78,-269.2 776.78,-275.2 776.78,-275.2 776.78,-287.2 776.78,-287.2 776.78,-293.2 770.78,-299.2 764.78,-299.2 764.78,-299.2 714.28,-299.2 714.28,-299.2 708.28,-299.2 702.28,-293.2 702.28,-287.2 702.28,-287.2 702.28,-275.2 702.28,-275.2 702.28,-269.2 708.28,-263.2 714.28,-263.2"/>
<text xml:space="preserve" text-anchor="middle" x="739.53" y="-276.9" font-family="Times,serif" font-size="14.00">0:0 &#45; 0:0</text>
</g>
<!-- n3&#45;&gt;x3 -->
<g id="edge13" class="edge">
<title>n3:e&#45;&gt;x3:w</title>
<path fill="none" stroke="black" d="M665.18,-281.2C676.59,-281.2 681.91,-281.39 689.8,-281.5"/>
<polygon fill="black" stroke="black" points="689.74,-285 699.76,-281.57 689.79,-278 689.74,-285"/>
</g>
<!-- x8 -->
<g id="node20" class="node">
<title>x8</title>
<path fill="none" stroke="black" d="M714.28,-318.2C714.28,-318.2 764.78,-318.2 764.78,-318.2 770.78,-318.2 776.78,-324.2 776.78,-330.2 776.78,-330.2 776.78,-342.2 776.78,-342.2 776.78,-348.2 770.78,-354.2 764.78,-354.2 764.78,-354.2 714.28,-354.2 714.28,-354.2 708.28,-354.2 702.28,-348.2 702.28,-342.2 702.28,-342.2 702.28,-330.2 702.28,-330.2 702.28,-324.2 708.28,-318.2 714.28,-318.2"/>
<text xml:space="preserve" text-anchor="middle" x="739.53" y="-331.9" font-family="Times,serif" font-size="14.00">0:0 &#45; 0:0</text>
</g>
<!-- n3&#45;&gt;x8 -->
<g id="edge14" class="edge">
<title>n3:e&#45;&gt;x8:w</title>
<path fill="none" stroke="black" d="M665.18,-281.2C689.74,-281.2 677.93,-319.9 690.56,-332.6"/>
<polygon fill="black" stroke="black" points="689.26,-335.85 699.86,-336.05 691.7,-329.29 689.26,-335.85"/>
</g>
<!-- n4 -->
<g id="node3" class="node">
<title>n4</title>
<polygon fill="none" stroke="black" points="929.84,-305.75 929.84,-320.66 907.38,-331.2 875.61,-331.2 853.15,-320.66 853.15,-305.75 875.61,-295.2 907.38,-295.2 929.84,-305.75"/>
<text xml:space="preserve" text-anchor="middle" x="891.49" y="-308.53" font-family="Times,serif" font-size="14.00">done</text>
</g>
<!-- n5 -->
<g id="node4" class="node">
<title>n5</title>
<polygon fill="none" stroke="black" points="1255.17,-385.2 1165.64,-367.2 1255.17,-349.2 1344.7,-367.2 1255.17,-385.2"/>
<text xml:space="preserve" text-anchor="middle" x="1255.17" y="-362.53" font-family="Times,serif" font-size="14.00">next_state</text>
</g>
<!-- x4 -->
<g id="node16" class="node">
<title>x4</title>
<path fill="none" stroke="black" d="M1392.7,-227.2C1392.7,-227.2 1443.2,-227.2 1443.2,-227.2 1449.2,-227.2 1455.2,-233.2 1455.2,-239.2 1455.2,-239.2 1455.2,-251.2 1455.2,-251.2 1455.2,-257.2 1449.2,-263.2 1443.2,-263.2 1443.2,-263.2 1392.7,-263.2 1392.7,-263.2 1386.7,-263.2 1380.7,-257.2 1380.7,-251.2 1380.7,-251.2 1380.7,-239.2 1380.7,-239.2 1380.7,-233.2 1386.7,-227.2 1392.7,-227.2"/>
<text xml:space="preserve" text-anchor="middle" x="1417.95" y="-240.9" font-family="Times,serif" font-size="14.00">0:0 &#45; 0:0</text>
</g>
<!-- n5&#45;&gt;x4 -->
<g id="edge18" class="edge">
<title>n5:e&#45;&gt;x4:w</title>
<path fill="none" stroke="black" d="M1344.7,-367.2C1396.67,-367.2 1335.51,-263.84 1369.8,-247.69"/>
<polygon fill="black" stroke="black" points="1370.07,-251.2 1379.22,-245.87 1368.74,-244.33 1370.07,-251.2"/>
</g>
<!-- n6 -->
<g id="node5" class="node">
<title>n6</title>
<polygon fill="none" stroke="black" points="1129.64,-243.75 1129.64,-258.66 1093.17,-269.2 1041.59,-269.2 1005.12,-258.66 1005.12,-243.75 1041.59,-233.2 1093.17,-233.2 1129.64,-243.75"/>
<text xml:space="preserve" text-anchor="middle" x="1067.38" y="-246.53" font-family="Times,serif" font-size="14.00">result_en</text>
</g>
<!-- n7 -->
<g id="node6" class="node">
<title>n7</title>
<polygon fill="none" stroke="black" points="78.96,-33.75 78.96,-48.66 55.84,-59.2 23.13,-59.2 0,-48.66 0,-33.75 23.13,-23.2 55.84,-23.2 78.96,-33.75"/>
<text xml:space="preserve" text-anchor="middle" x="39.48" y="-36.53" font-family="Times,serif" font-size="14.00">rst_n</text>
</g>
<!-- n7&#45;&gt;c20 -->
<g id="edge20" class="edge">
<title>n7:e&#45;&gt;c20:w</title>
<path fill="none" stroke="black" d="M78.96,-41.2C90.34,-41.2 95.65,-40.76 103.52,-40.51"/>
<polygon fill="black" stroke="black" points="103.51,-44.01 113.45,-40.35 103.4,-37.01 103.51,-44.01"/>
</g>
<!-- n8 -->
<g id="node7" class="node">
<title>n8</title>
<polygon fill="none" stroke="black" points="777.87,-163.75 777.87,-178.66 755.41,-189.2 723.64,-189.2 701.18,-178.66 701.18,-163.75 723.64,-153.2 755.41,-153.2 777.87,-163.75"/>
<text xml:space="preserve" text-anchor="middle" x="739.53" y="-166.53" font-family="Times,serif" font-size="14.00">start</text>
</g>
<!-- c12 -->
<g id="node8" class="node">
<title>c12</title>
<polygon fill="none" stroke="black" points="835.62,-155.95 835.62,-206.45 947.37,-206.45 947.37,-155.95 835.62,-155.95"/>
<text xml:space="preserve" text-anchor="middle" x="848.87" y="-189.15" font-family="Times,serif" font-size="14.00">A</text>
<polyline fill="none" stroke="black" points="835.62,-181.2 862.12,-181.2"/>
<text xml:space="preserve" text-anchor="middle" x="848.87" y="-163.9" font-family="Times,serif" font-size="14.00">B</text>
<polyline fill="none" stroke="black" points="862.12,-155.95 862.12,-206.45"/>
<text xml:space="preserve" text-anchor="middle" x="892.24" y="-185.15" font-family="Times,serif" font-size="14.00">$128</text>
<text xml:space="preserve" text-anchor="middle" x="892.24" y="-167.9" font-family="Times,serif" font-size="14.00">$_OR_</text>
<polyline fill="none" stroke="black" points="922.37,-155.95 922.37,-206.45"/>
<text xml:space="preserve" text-anchor="middle" x="934.87" y="-176.65" font-family="Times,serif" font-size="14.00">Y</text>
</g>
<!-- n8&#45;&gt;c12 -->
<g id="edge21" class="edge">
<title>n8:e&#45;&gt;c12:w</title>
<path fill="none" stroke="black" d="M777.87,-171.2C798.98,-171.2 806.81,-169.37 823.56,-168.77"/>
<polygon fill="black" stroke="black" points="823.17,-172.28 833.11,-168.61 823.05,-165.28 823.17,-172.28"/>
</g>
<!-- c14 -->
<g id="node13" class="node">
<title>c14</title>
<polygon fill="none" stroke="black" points="813.87,-225.95 813.87,-276.45 969.12,-276.45 969.12,-225.95 813.87,-225.95"/>
<text xml:space="preserve" text-anchor="middle" x="827.12" y="-259.15" font-family="Times,serif" font-size="14.00">A</text>
<polyline fill="none" stroke="black" points="813.87,-251.2 840.37,-251.2"/>
<text xml:space="preserve" text-anchor="middle" x="827.12" y="-233.9" font-family="Times,serif" font-size="14.00">B</text>
<polyline fill="none" stroke="black" points="840.37,-225.95 840.37,-276.45"/>
<text xml:space="preserve" text-anchor="middle" x="892.24" y="-255.15" font-family="Times,serif" font-size="14.00">$130</text>
<text xml:space="preserve" text-anchor="middle" x="892.24" y="-237.9" font-family="Times,serif" font-size="14.00">$_ANDNOT_</text>
<polyline fill="none" stroke="black" points="944.12,-225.95 944.12,-276.45"/>
<text xml:space="preserve" text-anchor="middle" x="956.62" y="-246.65" font-family="Times,serif" font-size="14.00">Y</text>
</g>
<!-- n8&#45;&gt;c14 -->
<g id="edge22" class="edge">
<title>n8:e&#45;&gt;c14:w</title>
<path fill="none" stroke="black" d="M777.87,-171.2C817.38,-171.2 779.67,-245.32 802.89,-260.96"/>
<polygon fill="black" stroke="black" points="801.84,-264.3 812.4,-263.45 803.62,-257.53 801.84,-264.3"/>
</g>
<!-- c12&#45;&gt;c20 -->
<g id="edge7" class="edge">
<title>c12:e&#45;&gt;c20:w</title>
<path fill="none" stroke="black" d="M948.37,-181.33C959.77,-181.33 955.58,-199.05 947.37,-206.95 938.42,-215.56 846.99,-211.94 835.62,-206.95 800.91,-191.73 810.45,-163.57 777.87,-144.2 698.78,-97.19 425.83,-41.09 296.46,-27.2 216.26,-18.59 172.74,29.09 114.96,-27.2 106.47,-35.48 101.05,-50.8 104.28,-59.37"/>
<polygon fill="black" stroke="black" points="102.38,-62.31 112.69,-64.76 106.16,-56.42 102.38,-62.31"/>
</g>
<!-- x0&#45;&gt;c12 -->
<g id="edge1" class="edge">
<title>x0:e&#45;&gt;c12:w</title>
<path fill="none" stroke="black" d="M790.38,-223.66C803.73,-217.64 808.57,-202.55 821.84,-196.45"/>
<polygon fill="none" stroke="black" points="790.42,-223.66 785.33,-228.76 778.66,-226.03 783.75,-220.92 790.42,-223.66"/>
<polygon fill="none" stroke="black" points="821.98,-196.42 827.06,-191.3 833.74,-194.01 828.66,-199.13 821.98,-196.42"/>
</g>
<!-- c13 -->
<g id="node10" class="node">
<title>c13</title>
<polygon fill="none" stroke="black" points="830.74,-403.95 830.74,-446.45 952.24,-446.45 952.24,-403.95 830.74,-403.95"/>
<text xml:space="preserve" text-anchor="middle" x="843.62" y="-420.65" font-family="Times,serif" font-size="14.00">A</text>
<polyline fill="none" stroke="black" points="856.49,-403.95 856.49,-446.45"/>
<text xml:space="preserve" text-anchor="middle" x="891.87" y="-429.15" font-family="Times,serif" font-size="14.00">$129</text>
<text xml:space="preserve" text-anchor="middle" x="891.87" y="-411.9" font-family="Times,serif" font-size="14.00">$_NOT_</text>
<polyline fill="none" stroke="black" points="927.24,-403.95 927.24,-446.45"/>
<text xml:space="preserve" text-anchor="middle" x="939.74" y="-420.65" font-family="Times,serif" font-size="14.00">Y</text>
</g>
<!-- x2 -->
<g id="node12" class="node">
<title>x2</title>
<path fill="none" stroke="black" d="M1042.13,-405.2C1042.13,-405.2 1092.63,-405.2 1092.63,-405.2 1098.63,-405.2 1104.63,-411.2 1104.63,-417.2 1104.63,-417.2 1104.63,-429.2 1104.63,-429.2 1104.63,-435.2 1098.63,-441.2 1092.63,-441.2 1092.63,-441.2 1042.13,-441.2 1042.13,-441.2 1036.13,-441.2 1030.13,-435.2 1030.13,-429.2 1030.13,-429.2 1030.13,-417.2 1030.13,-417.2 1030.13,-411.2 1036.13,-405.2 1042.13,-405.2"/>
<text xml:space="preserve" text-anchor="middle" x="1067.38" y="-418.9" font-family="Times,serif" font-size="14.00">0:0 &#45; 0:0</text>
</g>
<!-- c13&#45;&gt;x2 -->
<g id="edge3" class="edge">
<title>c13:e&#45;&gt;x2:w</title>
<path fill="none" stroke="black" d="M966.12,-425.22C985.96,-424.85 996.4,-423.69 1016.23,-423.32"/>
<polygon fill="none" stroke="black" points="966.15,-425.21 960.18,-429.27 954.15,-425.32 960.11,-421.27 966.15,-425.21"/>
<polygon fill="none" stroke="black" points="1016.23,-423.32 1022.19,-419.27 1028.23,-423.21 1022.26,-427.27 1016.23,-423.32"/>
</g>
<!-- x1&#45;&gt;c13 -->
<g id="edge2" class="edge">
<title>x1:e&#45;&gt;c13:w</title>
<path fill="none" stroke="black" d="M790.35,-410.04C800.71,-413.32 806.72,-420.15 817.05,-423.46"/>
<polygon fill="none" stroke="black" points="790.54,-410.07 784.03,-413.16 778.67,-408.33 785.18,-405.24 790.54,-410.07"/>
<polygon fill="none" stroke="black" points="816.98,-423.45 823.5,-420.37 828.85,-425.2 822.33,-428.28 816.98,-423.45"/>
</g>
<!-- x2&#45;&gt;n5 -->
<g id="edge17" class="edge">
<title>x2:e&#45;&gt;n5:w</title>
<path fill="none" stroke="black" d="M1105.63,-423.58C1137.79,-423.58 1131.51,-380.03 1154.36,-369.48"/>
<polygon fill="black" stroke="black" points="1155.05,-372.92 1164.16,-367.5 1153.66,-366.05 1155.05,-372.92"/>
</g>
<!-- c14&#45;&gt;n6 -->
<g id="edge19" class="edge">
<title>c14:e&#45;&gt;n6:w</title>
<path fill="none" stroke="black" d="M969.12,-251.33C980.49,-251.33 985.8,-251.27 993.67,-251.23"/>
<polygon fill="black" stroke="black" points="993.61,-254.73 1003.61,-251.21 993.6,-247.73 993.61,-254.73"/>
</g>
<!-- x3&#45;&gt;c14 -->
<g id="edge4" class="edge">
<title>x3:e&#45;&gt;c14:w</title>
<path fill="none" stroke="black" d="M789.36,-275.98C795.93,-267.8 795.7,-252.06 802.25,-243.85"/>
<polygon fill="none" stroke="black" points="789.54,-275.9 785.71,-282.01 778.6,-280.83 782.42,-274.72 789.54,-275.9"/>
<polygon fill="none" stroke="black" points="802.12,-243.91 805.93,-237.79 813.05,-238.95 809.24,-245.07 802.12,-243.91"/>
</g>
<!-- x5 -->
<g id="node17" class="node">
<title>x5</title>
<path fill="none" stroke="black" d="M344.46,-60.2C344.46,-60.2 394.96,-60.2 394.96,-60.2 400.96,-60.2 406.96,-66.2 406.96,-72.2 406.96,-72.2 406.96,-84.2 406.96,-84.2 406.96,-90.2 400.96,-96.2 394.96,-96.2 394.96,-96.2 344.46,-96.2 344.46,-96.2 338.46,-96.2 332.46,-90.2 332.46,-84.2 332.46,-84.2 332.46,-72.2 332.46,-72.2 332.46,-66.2 338.46,-60.2 344.46,-60.2"/>
<text xml:space="preserve" text-anchor="middle" x="369.71" y="-73.9" font-family="Times,serif" font-size="14.00">0:0 &#45; 0:0</text>
</g>
<!-- c20&#45;&gt;x5 -->
<g id="edge6" class="edge">
<title>c20:e&#45;&gt;x5:w</title>
<path fill="none" stroke="black" d="M309.19,-78.48C312.78,-78.43 315.92,-78.36 319.49,-78.3"/>
<polygon fill="none" stroke="black" points="309.37,-78.48 303.4,-82.53 297.37,-78.57 303.34,-74.53 309.37,-78.48"/>
<polygon fill="none" stroke="black" points="319.56,-78.3 325.53,-74.26 331.56,-78.21 325.59,-82.26 319.56,-78.3"/>
</g>
<!-- x4&#45;&gt;c20 -->
<g id="edge5" class="edge">
<title>x4:e&#45;&gt;c20:w</title>
<path fill="none" stroke="black" d="M1459.41,-257.67C1458.35,-259.95 1456.89,-262.11 1455.2,-263.7 1431.17,-286.48 1413.1,-270.56 1380.7,-263.7 1232.15,-232.24 1220.23,-125.2 1068.38,-125.2 553.07,-125.2 553.07,-125.2 553.07,-125.2 439.01,-125.2 410.52,-128.32 296.46,-129.2 215.8,-129.83 172.74,-185.5 114.96,-129.2 107.04,-121.48 101.8,-107.64 103.74,-98.86"/>
<polygon fill="none" stroke="black" points="1459.41,-257.7 1454.05,-252.88 1456.43,-246.08 1461.8,-250.89 1459.41,-257.7"/>
<polygon fill="none" stroke="black" points="103.82,-98.8 106.07,-91.95 113.26,-91.39 111.01,-98.24 103.82,-98.8"/>
</g>
<!-- x5&#45;&gt;n3 -->
<g id="edge9" class="edge">
<title>x5:e&#45;&gt;n3:w</title>
<path fill="none" stroke="black" d="M406.96,-78.58C494.14,-78.58 364.75,-262.65 431.62,-279.91"/>
<polygon fill="black" stroke="black" points="431.13,-283.38 441.46,-281.03 431.92,-276.42 431.13,-283.38"/>
</g>
<!-- v6 -->
<g id="node18" class="node">
<title>v6</title>
<ellipse fill="none" stroke="black" cx="205.71" cy="-281.2" rx="27" ry="18"/>
<text xml:space="preserve" text-anchor="middle" x="205.71" y="-276.53" font-family="Times,serif" font-size="14.00">1&#39;0</text>
</g>
<!-- x7 -->
<g id="node19" class="node">
<title>x7</title>
<path fill="none" stroke="black" d="M344.46,-263.2C344.46,-263.2 394.96,-263.2 394.96,-263.2 400.96,-263.2 406.96,-269.2 406.96,-275.2 406.96,-275.2 406.96,-287.2 406.96,-287.2 406.96,-293.2 400.96,-299.2 394.96,-299.2 394.96,-299.2 344.46,-299.2 344.46,-299.2 338.46,-299.2 332.46,-293.2 332.46,-287.2 332.46,-287.2 332.46,-275.2 332.46,-275.2 332.46,-269.2 338.46,-263.2 344.46,-263.2"/>
<text xml:space="preserve" text-anchor="middle" x="369.71" y="-276.9" font-family="Times,serif" font-size="14.00">0:0 &#45; 1:1</text>
</g>
<!-- v6&#45;&gt;x7 -->
<g id="edge23" class="edge">
<title>v6:e&#45;&gt;x7:w</title>
<path fill="none" stroke="black" d="M233.97,-281.2C273.64,-281.2 286.35,-281.2 320.96,-281.2"/>
<polygon fill="black" stroke="black" points="320.95,-284.7 330.95,-281.2 320.95,-277.7 320.95,-284.7"/>
</g>
<!-- x7&#45;&gt;n3 -->
<g id="edge10" class="edge">
<title>x7:e&#45;&gt;n3:w</title>
<path fill="none" stroke="black" d="M406.96,-281.58C418.34,-281.58 423.65,-281.39 431.52,-281.28"/>
<polygon fill="black" stroke="black" points="431.47,-284.78 441.45,-281.21 431.43,-277.78 431.47,-284.78"/>
</g>
<!-- x8&#45;&gt;n4 -->
<g id="edge15" class="edge">
<title>x8:e&#45;&gt;n4:w</title>
<path fill="none" stroke="black" d="M777.78,-336.2C808.05,-336.2 815.67,-318.44 840.46,-314.13"/>
<polygon fill="black" stroke="black" points="840.6,-317.64 850.28,-313.33 840.03,-310.66 840.6,-317.64"/>
</g>
<!-- v9 -->
<g id="node21" class="node">
<title>v9</title>
<ellipse fill="none" stroke="black" cx="891.49" cy="-367.2" rx="27" ry="18"/>
<text xml:space="preserve" text-anchor="middle" x="891.49" y="-362.53" font-family="Times,serif" font-size="14.00">1&#39;0</text>
</g>
<!-- x10 -->
<g id="node22" class="node">
<title>x10</title>
<path fill="none" stroke="black" d="M1042.13,-349.2C1042.13,-349.2 1092.63,-349.2 1092.63,-349.2 1098.63,-349.2 1104.63,-355.2 1104.63,-361.2 1104.63,-361.2 1104.63,-373.2 1104.63,-373.2 1104.63,-379.2 1098.63,-385.2 1092.63,-385.2 1092.63,-385.2 1042.13,-385.2 1042.13,-385.2 1036.13,-385.2 1030.13,-379.2 1030.13,-373.2 1030.13,-373.2 1030.13,-361.2 1030.13,-361.2 1030.13,-355.2 1036.13,-349.2 1042.13,-349.2"/>
<text xml:space="preserve" text-anchor="middle" x="1067.38" y="-362.9" font-family="Times,serif" font-size="14.00">0:0 &#45; 1:1</text>
</g>
<!-- v9&#45;&gt;x10 -->
<g id="edge24" class="edge">
<title>v9:e&#45;&gt;x10:w</title>
<path fill="none" stroke="black" d="M919.75,-367.2C964.37,-367.2 978.28,-367.2 1017.86,-367.2"/>
<polygon fill="black" stroke="black" points="1017.62,-370.7 1027.62,-367.2 1017.62,-363.7 1017.62,-370.7"/>
</g>
<!-- x10&#45;&gt;n5 -->
<g id="edge16" class="edge">
<title>x10:e&#45;&gt;n5:w</title>
<path fill="none" stroke="black" d="M1105.63,-367.58C1128.13,-367.58 1136.4,-367.31 1154.45,-367.23"/>
<polygon fill="black" stroke="black" points="1154.13,-370.73 1164.13,-367.21 1154.12,-363.73 1154.13,-370.73"/>
</g>
</g>
</svg>
