<?xml version="1.0" encoding="UTF-8" standalone="no"?>
<!DOCTYPE svg PUBLIC "-//W3C//DTD SVG 1.1//EN"
 "http://www.w3.org/Graphics/SVG/1.1/DTD/svg11.dtd">
<!-- Generated by graphviz version 14.1.2 (0)
 -->
<!-- Title: control_fsm_v2 Pages: 1 -->
<svg width="1880pt" height="637pt"
 viewBox="0.00 0.00 1880.00 637.00" xmlns="http://www.w3.org/2000/svg" xmlns:xlink="http://www.w3.org/1999/xlink">
<g id="graph0" class="graph" transform="scale(1 1) rotate(0) translate(4 633.43)">
<title>control_fsm_v2</title>
<polygon fill="white" stroke="none" points="-4,4 -4,-633.43 1875.92,-633.43 1875.92,4 -4,4"/>
<text xml:space="preserve" text-anchor="middle" x="935.96" y="-7.95" font-family="Times,serif" font-size="14.00">control_fsm_v2</text>
<!-- n3 -->
<g id="node1" class="node">
<title>n3</title>
<polygon fill="none" stroke="black" points="67.01,-476.79 67.01,-491.71 50.88,-502.25 28.08,-502.25 11.96,-491.71 11.96,-476.79 28.08,-466.25 50.88,-466.25 67.01,-476.79"/>
<text xml:space="preserve" text-anchor="middle" x="39.48" y="-479.57" font-family="Times,serif" font-size="14.00">clk</text>
</g>
<!-- c25 -->
<g id="node24" class="node">
<title>c25</title>
<polygon fill="none" stroke="black" points="114.96,-262.75 114.96,-363.75 296.46,-363.75 296.46,-262.75 114.96,-262.75"/>
<text xml:space="preserve" text-anchor="middle" x="128.59" y="-346.45" font-family="Times,serif" font-size="14.00">C</text>
<polyline fill="none" stroke="black" points="114.96,-338.5 142.21,-338.5"/>
<text xml:space="preserve" text-anchor="middle" x="128.59" y="-321.2" font-family="Times,serif" font-size="14.00">D</text>
<polyline fill="none" stroke="black" points="114.96,-313.25 142.21,-313.25"/>
<text xml:space="preserve" text-anchor="middle" x="128.59" y="-295.95" font-family="Times,serif" font-size="14.00">E</text>
<polyline fill="none" stroke="black" points="114.96,-288 142.21,-288"/>
<text xml:space="preserve" text-anchor="middle" x="128.59" y="-270.7" font-family="Times,serif" font-size="14.00">R</text>
<polyline fill="none" stroke="black" points="142.21,-262.75 142.21,-363.75"/>
<text xml:space="preserve" text-anchor="middle" x="205.71" y="-317.2" font-family="Times,serif" font-size="14.00">$1190</text>
<text xml:space="preserve" text-anchor="middle" x="205.71" y="-299.95" font-family="Times,serif" font-size="14.00">$_DFFE_PN0P_</text>
<polyline fill="none" stroke="black" points="269.21,-262.75 269.21,-363.75"/>
<text xml:space="preserve" text-anchor="middle" x="282.84" y="-308.95" font-family="Times,serif" font-size="14.00">Q</text>
</g>
<!-- n3&#45;&gt;c25 -->
<g id="edge21" class="edge">
<title>n3:e&#45;&gt;c25:w</title>
<path fill="none" stroke="black" d="M68.26,-484.25C126.56,-484.25 62.63,-369.19 103.74,-353.01"/>
<polygon fill="black" stroke="black" points="104.19,-356.48 113.47,-351.38 103.03,-349.58 104.19,-356.48"/>
</g>
<!-- c26 -->
<g id="node27" class="node">
<title>c26</title>
<polygon fill="none" stroke="black" points="1569.77,-104.75 1569.77,-205.75 1751.27,-205.75 1751.27,-104.75 1569.77,-104.75"/>
<text xml:space="preserve" text-anchor="middle" x="1583.39" y="-188.45" font-family="Times,serif" font-size="14.00">C</text>
<polyline fill="none" stroke="black" points="1569.77,-180.5 1597.02,-180.5"/>
<text xml:space="preserve" text-anchor="middle" x="1583.39" y="-163.2" font-family="Times,serif" font-size="14.00">D</text>
<polyline fill="none" stroke="black" points="1569.77,-155.25 1597.02,-155.25"/>
<text xml:space="preserve" text-anchor="middle" x="1583.39" y="-137.95" font-family="Times,serif" font-size="14.00">E</text>
<polyline fill="none" stroke="black" points="1569.77,-130 1597.02,-130"/>
<text xml:space="preserve" text-anchor="middle" x="1583.39" y="-112.7" font-family="Times,serif" font-size="14.00">R</text>
<polyline fill="none" stroke="black" points="1597.02,-104.75 1597.02,-205.75"/>
<text xml:space="preserve" text-anchor="middle" x="1660.52" y="-159.2" font-family="Times,serif" font-size="14.00">$1191</text>
<text xml:space="preserve" text-anchor="middle" x="1660.52" y="-141.95" font-family="Times,serif" font-size="14.00">$_DFFE_PN0P_</text>
<polyline fill="none" stroke="black" points="1724.02,-104.75 1724.02,-205.75"/>
<text xml:space="preserve" text-anchor="middle" x="1737.64" y="-150.95" font-family="Times,serif" font-size="14.00">Q</text>
</g>
<!-- n3&#45;&gt;c26 -->
<g id="edge22" class="edge">
<title>n3:e&#45;&gt;c26:w</title>
<path fill="none" stroke="black" d="M68.26,-484.25C214.48,-484.25 222.5,-618.25 368.71,-618.25 368.71,-618.25 368.71,-618.25 1066.19,-618.25 1278.52,-618.25 1391.08,-677.49 1533.77,-520.25 1580.13,-469.16 1505.97,-223.34 1558.82,-195.66"/>
<polygon fill="black" stroke="black" points="1559.34,-199.13 1568.29,-193.47 1557.76,-192.32 1559.34,-199.13"/>
</g>
<!-- n4 -->
<g id="node2" class="node">
<title>n4</title>
<polygon fill="none" stroke="black" points="554.07,-331.25 442.96,-313.25 554.07,-295.25 665.18,-313.25 554.07,-331.25"/>
<text xml:space="preserve" text-anchor="middle" x="554.07" y="-308.57" font-family="Times,serif" font-size="14.00">current_state</text>
</g>
<!-- x0 -->
<g id="node10" class="node">
<title>x0</title>
<path fill="none" stroke="black" d="M713.18,-185.25C713.18,-185.25 763.68,-185.25 763.68,-185.25 769.68,-185.25 775.68,-191.25 775.68,-197.25 775.68,-197.25 775.68,-209.25 775.68,-209.25 775.68,-215.25 769.68,-221.25 763.68,-221.25 763.68,-221.25 713.18,-221.25 713.18,-221.25 707.18,-221.25 701.18,-215.25 701.18,-209.25 701.18,-209.25 701.18,-197.25 701.18,-197.25 701.18,-191.25 707.18,-185.25 713.18,-185.25"/>
<text xml:space="preserve" text-anchor="middle" x="738.43" y="-198.95" font-family="Times,serif" font-size="14.00">1:1 &#45; 0:0</text>
</g>
<!-- n4&#45;&gt;x0 -->
<g id="edge25" class="edge">
<title>n4:e&#45;&gt;x0:w</title>
<path fill="none" stroke="black" d="M665.18,-313.25C711.86,-313.25 660.91,-222.44 690.04,-206.12"/>
<polygon fill="black" stroke="black" points="690.71,-209.56 699.71,-203.96 689.18,-202.73 690.71,-209.56"/>
</g>
<!-- x1 -->
<g id="node11" class="node">
<title>x1</title>
<path fill="none" stroke="black" d="M713.18,-130.25C713.18,-130.25 763.68,-130.25 763.68,-130.25 769.68,-130.25 775.68,-136.25 775.68,-142.25 775.68,-142.25 775.68,-154.25 775.68,-154.25 775.68,-160.25 769.68,-166.25 763.68,-166.25 763.68,-166.25 713.18,-166.25 713.18,-166.25 707.18,-166.25 701.18,-160.25 701.18,-154.25 701.18,-154.25 701.18,-142.25 701.18,-142.25 701.18,-136.25 707.18,-130.25 713.18,-130.25"/>
<text xml:space="preserve" text-anchor="middle" x="738.43" y="-143.95" font-family="Times,serif" font-size="14.00">0:0 &#45; 0:0</text>
</g>
<!-- n4&#45;&gt;x1 -->
<g id="edge26" class="edge">
<title>n4:e&#45;&gt;x1:w</title>
<path fill="none" stroke="black" d="M665.18,-313.25C735.69,-313.25 638.97,-167.35 689.88,-150.25"/>
<polygon fill="black" stroke="black" points="690.29,-153.73 699.68,-148.84 689.29,-146.8 690.29,-153.73"/>
</g>
<!-- x2 -->
<g id="node14" class="node">
<title>x2</title>
<path fill="none" stroke="black" d="M713.18,-295.25C713.18,-295.25 763.68,-295.25 763.68,-295.25 769.68,-295.25 775.68,-301.25 775.68,-307.25 775.68,-307.25 775.68,-319.25 775.68,-319.25 775.68,-325.25 769.68,-331.25 763.68,-331.25 763.68,-331.25 713.18,-331.25 713.18,-331.25 707.18,-331.25 701.18,-325.25 701.18,-319.25 701.18,-319.25 701.18,-307.25 701.18,-307.25 701.18,-301.25 707.18,-295.25 713.18,-295.25"/>
<text xml:space="preserve" text-anchor="middle" x="738.43" y="-308.95" font-family="Times,serif" font-size="14.00">0:0 &#45; 0:0</text>
</g>
<!-- n4&#45;&gt;x2 -->
<g id="edge27" class="edge">
<title>n4:e&#45;&gt;x2:w</title>
<path fill="none" stroke="black" d="M665.18,-313.25C676.56,-313.25 681.87,-313.44 689.74,-313.55"/>
<polygon fill="black" stroke="black" points="689.65,-317.05 699.67,-313.61 689.69,-310.05 689.65,-317.05"/>
</g>
<!-- x3 -->
<g id="node15" class="node">
<title>x3</title>
<path fill="none" stroke="black" d="M713.18,-240.25C713.18,-240.25 763.68,-240.25 763.68,-240.25 769.68,-240.25 775.68,-246.25 775.68,-252.25 775.68,-252.25 775.68,-264.25 775.68,-264.25 775.68,-270.25 769.68,-276.25 763.68,-276.25 763.68,-276.25 713.18,-276.25 713.18,-276.25 707.18,-276.25 701.18,-270.25 701.18,-264.25 701.18,-264.25 701.18,-252.25 701.18,-252.25 701.18,-246.25 707.18,-240.25 713.18,-240.25"/>
<text xml:space="preserve" text-anchor="middle" x="738.43" y="-253.95" font-family="Times,serif" font-size="14.00">1:1 &#45; 0:0</text>
</g>
<!-- n4&#45;&gt;x3 -->
<g id="edge28" class="edge">
<title>n4:e&#45;&gt;x3:w</title>
<path fill="none" stroke="black" d="M665.18,-313.25C689.49,-313.25 678,-275.08 690.56,-262.55"/>
<polygon fill="black" stroke="black" points="691.6,-265.9 699.76,-259.15 689.17,-259.33 691.6,-265.9"/>
</g>
<!-- x4 -->
<g id="node17" class="node">
<title>x4</title>
<path fill="none" stroke="black" d="M713.18,-405.25C713.18,-405.25 763.68,-405.25 763.68,-405.25 769.68,-405.25 775.68,-411.25 775.68,-417.25 775.68,-417.25 775.68,-429.25 775.68,-429.25 775.68,-435.25 769.68,-441.25 763.68,-441.25 763.68,-441.25 713.18,-441.25 713.18,-441.25 707.18,-441.25 701.18,-435.25 701.18,-429.25 701.18,-429.25 701.18,-417.25 701.18,-417.25 701.18,-411.25 707.18,-405.25 713.18,-405.25"/>
<text xml:space="preserve" text-anchor="middle" x="738.43" y="-418.95" font-family="Times,serif" font-size="14.00">1:1 &#45; 0:0</text>
</g>
<!-- n4&#45;&gt;x4 -->
<g id="edge29" class="edge">
<title>n4:e&#45;&gt;x4:w</title>
<path fill="none" stroke="black" d="M665.18,-313.25C712.15,-313.25 660.7,-404.68 689.98,-421.11"/>
<polygon fill="black" stroke="black" points="689.18,-424.52 699.71,-423.29 690.71,-417.69 689.18,-424.52"/>
</g>
<!-- x5 -->
<g id="node18" class="node">
<title>x5</title>
<path fill="none" stroke="black" d="M713.18,-350.25C713.18,-350.25 763.68,-350.25 763.68,-350.25 769.68,-350.25 775.68,-356.25 775.68,-362.25 775.68,-362.25 775.68,-374.25 775.68,-374.25 775.68,-380.25 769.68,-386.25 763.68,-386.25 763.68,-386.25 713.18,-386.25 713.18,-386.25 707.18,-386.25 701.18,-380.25 701.18,-374.25 701.18,-374.25 701.18,-362.25 701.18,-362.25 701.18,-356.25 707.18,-350.25 713.18,-350.25"/>
<text xml:space="preserve" text-anchor="middle" x="738.43" y="-363.95" font-family="Times,serif" font-size="14.00">0:0 &#45; 0:0</text>
</g>
<!-- n4&#45;&gt;x5 -->
<g id="edge30" class="edge">
<title>n4:e&#45;&gt;x5:w</title>
<path fill="none" stroke="black" d="M665.18,-313.25C689.72,-313.25 677.88,-351.95 690.48,-364.64"/>
<polygon fill="black" stroke="black" points="689.17,-367.89 699.76,-368.1 691.61,-361.33 689.17,-367.89"/>
</g>
<!-- x6 -->
<g id="node20" class="node">
<title>x6</title>
<path fill="none" stroke="black" d="M713.18,-515.25C713.18,-515.25 763.68,-515.25 763.68,-515.25 769.68,-515.25 775.68,-521.25 775.68,-527.25 775.68,-527.25 775.68,-539.25 775.68,-539.25 775.68,-545.25 769.68,-551.25 763.68,-551.25 763.68,-551.25 713.18,-551.25 713.18,-551.25 707.18,-551.25 701.18,-545.25 701.18,-539.25 701.18,-539.25 701.18,-527.25 701.18,-527.25 701.18,-521.25 707.18,-515.25 713.18,-515.25"/>
<text xml:space="preserve" text-anchor="middle" x="738.43" y="-528.95" font-family="Times,serif" font-size="14.00">1:1 &#45; 0:0</text>
</g>
<!-- n4&#45;&gt;x6 -->
<g id="edge31" class="edge">
<title>n4:e&#45;&gt;x6:w</title>
<path fill="none" stroke="black" d="M665.18,-313.25C760.16,-313.25 615.42,-515.09 689.8,-532.44"/>
<polygon fill="black" stroke="black" points="689.37,-535.91 699.68,-533.47 690.09,-528.95 689.37,-535.91"/>
</g>
<!-- x7 -->
<g id="node21" class="node">
<title>x7</title>
<path fill="none" stroke="black" d="M713.18,-460.25C713.18,-460.25 763.68,-460.25 763.68,-460.25 769.68,-460.25 775.68,-466.25 775.68,-472.25 775.68,-472.25 775.68,-484.25 775.68,-484.25 775.68,-490.25 769.68,-496.25 763.68,-496.25 763.68,-496.25 713.18,-496.25 713.18,-496.25 707.18,-496.25 701.18,-490.25 701.18,-484.25 701.18,-484.25 701.18,-472.25 701.18,-472.25 701.18,-466.25 707.18,-460.25 713.18,-460.25"/>
<text xml:space="preserve" text-anchor="middle" x="738.43" y="-473.95" font-family="Times,serif" font-size="14.00">0:0 &#45; 0:0</text>
</g>
<!-- n4&#45;&gt;x7 -->
<g id="edge32" class="edge">
<title>n4:e&#45;&gt;x7:w</title>
<path fill="none" stroke="black" d="M665.18,-313.25C736,-313.25 638.72,-459.81 689.84,-476.99"/>
<polygon fill="black" stroke="black" points="689.29,-480.45 699.68,-478.41 690.29,-473.52 689.29,-480.45"/>
</g>
<!-- n5 -->
<g id="node3" class="node">
<title>n5</title>
<polygon fill="none" stroke="black" points="1103.54,-388.79 1103.54,-403.71 1081.08,-414.25 1049.31,-414.25 1026.85,-403.71 1026.85,-388.79 1049.31,-378.25 1081.08,-378.25 1103.54,-388.79"/>
<text xml:space="preserve" text-anchor="middle" x="1065.19" y="-391.57" font-family="Times,serif" font-size="14.00">done</text>
</g>
<!-- n6 -->
<g id="node4" class="node">
<title>n6</title>
<polygon fill="none" stroke="black" points="1444.24,-511.25 1354.7,-493.25 1444.24,-475.25 1533.77,-493.25 1444.24,-511.25"/>
<text xml:space="preserve" text-anchor="middle" x="1444.24" y="-488.57" font-family="Times,serif" font-size="14.00">next_state</text>
</g>
<!-- x9 -->
<g id="node25" class="node">
<title>x9</title>
<path fill="none" stroke="black" d="M1635.27,-520.25C1635.27,-520.25 1685.77,-520.25 1685.77,-520.25 1691.77,-520.25 1697.77,-526.25 1697.77,-532.25 1697.77,-532.25 1697.77,-544.25 1697.77,-544.25 1697.77,-550.25 1691.77,-556.25 1685.77,-556.25 1685.77,-556.25 1635.27,-556.25 1635.27,-556.25 1629.27,-556.25 1623.27,-550.25 1623.27,-544.25 1623.27,-544.25 1623.27,-532.25 1623.27,-532.25 1623.27,-526.25 1629.27,-520.25 1635.27,-520.25"/>
<text xml:space="preserve" text-anchor="middle" x="1660.52" y="-533.95" font-family="Times,serif" font-size="14.00">0:0 &#45; 0:0</text>
</g>
<!-- n6&#45;&gt;x9 -->
<g id="edge36" class="edge">
<title>n6:e&#45;&gt;x9:w</title>
<path fill="none" stroke="black" d="M1533.77,-493.25C1573.83,-493.25 1577.66,-530.52 1610.93,-537.5"/>
<polygon fill="black" stroke="black" points="1610.47,-540.97 1620.76,-538.48 1611.15,-534.01 1610.47,-540.97"/>
</g>
<!-- n7 -->
<g id="node5" class="node">
<title>n7</title>
<polygon fill="none" stroke="black" points="1516.75,-217.79 1516.75,-232.71 1474.27,-243.25 1414.2,-243.25 1371.72,-232.71 1371.72,-217.79 1414.2,-207.25 1474.27,-207.25 1516.75,-217.79"/>
<text xml:space="preserve" text-anchor="middle" x="1444.24" y="-220.57" font-family="Times,serif" font-size="14.00">product_en</text>
</g>
<!-- n8 -->
<g id="node6" class="node">
<title>n8</title>
<polygon fill="none" stroke="black" points="1127.45,-282.79 1127.45,-297.71 1090.98,-308.25 1039.4,-308.25 1002.93,-297.71 1002.93,-282.79 1039.4,-272.25 1090.98,-272.25 1127.45,-282.79"/>
<text xml:space="preserve" text-anchor="middle" x="1065.19" y="-285.57" font-family="Times,serif" font-size="14.00">result_en</text>
</g>
<!-- n8&#45;&gt;c26 -->
<g id="edge39" class="edge">
<title>n8:e&#45;&gt;c26:w</title>
<path fill="none" stroke="black" d="M1127.45,-290.25C1308.83,-290.25 1387.25,-359.16 1533.77,-252.25 1562.97,-230.94 1536.63,-181.08 1558.72,-170.06"/>
<polygon fill="black" stroke="black" points="1559.15,-173.54 1568.28,-168.17 1557.79,-166.67 1559.15,-173.54"/>
</g>
<!-- x12 -->
<g id="node29" class="node">
<title>x12</title>
<path fill="none" stroke="black" d="M1215.83,-371.25C1215.83,-371.25 1266.33,-371.25 1266.33,-371.25 1272.33,-371.25 1278.33,-377.25 1278.33,-383.25 1278.33,-383.25 1278.33,-395.25 1278.33,-395.25 1278.33,-401.25 1272.33,-407.25 1266.33,-407.25 1266.33,-407.25 1215.83,-407.25 1215.83,-407.25 1209.83,-407.25 1203.83,-401.25 1203.83,-395.25 1203.83,-395.25 1203.83,-383.25 1203.83,-383.25 1203.83,-377.25 1209.83,-371.25 1215.83,-371.25"/>
<text xml:space="preserve" text-anchor="middle" x="1241.08" y="-384.95" font-family="Times,serif" font-size="14.00">0:0 &#45; 1:1</text>
</g>
<!-- n8&#45;&gt;x12 -->
<g id="edge40" class="edge">
<title>n8:e&#45;&gt;x12:w</title>
<path fill="none" stroke="black" d="M1127.45,-290.25C1178.54,-290.25 1152.37,-374.74 1191.69,-387.61"/>
<polygon fill="black" stroke="black" points="1190.93,-391.04 1201.33,-389.03 1191.95,-384.11 1190.93,-391.04"/>
</g>
<!-- n9 -->
<g id="node7" class="node">
<title>n9</title>
<polygon fill="none" stroke="black" points="78.96,-143.79 78.96,-158.71 55.84,-169.25 23.13,-169.25 0,-158.71 0,-143.79 23.13,-133.25 55.84,-133.25 78.96,-143.79"/>
<text xml:space="preserve" text-anchor="middle" x="39.48" y="-146.57" font-family="Times,serif" font-size="14.00">rst_n</text>
</g>
<!-- n9&#45;&gt;c25 -->
<g id="edge41" class="edge">
<title>n9:e&#45;&gt;c25:w</title>
<path fill="none" stroke="black" d="M78.96,-151.25C131.92,-151.25 69.02,-256.74 103.87,-273.22"/>
<polygon fill="black" stroke="black" points="103,-276.62 113.48,-275.09 104.33,-269.74 103,-276.62"/>
</g>
<!-- n9&#45;&gt;c26 -->
<g id="edge42" class="edge">
<title>n9:e&#45;&gt;c26:w</title>
<path fill="none" stroke="black" d="M78.96,-151.25C219.39,-151.25 228.29,-25.25 368.71,-25.25 368.71,-25.25 368.71,-25.25 1066.19,-25.25 1289.83,-25.25 1340.53,-114.25 1558.26,-117.3"/>
<polygon fill="black" stroke="black" points="1558.23,-120.79 1568.25,-117.36 1558.28,-113.8 1558.23,-120.79"/>
</g>
<!-- n10 -->
<g id="node8" class="node">
<title>n10</title>
<polygon fill="none" stroke="black" points="1103.54,-141.79 1103.54,-156.71 1081.08,-167.25 1049.31,-167.25 1026.85,-156.71 1026.85,-141.79 1049.31,-131.25 1081.08,-131.25 1103.54,-141.79"/>
<text xml:space="preserve" text-anchor="middle" x="1065.19" y="-144.57" font-family="Times,serif" font-size="14.00">start</text>
</g>
<!-- c15 -->
<g id="node12" class="node">
<title>c15</title>
<polygon fill="none" stroke="black" points="1184.83,-130 1184.83,-180.5 1297.33,-180.5 1297.33,-130 1184.83,-130"/>
<text xml:space="preserve" text-anchor="middle" x="1198.08" y="-163.2" font-family="Times,serif" font-size="14.00">A</text>
<polyline fill="none" stroke="black" points="1184.83,-155.25 1211.33,-155.25"/>
<text xml:space="preserve" text-anchor="middle" x="1198.08" y="-137.95" font-family="Times,serif" font-size="14.00">B</text>
<polyline fill="none" stroke="black" points="1211.33,-130 1211.33,-180.5"/>
<text xml:space="preserve" text-anchor="middle" x="1241.83" y="-159.2" font-family="Times,serif" font-size="14.00">$1930</text>
<text xml:space="preserve" text-anchor="middle" x="1241.83" y="-141.95" font-family="Times,serif" font-size="14.00">$_OR_</text>
<polyline fill="none" stroke="black" points="1272.33,-130 1272.33,-180.5"/>
<text xml:space="preserve" text-anchor="middle" x="1284.83" y="-150.7" font-family="Times,serif" font-size="14.00">Y</text>
</g>
<!-- n10&#45;&gt;c15 -->
<g id="edge16" class="edge">
<title>n10:e&#45;&gt;c15:w</title>
<path fill="none" stroke="black" d="M1104.9,-149.25C1135.97,-149.25 1146.26,-144.09 1172.47,-142.88"/>
<polygon fill="black" stroke="black" points="1172.4,-146.38 1182.32,-142.66 1172.24,-139.38 1172.4,-146.38"/>
</g>
<!-- c19 -->
<g id="node23" class="node">
<title>c19</title>
<polygon fill="none" stroke="black" points="1163.45,-200 1163.45,-250.5 1318.7,-250.5 1318.7,-200 1163.45,-200"/>
<text xml:space="preserve" text-anchor="middle" x="1176.7" y="-233.2" font-family="Times,serif" font-size="14.00">A</text>
<polyline fill="none" stroke="black" points="1163.45,-225.25 1189.95,-225.25"/>
<text xml:space="preserve" text-anchor="middle" x="1176.7" y="-207.95" font-family="Times,serif" font-size="14.00">B</text>
<polyline fill="none" stroke="black" points="1189.95,-200 1189.95,-250.5"/>
<text xml:space="preserve" text-anchor="middle" x="1241.83" y="-229.2" font-family="Times,serif" font-size="14.00">$1935</text>
<text xml:space="preserve" text-anchor="middle" x="1241.83" y="-211.95" font-family="Times,serif" font-size="14.00">$_ANDNOT_</text>
<polyline fill="none" stroke="black" points="1293.7,-200 1293.7,-250.5"/>
<text xml:space="preserve" text-anchor="middle" x="1306.2" y="-220.7" font-family="Times,serif" font-size="14.00">Y</text>
</g>
<!-- n10&#45;&gt;c19 -->
<g id="edge17" class="edge">
<title>n10:e&#45;&gt;c19:w</title>
<path fill="none" stroke="black" d="M1104.9,-149.25C1147.68,-149.25 1122.24,-222.04 1152.23,-235.68"/>
<polygon fill="black" stroke="black" points="1151.48,-239.1 1161.97,-237.59 1152.82,-232.23 1151.48,-239.1"/>
</g>
<!-- c14 -->
<g id="node9" class="node">
<title>c14</title>
<polygon fill="none" stroke="black" points="833.06,-163 833.06,-213.5 945.56,-213.5 945.56,-163 833.06,-163"/>
<text xml:space="preserve" text-anchor="middle" x="846.31" y="-196.2" font-family="Times,serif" font-size="14.00">A</text>
<polyline fill="none" stroke="black" points="833.06,-188.25 859.56,-188.25"/>
<text xml:space="preserve" text-anchor="middle" x="846.31" y="-170.95" font-family="Times,serif" font-size="14.00">B</text>
<polyline fill="none" stroke="black" points="859.56,-163 859.56,-213.5"/>
<text xml:space="preserve" text-anchor="middle" x="890.06" y="-192.2" font-family="Times,serif" font-size="14.00">$1929</text>
<text xml:space="preserve" text-anchor="middle" x="890.06" y="-174.95" font-family="Times,serif" font-size="14.00">$_OR_</text>
<polyline fill="none" stroke="black" points="920.56,-163 920.56,-213.5"/>
<text xml:space="preserve" text-anchor="middle" x="933.06" y="-183.7" font-family="Times,serif" font-size="14.00">Y</text>
</g>
<!-- n2 -->
<g id="node31" class="node">
<title>n2</title>
<ellipse fill="black" stroke="black" cx="1065.19" cy="-188.25" rx="1.8" ry="1.8"/>
</g>
<!-- c14&#45;&gt;n2 -->
<g id="edge18" class="edge">
<title>c14:e&#45;&gt;n2:w</title>
<path fill="none" stroke="black" d="M946.56,-188.38C993.82,-188.38 1008.41,-188.27 1050.57,-188.25"/>
<polygon fill="black" stroke="black" points="1050.4,-191.75 1060.4,-188.25 1050.4,-184.75 1050.4,-191.75"/>
</g>
<!-- x0&#45;&gt;c14 -->
<g id="edge1" class="edge">
<title>x0:e&#45;&gt;c14:w</title>
<path fill="none" stroke="black" d="M788.5,-203.01C800.18,-202.56 807.58,-201.56 819.26,-201.11"/>
<polygon fill="none" stroke="black" points="788.58,-203.01 782.66,-207.12 776.58,-203.23 782.51,-199.12 788.58,-203.01"/>
<polygon fill="none" stroke="black" points="819.16,-201.11 825.08,-197 831.16,-200.89 825.23,-205 819.16,-201.11"/>
</g>
<!-- x1&#45;&gt;c14 -->
<g id="edge2" class="edge">
<title>x1:e&#45;&gt;c14:w</title>
<path fill="none" stroke="black" d="M788.38,-150.58C801.09,-155.76 806.66,-168.13 819.37,-173.3"/>
<polygon fill="none" stroke="black" points="788.37,-150.58 781.75,-153.43 776.57,-148.41 783.19,-145.56 788.37,-150.58"/>
<polygon fill="none" stroke="black" points="819.37,-173.3 825.99,-170.44 831.17,-175.46 824.55,-178.31 819.37,-173.3"/>
</g>
<!-- n1 -->
<g id="node30" class="node">
<title>n1</title>
<ellipse fill="black" stroke="black" cx="1444.24" cy="-143.25" rx="1.8" ry="1.8"/>
</g>
<!-- c15&#45;&gt;n1 -->
<g id="edge13" class="edge">
<title>c15:e&#45;&gt;n1:w</title>
<path fill="none" stroke="black" d="M1298.33,-155.38C1357.97,-155.38 1375.23,-144.72 1429.57,-143.39"/>
<polygon fill="black" stroke="black" points="1429.49,-146.89 1439.44,-143.27 1429.4,-139.89 1429.49,-146.89"/>
</g>
<!-- c16 -->
<g id="node13" class="node">
<title>c16</title>
<polygon fill="none" stroke="black" points="811.68,-265 811.68,-315.5 966.93,-315.5 966.93,-265 811.68,-265"/>
<text xml:space="preserve" text-anchor="middle" x="824.93" y="-298.2" font-family="Times,serif" font-size="14.00">A</text>
<polyline fill="none" stroke="black" points="811.68,-290.25 838.18,-290.25"/>
<text xml:space="preserve" text-anchor="middle" x="824.93" y="-272.95" font-family="Times,serif" font-size="14.00">B</text>
<polyline fill="none" stroke="black" points="838.18,-265 838.18,-315.5"/>
<text xml:space="preserve" text-anchor="middle" x="890.06" y="-294.2" font-family="Times,serif" font-size="14.00">$1931</text>
<text xml:space="preserve" text-anchor="middle" x="890.06" y="-276.95" font-family="Times,serif" font-size="14.00">$_ANDNOT_</text>
<polyline fill="none" stroke="black" points="941.93,-265 941.93,-315.5"/>
<text xml:space="preserve" text-anchor="middle" x="954.43" y="-285.7" font-family="Times,serif" font-size="14.00">Y</text>
</g>
<!-- c16&#45;&gt;n8 -->
<g id="edge38" class="edge">
<title>c16:e&#45;&gt;n8:w</title>
<path fill="none" stroke="black" d="M966.93,-290.38C978.31,-290.38 983.62,-290.31 991.49,-290.28"/>
<polygon fill="black" stroke="black" points="991.43,-293.78 1001.42,-290.25 991.41,-286.78 991.43,-293.78"/>
</g>
<!-- x2&#45;&gt;c16 -->
<g id="edge3" class="edge">
<title>x2:e&#45;&gt;c16:w</title>
<path fill="none" stroke="black" d="M788.06,-310.84C791.95,-309.22 795.14,-307.07 799,-305.41"/>
<polygon fill="none" stroke="black" points="788.35,-310.79 783.22,-315.86 776.57,-313.08 781.69,-308.01 788.35,-310.79"/>
<polygon fill="none" stroke="black" points="799.03,-305.41 804.13,-300.31 810.8,-303.05 805.7,-308.15 799.03,-305.41"/>
</g>
<!-- x3&#45;&gt;c16 -->
<g id="edge4" class="edge">
<title>x3:e&#45;&gt;c16:w</title>
<path fill="none" stroke="black" d="M787.94,-262.36C792.18,-265.65 795.19,-270.24 799.43,-273.52"/>
<polygon fill="none" stroke="black" points="787.91,-262.35 780.95,-264.24 776.54,-258.54 783.5,-256.65 787.91,-262.35"/>
<polygon fill="none" stroke="black" points="799.45,-273.53 806.41,-271.64 810.83,-277.34 803.87,-279.23 799.45,-273.53"/>
</g>
<!-- c17 -->
<g id="node16" class="node">
<title>c17</title>
<polygon fill="none" stroke="black" points="811.68,-371 811.68,-421.5 966.93,-421.5 966.93,-371 811.68,-371"/>
<text xml:space="preserve" text-anchor="middle" x="824.93" y="-404.2" font-family="Times,serif" font-size="14.00">A</text>
<polyline fill="none" stroke="black" points="811.68,-396.25 838.18,-396.25"/>
<text xml:space="preserve" text-anchor="middle" x="824.93" y="-378.95" font-family="Times,serif" font-size="14.00">B</text>
<polyline fill="none" stroke="black" points="838.18,-371 838.18,-421.5"/>
<text xml:space="preserve" text-anchor="middle" x="890.06" y="-400.2" font-family="Times,serif" font-size="14.00">$1932</text>
<text xml:space="preserve" text-anchor="middle" x="890.06" y="-382.95" font-family="Times,serif" font-size="14.00">$_ANDNOT_</text>
<polyline fill="none" stroke="black" points="941.93,-371 941.93,-421.5"/>
<text xml:space="preserve" text-anchor="middle" x="954.43" y="-391.7" font-family="Times,serif" font-size="14.00">Y</text>
</g>
<!-- c17&#45;&gt;n5 -->
<g id="edge33" class="edge">
<title>c17:e&#45;&gt;n5:w</title>
<path fill="none" stroke="black" d="M966.93,-396.38C988.69,-396.38 996.8,-396.29 1014.08,-396.26"/>
<polygon fill="black" stroke="black" points="1013.98,-399.76 1023.98,-396.25 1013.97,-392.76 1013.98,-399.76"/>
</g>
<!-- x4&#45;&gt;c17 -->
<g id="edge5" class="edge">
<title>x4:e&#45;&gt;c17:w</title>
<path fill="none" stroke="black" d="M788.2,-419.92C792.14,-417.59 795.25,-414.51 799.2,-412.19"/>
<polygon fill="none" stroke="black" points="788.15,-419.93 783.38,-425.34 776.55,-423.02 781.32,-417.61 788.15,-419.93"/>
<polygon fill="none" stroke="black" points="799.21,-412.19 803.99,-406.78 810.81,-409.11 806.04,-414.51 799.21,-412.19"/>
</g>
<!-- x5&#45;&gt;c17 -->
<g id="edge6" class="edge">
<title>x5:e&#45;&gt;c17:w</title>
<path fill="none" stroke="black" d="M788.24,-371.82C792.16,-374.3 795.23,-377.6 799.16,-380.08"/>
<polygon fill="none" stroke="black" points="788.09,-371.78 781.23,-373.98 776.55,-368.5 783.41,-366.29 788.09,-371.78"/>
<polygon fill="none" stroke="black" points="799.27,-380.11 806.13,-377.9 810.81,-383.38 803.95,-385.59 799.27,-380.11"/>
</g>
<!-- c18 -->
<g id="node19" class="node">
<title>c18</title>
<polygon fill="none" stroke="black" points="827.43,-468 827.43,-518.5 951.18,-518.5 951.18,-468 827.43,-468"/>
<text xml:space="preserve" text-anchor="middle" x="840.68" y="-501.2" font-family="Times,serif" font-size="14.00">A</text>
<polyline fill="none" stroke="black" points="827.43,-493.25 853.93,-493.25"/>
<text xml:space="preserve" text-anchor="middle" x="840.68" y="-475.95" font-family="Times,serif" font-size="14.00">B</text>
<polyline fill="none" stroke="black" points="853.93,-468 853.93,-518.5"/>
<text xml:space="preserve" text-anchor="middle" x="890.06" y="-497.2" font-family="Times,serif" font-size="14.00">$1933</text>
<text xml:space="preserve" text-anchor="middle" x="890.06" y="-479.95" font-family="Times,serif" font-size="14.00">$_NOR_</text>
<polyline fill="none" stroke="black" points="926.18,-468 926.18,-518.5"/>
<text xml:space="preserve" text-anchor="middle" x="938.68" y="-488.7" font-family="Times,serif" font-size="14.00">Y</text>
</g>
<!-- x8 -->
<g id="node22" class="node">
<title>x8</title>
<path fill="none" stroke="black" d="M1215.83,-475.25C1215.83,-475.25 1266.33,-475.25 1266.33,-475.25 1272.33,-475.25 1278.33,-481.25 1278.33,-487.25 1278.33,-487.25 1278.33,-499.25 1278.33,-499.25 1278.33,-505.25 1272.33,-511.25 1266.33,-511.25 1266.33,-511.25 1215.83,-511.25 1215.83,-511.25 1209.83,-511.25 1203.83,-505.25 1203.83,-499.25 1203.83,-499.25 1203.83,-487.25 1203.83,-487.25 1203.83,-481.25 1209.83,-475.25 1215.83,-475.25"/>
<text xml:space="preserve" text-anchor="middle" x="1241.08" y="-488.95" font-family="Times,serif" font-size="14.00">0:0 &#45; 0:0</text>
</g>
<!-- c18&#45;&gt;x8 -->
<g id="edge9" class="edge">
<title>c18:e&#45;&gt;x8:w</title>
<path fill="none" stroke="black" d="M965.17,-493.37C1061.81,-493.37 1093.31,-493.26 1190.05,-493.25"/>
<polygon fill="none" stroke="black" points="965.08,-493.37 959.08,-497.37 953.08,-493.37 959.08,-489.37 965.08,-493.37"/>
<polygon fill="none" stroke="black" points="1189.93,-493.25 1195.93,-489.25 1201.93,-493.25 1195.93,-497.25 1189.93,-493.25"/>
</g>
<!-- x6&#45;&gt;c18 -->
<g id="edge7" class="edge">
<title>x6:e&#45;&gt;c18:w</title>
<path fill="none" stroke="black" d="M788.1,-530.53C798.61,-525.33 803.32,-514.06 813.71,-508.75"/>
<polygon fill="none" stroke="black" points="788.28,-530.48 783.28,-535.68 776.56,-533.06 781.57,-527.86 788.28,-530.48"/>
<polygon fill="none" stroke="black" points="813.85,-508.72 818.82,-503.5 825.55,-506.07 820.58,-511.3 813.85,-508.72"/>
</g>
<!-- x7&#45;&gt;c18 -->
<g id="edge8" class="edge">
<title>x7:e&#45;&gt;c18:w</title>
<path fill="none" stroke="black" d="M788.42,-478.54C797.84,-479 804.24,-479.87 813.65,-480.33"/>
<polygon fill="none" stroke="black" points="788.58,-478.55 782.49,-482.41 776.58,-478.27 782.67,-474.41 788.58,-478.55"/>
<polygon fill="none" stroke="black" points="813.53,-480.33 819.62,-476.47 825.53,-480.6 819.44,-484.47 813.53,-480.33"/>
</g>
<!-- x8&#45;&gt;n6 -->
<g id="edge35" class="edge">
<title>x8:e&#45;&gt;n6:w</title>
<path fill="none" stroke="black" d="M1279.33,-493.62C1308.64,-493.62 1318.72,-493.34 1343.22,-493.27"/>
<polygon fill="black" stroke="black" points="1343.19,-496.77 1353.19,-493.25 1343.19,-489.77 1343.19,-496.77"/>
</g>
<!-- c19&#45;&gt;n7 -->
<g id="edge37" class="edge">
<title>c19:e&#45;&gt;n7:w</title>
<path fill="none" stroke="black" d="M1318.7,-225.38C1337.38,-225.38 1344.67,-225.29 1359.08,-225.26"/>
<polygon fill="black" stroke="black" points="1358.91,-228.76 1368.91,-225.25 1358.9,-221.76 1358.91,-228.76"/>
</g>
<!-- x10 -->
<g id="node26" class="node">
<title>x10</title>
<path fill="none" stroke="black" d="M344.46,-295.25C344.46,-295.25 394.96,-295.25 394.96,-295.25 400.96,-295.25 406.96,-301.25 406.96,-307.25 406.96,-307.25 406.96,-319.25 406.96,-319.25 406.96,-325.25 400.96,-331.25 394.96,-331.25 394.96,-331.25 344.46,-331.25 344.46,-331.25 338.46,-331.25 332.46,-325.25 332.46,-319.25 332.46,-319.25 332.46,-307.25 332.46,-307.25 332.46,-301.25 338.46,-295.25 344.46,-295.25"/>
<text xml:space="preserve" text-anchor="middle" x="369.71" y="-308.95" font-family="Times,serif" font-size="14.00">0:0 &#45; 0:0</text>
</g>
<!-- c25&#45;&gt;x10 -->
<g id="edge11" class="edge">
<title>c25:e&#45;&gt;x10:w</title>
<path fill="none" stroke="black" d="M309.19,-313.53C312.78,-313.47 315.92,-313.4 319.49,-313.35"/>
<polygon fill="none" stroke="black" points="309.37,-313.53 303.4,-317.57 297.37,-313.62 303.34,-309.57 309.37,-313.53"/>
<polygon fill="none" stroke="black" points="319.56,-313.35 325.53,-309.3 331.56,-313.26 325.59,-317.3 319.56,-313.35"/>
</g>
<!-- x9&#45;&gt;c25 -->
<g id="edge10" class="edge">
<title>x9:e&#45;&gt;c25:w</title>
<path fill="none" stroke="black" d="M1701.91,-550.65C1700.85,-552.94 1699.41,-555.11 1697.77,-556.75 1554.19,-699.97 1444.88,-580.25 1242.08,-580.25 553.07,-580.25 553.07,-580.25 553.07,-580.25 335.98,-580.25 232.01,-547.09 114.96,-364.25 109.29,-355.38 103.74,-342.84 104.33,-334.54"/>
<polygon fill="none" stroke="black" points="1701.93,-550.76 1696.58,-545.92 1698.99,-539.12 1704.34,-543.96 1701.93,-550.76"/>
<polygon fill="none" stroke="black" points="104.37,-334.5 106.16,-327.52 113.29,-326.48 111.51,-333.46 104.37,-334.5"/>
</g>
<!-- x10&#45;&gt;n4 -->
<g id="edge23" class="edge">
<title>x10:e&#45;&gt;n4:w</title>
<path fill="none" stroke="black" d="M406.96,-313.62C418.34,-313.62 423.65,-313.44 431.52,-313.33"/>
<polygon fill="black" stroke="black" points="431.47,-316.83 441.45,-313.26 431.43,-309.83 431.47,-316.83"/>
</g>
<!-- x11 -->
<g id="node28" class="node">
<title>x11</title>
<path fill="none" stroke="black" d="M1799.27,-85.25C1799.27,-85.25 1849.77,-85.25 1849.77,-85.25 1855.77,-85.25 1861.77,-91.25 1861.77,-97.25 1861.77,-97.25 1861.77,-109.25 1861.77,-109.25 1861.77,-115.25 1855.77,-121.25 1849.77,-121.25 1849.77,-121.25 1799.27,-121.25 1799.27,-121.25 1793.27,-121.25 1787.27,-115.25 1787.27,-109.25 1787.27,-109.25 1787.27,-97.25 1787.27,-97.25 1787.27,-91.25 1793.27,-85.25 1799.27,-85.25"/>
<text xml:space="preserve" text-anchor="middle" x="1824.52" y="-98.95" font-family="Times,serif" font-size="14.00">0:0 &#45; 1:1</text>
</g>
<!-- c26&#45;&gt;x11 -->
<g id="edge12" class="edge">
<title>c26:e&#45;&gt;x11:w</title>
<path fill="none" stroke="black" d="M1762.97,-150.41C1770.85,-140.37 1767.69,-118.46 1775.58,-108.44"/>
<polygon fill="none" stroke="black" points="1763.05,-150.37 1759.2,-156.47 1752.09,-155.26 1755.94,-149.16 1763.05,-150.37"/>
<polygon fill="none" stroke="black" points="1775.48,-108.49 1779.34,-102.4 1786.44,-103.62 1782.59,-109.71 1775.48,-108.49"/>
</g>
<!-- x11&#45;&gt;n4 -->
<g id="edge24" class="edge">
<title>x11:e&#45;&gt;n4:w</title>
<path fill="none" stroke="black" d="M1862.77,-103.62C1881.68,-103.62 1876.67,-151.11 1787.27,-121.75 1768.39,-115.55 1770.14,-101.45 1751.27,-95.25 1674.63,-70.08 1650.42,-94.04 1569.77,-95.25 1376.68,-98.14 846.94,5.42 701.18,-121.25 629.71,-183.37 737.58,-270.21 665.18,-331.25 588.64,-395.79 512.64,-400.05 439.91,-331.25 437.91,-329.36 436.22,-326.64 435.19,-323.89"/>
<polygon fill="black" stroke="black" points="438.41,-325.27 438.41,-314.68 431.8,-322.96 438.41,-325.27"/>
</g>
<!-- x12&#45;&gt;n6 -->
<g id="edge34" class="edge">
<title>x12:e&#45;&gt;n6:w</title>
<path fill="none" stroke="black" d="M1279.33,-389.62C1332.05,-389.62 1302.95,-478.44 1343.52,-491.62"/>
<polygon fill="black" stroke="black" points="1342.81,-495.05 1353.21,-493.03 1343.81,-488.13 1342.81,-495.05"/>
</g>
<!-- n1&#45;&gt;c25 -->
<g id="edge14" class="edge">
<title>n1:e&#45;&gt;c25:w</title>
<path fill="none" stroke="black" d="M1447.51,-143.25C1457.3,-143.25 1462.32,-147.02 1442.44,-145.05 1386.62,-139.51 1374.03,-129.46 1318.7,-120.25 1129.24,-88.69 1082.38,-63.25 890.31,-63.25 553.07,-63.25 553.07,-63.25 553.07,-63.25 339.21,-63.25 233.1,-83.98 114.96,-262.25 108.63,-271.81 102.66,-285.84 104.59,-294.03"/>
<polygon fill="black" stroke="black" points="102.53,-296.86 112.73,-299.75 106.56,-291.14 102.53,-296.86"/>
</g>
<!-- n1&#45;&gt;c26 -->
<g id="edge15" class="edge">
<title>n1:e&#45;&gt;c26:w</title>
<path fill="none" stroke="black" d="M1447.51,-143.25C1497.82,-143.25 1513.19,-142.71 1558.31,-142.63"/>
<polygon fill="black" stroke="black" points="1558.26,-146.13 1568.25,-142.63 1558.25,-139.13 1558.26,-146.13"/>
</g>
<!-- n2&#45;&gt;c15 -->
<g id="edge19" class="edge">
<title>n2:e&#45;&gt;c15:w</title>
<path fill="none" stroke="black" d="M1068.47,-188.25C1116.47,-188.25 1129.76,-170.93 1172.33,-168.23"/>
<polygon fill="black" stroke="black" points="1172.43,-171.73 1182.32,-167.92 1172.21,-164.73 1172.43,-171.73"/>
</g>
<!-- n2&#45;&gt;c19 -->
<g id="edge20" class="edge">
<title>n2:e&#45;&gt;c19:w</title>
<path fill="none" stroke="black" d="M1068.47,-188.25C1107.97,-188.25 1118.09,-208.27 1152.08,-212.02"/>
<polygon fill="black" stroke="black" points="1151.77,-215.51 1161.94,-212.54 1152.14,-208.52 1151.77,-215.51"/>
</g>
</g>
</svg>
