<?xml version="1.0" encoding="UTF-8" standalone="no"?>
<!DOCTYPE svg PUBLIC "-//W3C//DTD SVG 1.1//EN"
 "http://www.w3.org/Graphics/SVG/1.1/DTD/svg11.dtd">
<!-- Generated by graphviz version 14.1.2 (0)
 -->
<!-- Title: control_fsm Pages: 1 -->
<svg width="1214pt" height="626pt"
 viewBox="0.00 0.00 1214.00 626.00" xmlns="http://www.w3.org/2000/svg" xmlns:xlink="http://www.w3.org/1999/xlink">
<g id="graph0" class="graph" transform="scale(1 1) rotate(0) translate(4 621.66)">
<title>control_fsm</title>
<polygon fill="white" stroke="none" points="-4,4 -4,-621.66 1210.11,-621.66 1210.11,4 -4,4"/>
<!-- n6 -->
<g id="node1" class="node">
<title>n6</title>
<polygon fill="none" stroke="black" points="67.01,-382.54 67.01,-397.46 50.88,-408 28.08,-408 11.96,-397.46 11.96,-382.54 28.08,-372 50.88,-372 67.01,-382.54"/>
<text xml:space="preserve" text-anchor="middle" x="39.48" y="-385.32" font-family="Times,serif" font-size="14.00">clk</text>
</g>
<!-- c18 -->
<g id="node8" class="node">
<title>c18</title>
<polygon fill="none" stroke="black" points="114.96,-342.5 114.96,-443.5 257.46,-443.5 257.46,-342.5 114.96,-342.5"/>
<text xml:space="preserve" text-anchor="middle" x="142.46" y="-426.2" font-family="Times,serif" font-size="14.00">ARST</text>
<polyline fill="none" stroke="black" points="114.96,-418.25 169.96,-418.25"/>
<text xml:space="preserve" text-anchor="middle" x="142.46" y="-400.95" font-family="Times,serif" font-size="14.00">CLK</text>
<polyline fill="none" stroke="black" points="114.96,-393 169.96,-393"/>
<text xml:space="preserve" text-anchor="middle" x="142.46" y="-375.7" font-family="Times,serif" font-size="14.00">D</text>
<polyline fill="none" stroke="black" points="114.96,-367.75 169.96,-367.75"/>
<text xml:space="preserve" text-anchor="middle" x="142.46" y="-350.45" font-family="Times,serif" font-size="14.00">EN</text>
<polyline fill="none" stroke="black" points="169.96,-342.5 169.96,-443.5"/>
<text xml:space="preserve" text-anchor="middle" x="200.09" y="-396.95" font-family="Times,serif" font-size="14.00">$34</text>
<text xml:space="preserve" text-anchor="middle" x="200.09" y="-379.7" font-family="Times,serif" font-size="14.00">$adffe</text>
<polyline fill="none" stroke="black" points="230.21,-342.5 230.21,-443.5"/>
<text xml:space="preserve" text-anchor="middle" x="243.84" y="-388.7" font-family="Times,serif" font-size="14.00">Q</text>
</g>
<!-- n6&#45;&gt;c18 -->
<g id="edge15" class="edge">
<title>n6:e&#45;&gt;c18:w</title>
<path fill="none" stroke="black" d="M68.26,-390C85.71,-390 91.11,-399.92 103.66,-403.95"/>
<polygon fill="black" stroke="black" points="103.06,-407.4 113.47,-405.4 104.09,-400.48 103.06,-407.4"/>
</g>
<!-- n7 -->
<g id="node2" class="node">
<title>n7</title>
<polygon fill="none" stroke="black" points="404.57,-411 293.46,-393 404.57,-375 515.68,-393 404.57,-411"/>
<text xml:space="preserve" text-anchor="middle" x="404.57" y="-388.32" font-family="Times,serif" font-size="14.00">current_state</text>
</g>
<!-- c27 -->
<g id="node19" class="node">
<title>c27</title>
<polygon fill="none" stroke="black" points="552.06,-400.75 552.06,-443.25 696.06,-443.25 696.06,-400.75 552.06,-400.75"/>
<text xml:space="preserve" text-anchor="middle" x="564.93" y="-417.45" font-family="Times,serif" font-size="14.00">A</text>
<polyline fill="none" stroke="black" points="577.81,-400.75 577.81,-443.25"/>
<text xml:space="preserve" text-anchor="middle" x="624.43" y="-425.95" font-family="Times,serif" font-size="14.00">$25_CMP0</text>
<text xml:space="preserve" text-anchor="middle" x="624.43" y="-408.7" font-family="Times,serif" font-size="14.00">$logic_not</text>
<polyline fill="none" stroke="black" points="671.06,-400.75 671.06,-443.25"/>
<text xml:space="preserve" text-anchor="middle" x="683.56" y="-417.45" font-family="Times,serif" font-size="14.00">Y</text>
</g>
<!-- n7&#45;&gt;c27 -->
<g id="edge17" class="edge">
<title>n7:e&#45;&gt;c27:w</title>
<path fill="none" stroke="black" stroke-width="3" d="M515.68,-393C531.6,-393 532.12,-410.42 541.06,-418.32"/>
<polygon fill="black" stroke="black" stroke-width="3" points="536.81,-420.51 547.41,-420.59 539.18,-413.92 536.81,-420.51"/>
</g>
<!-- c29 -->
<g id="node24" class="node">
<title>c29</title>
<polygon fill="none" stroke="black" points="551.68,-4.75 551.68,-55.25 696.43,-55.25 696.43,-4.75 551.68,-4.75"/>
<text xml:space="preserve" text-anchor="middle" x="564.93" y="-37.95" font-family="Times,serif" font-size="14.00">A</text>
<polyline fill="none" stroke="black" points="551.68,-30 578.18,-30"/>
<text xml:space="preserve" text-anchor="middle" x="564.93" y="-12.7" font-family="Times,serif" font-size="14.00">B</text>
<polyline fill="none" stroke="black" points="578.18,-4.75 578.18,-55.25"/>
<text xml:space="preserve" text-anchor="middle" x="624.81" y="-33.95" font-family="Times,serif" font-size="14.00">$28_CMP0</text>
<text xml:space="preserve" text-anchor="middle" x="624.81" y="-16.7" font-family="Times,serif" font-size="14.00">$eq</text>
<polyline fill="none" stroke="black" points="671.43,-4.75 671.43,-55.25"/>
<text xml:space="preserve" text-anchor="middle" x="683.93" y="-25.45" font-family="Times,serif" font-size="14.00">Y</text>
</g>
<!-- n7&#45;&gt;c29 -->
<g id="edge18" class="edge">
<title>n7:e&#45;&gt;c29:w</title>
<path fill="none" stroke="black" stroke-width="3" d="M515.68,-393C589.83,-393 485.57,-78.6 540.9,-45.45"/>
<polygon fill="black" stroke="black" stroke-width="3" points="538.5,-49.69 547.29,-43.77 536.73,-42.92 538.5,-49.69"/>
</g>
<!-- n8 -->
<g id="node3" class="node">
<title>n8</title>
<polygon fill="none" stroke="black" points="967.65,-84.54 967.65,-99.46 945.19,-110 913.42,-110 890.96,-99.46 890.96,-84.54 913.42,-74 945.19,-74 967.65,-84.54"/>
<text xml:space="preserve" text-anchor="middle" x="929.31" y="-87.33" font-family="Times,serif" font-size="14.00">done</text>
</g>
<!-- n9 -->
<g id="node4" class="node">
<title>n9</title>
<polygon fill="none" stroke="black" points="1108.46,-550 1018.93,-532 1108.46,-514 1198,-532 1108.46,-550"/>
<text xml:space="preserve" text-anchor="middle" x="1108.46" y="-527.33" font-family="Times,serif" font-size="14.00">next_state</text>
</g>
<!-- n9&#45;&gt;c18 -->
<g id="edge21" class="edge">
<title>n9:e&#45;&gt;c18:w</title>
<path fill="none" stroke="black" stroke-width="3" d="M1201.23,-532C1209.24,-532 1205.84,-544.29 1200.23,-550 1071.15,-681.29 971.17,-580 787.06,-580 623.06,-580 623.06,-580 623.06,-580 460.22,-580 404.66,-538.95 293.46,-420 267.39,-392.11 289.63,-362.58 257.46,-342 204.12,-307.87 160.33,-297.8 114.96,-342 106.47,-350.28 101.05,-365.6 104.28,-374.16"/>
<polygon fill="black" stroke="black" stroke-width="3" points="99.84,-375.47 110.14,-377.92 103.61,-369.58 99.84,-375.47"/>
</g>
<!-- n10 -->
<g id="node5" class="node">
<title>n10</title>
<polygon fill="none" stroke="black" points="1170.72,-192.54 1170.72,-207.46 1134.25,-218 1082.67,-218 1046.2,-207.46 1046.2,-192.54 1082.67,-182 1134.25,-182 1170.72,-192.54"/>
<text xml:space="preserve" text-anchor="middle" x="1108.46" y="-195.32" font-family="Times,serif" font-size="14.00">result_en</text>
</g>
<!-- n11 -->
<g id="node6" class="node">
<title>n11</title>
<polygon fill="none" stroke="black" points="78.96,-436.54 78.96,-451.46 55.84,-462 23.13,-462 0,-451.46 0,-436.54 23.13,-426 55.84,-426 78.96,-436.54"/>
<text xml:space="preserve" text-anchor="middle" x="39.48" y="-439.32" font-family="Times,serif" font-size="14.00">rst_n</text>
</g>
<!-- n11&#45;&gt;c18 -->
<g id="edge4" class="edge">
<title>n11:e&#45;&gt;c18:w</title>
<path fill="none" stroke="black" d="M78.96,-444C91.34,-444 95.75,-437.07 103.76,-433.28"/>
<polygon fill="black" stroke="black" points="104.44,-436.72 113.48,-431.19 102.97,-429.87 104.44,-436.72"/>
</g>
<!-- n12 -->
<g id="node7" class="node">
<title>n12</title>
<polygon fill="none" stroke="black" points="662.4,-356.54 662.4,-371.46 639.94,-382 608.17,-382 585.71,-371.46 585.71,-356.54 608.17,-346 639.94,-346 662.4,-356.54"/>
<text xml:space="preserve" text-anchor="middle" x="624.06" y="-359.32" font-family="Times,serif" font-size="14.00">start</text>
</g>
<!-- x0 -->
<g id="node11" class="node">
<title>x0</title>
<path fill="none" stroke="black" d="M904.06,-350.75C904.06,-350.75 954.56,-350.75 954.56,-350.75 960.56,-350.75 966.56,-356.75 966.56,-362.75 966.56,-362.75 966.56,-389.25 966.56,-389.25 966.56,-395.25 960.56,-401.25 954.56,-401.25 954.56,-401.25 904.06,-401.25 904.06,-401.25 898.06,-401.25 892.06,-395.25 892.06,-389.25 892.06,-389.25 892.06,-362.75 892.06,-362.75 892.06,-356.75 898.06,-350.75 904.06,-350.75"/>
<text xml:space="preserve" text-anchor="middle" x="929.31" y="-383.95" font-family="Times,serif" font-size="14.00">0:0 &#45; 1:1</text>
<polyline fill="none" stroke="black" points="892.06,-376 966.56,-376"/>
<text xml:space="preserve" text-anchor="middle" x="929.31" y="-358.7" font-family="Times,serif" font-size="14.00">0:0 &#45; 0:0</text>
</g>
<!-- n12&#45;&gt;x0 -->
<g id="edge7" class="edge">
<title>n12:e&#45;&gt;x0:w</title>
<path fill="none" stroke="black" d="M663.76,-364C760.84,-364 787.95,-363.42 879.56,-363.38"/>
<polygon fill="black" stroke="black" points="879.54,-366.88 889.54,-363.38 879.54,-359.88 879.54,-366.88"/>
</g>
<!-- c24 -->
<g id="node14" class="node">
<title>c24</title>
<polygon fill="none" stroke="black" points="732.43,-162.12 732.43,-237.88 839.68,-237.88 839.68,-162.12 732.43,-162.12"/>
<text xml:space="preserve" text-anchor="middle" x="745.68" y="-220.57" font-family="Times,serif" font-size="14.00">A</text>
<polyline fill="none" stroke="black" points="732.43,-212.62 758.93,-212.62"/>
<text xml:space="preserve" text-anchor="middle" x="745.68" y="-195.32" font-family="Times,serif" font-size="14.00">B</text>
<polyline fill="none" stroke="black" points="732.43,-187.38 758.93,-187.38"/>
<text xml:space="preserve" text-anchor="middle" x="745.68" y="-170.07" font-family="Times,serif" font-size="14.00">S</text>
<polyline fill="none" stroke="black" points="758.93,-162.12 758.93,-237.88"/>
<text xml:space="preserve" text-anchor="middle" x="786.81" y="-203.95" font-family="Times,serif" font-size="14.00">$14</text>
<text xml:space="preserve" text-anchor="middle" x="786.81" y="-186.7" font-family="Times,serif" font-size="14.00">$mux</text>
<polyline fill="none" stroke="black" points="814.68,-162.12 814.68,-237.88"/>
<text xml:space="preserve" text-anchor="middle" x="827.18" y="-195.57" font-family="Times,serif" font-size="14.00">Y</text>
</g>
<!-- n12&#45;&gt;c24 -->
<g id="edge5" class="edge">
<title>n12:e&#45;&gt;c24:w</title>
<path fill="none" stroke="black" d="M663.76,-364C704.48,-364 690.9,-207.23 721.87,-179.06"/>
<polygon fill="black" stroke="black" points="723.09,-182.34 731.03,-175.32 720.45,-175.86 723.09,-182.34"/>
</g>
<!-- c30 -->
<g id="node27" class="node">
<title>c30</title>
<polygon fill="none" stroke="black" points="732.43,-422.12 732.43,-497.88 839.68,-497.88 839.68,-422.12 732.43,-422.12"/>
<text xml:space="preserve" text-anchor="middle" x="745.68" y="-480.57" font-family="Times,serif" font-size="14.00">A</text>
<polyline fill="none" stroke="black" points="732.43,-472.62 758.93,-472.62"/>
<text xml:space="preserve" text-anchor="middle" x="745.68" y="-455.32" font-family="Times,serif" font-size="14.00">B</text>
<polyline fill="none" stroke="black" points="732.43,-447.38 758.93,-447.38"/>
<text xml:space="preserve" text-anchor="middle" x="745.68" y="-430.07" font-family="Times,serif" font-size="14.00">S</text>
<polyline fill="none" stroke="black" points="758.93,-422.12 758.93,-497.88"/>
<text xml:space="preserve" text-anchor="middle" x="786.81" y="-463.95" font-family="Times,serif" font-size="14.00">$7</text>
<text xml:space="preserve" text-anchor="middle" x="786.81" y="-446.7" font-family="Times,serif" font-size="14.00">$mux</text>
<polyline fill="none" stroke="black" points="814.68,-422.12 814.68,-497.88"/>
<text xml:space="preserve" text-anchor="middle" x="827.18" y="-455.57" font-family="Times,serif" font-size="14.00">Y</text>
</g>
<!-- n12&#45;&gt;c30 -->
<g id="edge6" class="edge">
<title>n12:e&#45;&gt;c30:w</title>
<path fill="none" stroke="black" d="M663.76,-364C682.6,-364 683.13,-377.67 696.43,-391 710.88,-405.48 708.99,-425.31 721.28,-432.24"/>
<polygon fill="black" stroke="black" points="720.43,-435.64 730.96,-434.42 721.97,-428.81 720.43,-435.64"/>
</g>
<!-- c18&#45;&gt;n7 -->
<g id="edge16" class="edge">
<title>c18:e&#45;&gt;n7:w</title>
<path fill="none" stroke="black" stroke-width="3" d="M257.46,-393.38C268.84,-393.38 274.15,-393.19 282.02,-393.08"/>
<polygon fill="black" stroke="black" stroke-width="3" points="278.95,-396.6 288.92,-393.03 278.9,-389.6 278.95,-396.6"/>
</g>
<!-- v1 -->
<g id="node9" class="node">
<title>v1</title>
<ellipse fill="none" stroke="black" cx="929.31" cy="-274" rx="32.79" ry="18"/>
<text xml:space="preserve" text-anchor="middle" x="929.31" y="-269.32" font-family="Times,serif" font-size="14.00">2&#39;10</text>
</g>
<!-- c22 -->
<g id="node10" class="node">
<title>c22</title>
<polygon fill="none" stroke="black" points="1061.21,-294.75 1061.21,-345.25 1155.71,-345.25 1155.71,-294.75 1061.21,-294.75"/>
<text xml:space="preserve" text-anchor="middle" x="1074.46" y="-327.95" font-family="Times,serif" font-size="14.00">A</text>
<polyline fill="none" stroke="black" points="1061.21,-320 1087.71,-320"/>
<text xml:space="preserve" text-anchor="middle" x="1074.46" y="-302.7" font-family="Times,serif" font-size="14.00">B</text>
<polyline fill="none" stroke="black" points="1087.71,-294.75 1087.71,-345.25"/>
<text xml:space="preserve" text-anchor="middle" x="1109.21" y="-323.95" font-family="Times,serif" font-size="14.00">$36</text>
<text xml:space="preserve" text-anchor="middle" x="1109.21" y="-306.7" font-family="Times,serif" font-size="14.00">$ne</text>
<polyline fill="none" stroke="black" points="1130.71,-294.75 1130.71,-345.25"/>
<text xml:space="preserve" text-anchor="middle" x="1143.21" y="-315.45" font-family="Times,serif" font-size="14.00">Y</text>
</g>
<!-- v1&#45;&gt;c22 -->
<g id="edge22" class="edge">
<title>v1:e&#45;&gt;c22:w</title>
<path fill="none" stroke="black" stroke-width="3" d="M963.41,-274C1004.83,-274 1013.34,-301.65 1048.85,-306.62"/>
<polygon fill="black" stroke="black" stroke-width="3" points="1045.47,-309.9 1055.68,-307.07 1045.94,-302.91 1045.47,-309.9"/>
</g>
<!-- c22&#45;&gt;c18 -->
<g id="edge9" class="edge">
<title>c22:e&#45;&gt;c18:w</title>
<path fill="none" stroke="black" d="M1156.71,-320.12C1168.11,-320.12 1163.93,-337.85 1155.71,-345.75 1100.34,-399 1059.7,-343.86 982.93,-341 791.39,-333.86 743.35,-335.9 551.68,-337 357.58,-338.11 256.58,-209.25 114.96,-342 114.43,-342.5 113.92,-343.08 113.46,-343.71"/>
<polygon fill="black" stroke="black" points="109.96,-343.78 113.9,-353.61 116.95,-343.47 109.96,-343.78"/>
</g>
<!-- x0&#45;&gt;c22 -->
<g id="edge1" class="edge">
<title>x0:e&#45;&gt;c22:w</title>
<path fill="none" stroke="black" stroke-width="3" d="M980.15,-374.75C1010.01,-368.44 1017.75,-340.2 1047.6,-333.88"/>
<polygon fill="none" stroke="black" stroke-width="3" points="982.19,-374.55 976.61,-379.12 970.25,-375.73 975.82,-371.16 982.19,-374.55"/>
<polygon fill="none" stroke="black" stroke-width="3" points="1045.58,-334.08 1051.16,-329.51 1057.52,-332.89 1051.95,-337.47 1045.58,-334.08"/>
</g>
<!-- v2 -->
<g id="node12" class="node">
<title>v2</title>
<ellipse fill="none" stroke="black" cx="624.06" cy="-254" rx="27" ry="18"/>
<text xml:space="preserve" text-anchor="middle" x="624.06" y="-249.32" font-family="Times,serif" font-size="14.00">1&#39;0</text>
</g>
<!-- v2&#45;&gt;c24 -->
<g id="edge24" class="edge">
<title>v2:e&#45;&gt;c24:w</title>
<path fill="none" stroke="black" d="M652.31,-254C686.01,-254 693.23,-231.2 721.13,-226.21"/>
<polygon fill="black" stroke="black" points="721.25,-229.71 730.92,-225.38 720.66,-222.73 721.25,-229.71"/>
</g>
<!-- v3 -->
<g id="node13" class="node">
<title>v3</title>
<ellipse fill="none" stroke="black" cx="624.06" cy="-200" rx="27" ry="18"/>
<text xml:space="preserve" text-anchor="middle" x="624.06" y="-195.32" font-family="Times,serif" font-size="14.00">1&#39;1</text>
</g>
<!-- v3&#45;&gt;c24 -->
<g id="edge25" class="edge">
<title>v3:e&#45;&gt;c24:w</title>
<path fill="none" stroke="black" d="M652.31,-200C683.75,-200 694.37,-200 720.93,-200"/>
<polygon fill="black" stroke="black" points="720.92,-203.5 730.92,-200 720.92,-196.5 720.92,-203.5"/>
</g>
<!-- c26 -->
<g id="node18" class="node">
<title>c26</title>
<polygon fill="none" stroke="black" points="875.68,-162.12 875.68,-237.88 982.93,-237.88 982.93,-162.12 875.68,-162.12"/>
<text xml:space="preserve" text-anchor="middle" x="888.93" y="-220.57" font-family="Times,serif" font-size="14.00">A</text>
<polyline fill="none" stroke="black" points="875.68,-212.62 902.18,-212.62"/>
<text xml:space="preserve" text-anchor="middle" x="888.93" y="-195.32" font-family="Times,serif" font-size="14.00">B</text>
<polyline fill="none" stroke="black" points="875.68,-187.38 902.18,-187.38"/>
<text xml:space="preserve" text-anchor="middle" x="888.93" y="-170.07" font-family="Times,serif" font-size="14.00">S</text>
<polyline fill="none" stroke="black" points="902.18,-162.12 902.18,-237.88"/>
<text xml:space="preserve" text-anchor="middle" x="930.06" y="-203.95" font-family="Times,serif" font-size="14.00">$24</text>
<text xml:space="preserve" text-anchor="middle" x="930.06" y="-186.7" font-family="Times,serif" font-size="14.00">$mux</text>
<polyline fill="none" stroke="black" points="957.93,-162.12 957.93,-237.88"/>
<text xml:space="preserve" text-anchor="middle" x="970.43" y="-195.57" font-family="Times,serif" font-size="14.00">Y</text>
</g>
<!-- c24&#45;&gt;c26 -->
<g id="edge8" class="edge">
<title>c24:e&#45;&gt;c26:w</title>
<path fill="none" stroke="black" d="M839.68,-200.25C851.06,-200.25 856.37,-200.12 864.24,-200.05"/>
<polygon fill="black" stroke="black" points="864.18,-203.55 874.17,-200.01 864.15,-196.55 864.18,-203.55"/>
</g>
<!-- v4 -->
<g id="node15" class="node">
<title>v4</title>
<ellipse fill="none" stroke="black" cx="786.06" cy="-534" rx="32.79" ry="18"/>
<text xml:space="preserve" text-anchor="middle" x="786.06" y="-529.33" font-family="Times,serif" font-size="14.00">2&#39;00</text>
</g>
<!-- c25 -->
<g id="node16" class="node">
<title>c25</title>
<polygon fill="none" stroke="black" points="875.68,-446.12 875.68,-521.88 982.93,-521.88 982.93,-446.12 875.68,-446.12"/>
<text xml:space="preserve" text-anchor="middle" x="888.93" y="-504.57" font-family="Times,serif" font-size="14.00">A</text>
<polyline fill="none" stroke="black" points="875.68,-496.62 902.18,-496.62"/>
<text xml:space="preserve" text-anchor="middle" x="888.93" y="-479.32" font-family="Times,serif" font-size="14.00">B</text>
<polyline fill="none" stroke="black" points="875.68,-471.38 902.18,-471.38"/>
<text xml:space="preserve" text-anchor="middle" x="888.93" y="-454.07" font-family="Times,serif" font-size="14.00">S</text>
<polyline fill="none" stroke="black" points="902.18,-446.12 902.18,-521.88"/>
<text xml:space="preserve" text-anchor="middle" x="930.06" y="-487.95" font-family="Times,serif" font-size="14.00">$20</text>
<text xml:space="preserve" text-anchor="middle" x="930.06" y="-470.7" font-family="Times,serif" font-size="14.00">$mux</text>
<polyline fill="none" stroke="black" points="957.93,-446.12 957.93,-521.88"/>
<text xml:space="preserve" text-anchor="middle" x="970.43" y="-479.57" font-family="Times,serif" font-size="14.00">Y</text>
</g>
<!-- v4&#45;&gt;c25 -->
<g id="edge26" class="edge">
<title>v4:e&#45;&gt;c25:w</title>
<path fill="none" stroke="black" stroke-width="3" d="M820.16,-534C842.95,-534 847.58,-516.38 864.69,-510.87"/>
<polygon fill="black" stroke="black" stroke-width="3" points="861.81,-514.84 871.19,-509.91 860.79,-507.91 861.81,-514.84"/>
</g>
<!-- c25&#45;&gt;n9 -->
<g id="edge20" class="edge">
<title>c25:e&#45;&gt;n9:w</title>
<path fill="none" stroke="black" stroke-width="3" d="M982.93,-484.25C1004.73,-484.25 997.11,-516.38 1008.33,-527.93"/>
<polygon fill="black" stroke="black" stroke-width="3" points="1004.1,-530.05 1014.69,-530.37 1006.61,-523.52 1004.1,-530.05"/>
</g>
<!-- v5 -->
<g id="node17" class="node">
<title>v5</title>
<ellipse fill="none" stroke="black" cx="786.06" cy="-274" rx="27" ry="18"/>
<text xml:space="preserve" text-anchor="middle" x="786.06" y="-269.32" font-family="Times,serif" font-size="14.00">1&#39;0</text>
</g>
<!-- v5&#45;&gt;c26 -->
<g id="edge27" class="edge">
<title>v5:e&#45;&gt;c26:w</title>
<path fill="none" stroke="black" d="M814.31,-274C844.79,-274 842.25,-236.68 864.47,-227.34"/>
<polygon fill="black" stroke="black" points="865.01,-230.81 874.19,-225.53 863.72,-223.92 865.01,-230.81"/>
</g>
<!-- c26&#45;&gt;n10 -->
<g id="edge3" class="edge">
<title>c26:e&#45;&gt;n10:w</title>
<path fill="none" stroke="black" d="M982.93,-200.25C1006.29,-200.25 1014.8,-200.07 1033.64,-200.02"/>
<polygon fill="black" stroke="black" points="1033.43,-203.52 1043.43,-200 1033.42,-196.52 1033.43,-203.52"/>
</g>
<!-- n4 -->
<g id="node28" class="node">
<title>n4</title>
<ellipse fill="black" stroke="black" cx="786.06" cy="-398" rx="1.8" ry="1.8"/>
</g>
<!-- c27&#45;&gt;n4 -->
<g id="edge10" class="edge">
<title>c27:e&#45;&gt;n4:w</title>
<path fill="none" stroke="black" d="M696.43,-422.12C713.24,-422.12 748.97,-404.95 771.7,-399.58"/>
<polygon fill="black" stroke="black" points="771.88,-403.09 781.28,-398.21 770.89,-396.16 771.88,-403.09"/>
</g>
<!-- v6 -->
<g id="node20" class="node">
<title>v6</title>
<ellipse fill="none" stroke="black" cx="624.06" cy="-146" rx="27" ry="18"/>
<text xml:space="preserve" text-anchor="middle" x="624.06" y="-141.32" font-family="Times,serif" font-size="14.00">1&#39;0</text>
</g>
<!-- c28 -->
<g id="node22" class="node">
<title>c28</title>
<polygon fill="none" stroke="black" points="732.43,-54.12 732.43,-129.88 839.68,-129.88 839.68,-54.12 732.43,-54.12"/>
<text xml:space="preserve" text-anchor="middle" x="745.68" y="-112.58" font-family="Times,serif" font-size="14.00">A</text>
<polyline fill="none" stroke="black" points="732.43,-104.62 758.93,-104.62"/>
<text xml:space="preserve" text-anchor="middle" x="745.68" y="-87.33" font-family="Times,serif" font-size="14.00">B</text>
<polyline fill="none" stroke="black" points="732.43,-79.38 758.93,-79.38"/>
<text xml:space="preserve" text-anchor="middle" x="745.68" y="-62.08" font-family="Times,serif" font-size="14.00">S</text>
<polyline fill="none" stroke="black" points="758.93,-54.12 758.93,-129.88"/>
<text xml:space="preserve" text-anchor="middle" x="786.81" y="-95.95" font-family="Times,serif" font-size="14.00">$27</text>
<text xml:space="preserve" text-anchor="middle" x="786.81" y="-78.7" font-family="Times,serif" font-size="14.00">$mux</text>
<polyline fill="none" stroke="black" points="814.68,-54.12 814.68,-129.88"/>
<text xml:space="preserve" text-anchor="middle" x="827.18" y="-87.58" font-family="Times,serif" font-size="14.00">Y</text>
</g>
<!-- v6&#45;&gt;c28 -->
<g id="edge28" class="edge">
<title>v6:e&#45;&gt;c28:w</title>
<path fill="none" stroke="black" d="M652.31,-146C686.01,-146 693.23,-123.2 721.13,-118.21"/>
<polygon fill="black" stroke="black" points="721.25,-121.71 730.92,-117.38 720.66,-114.73 721.25,-121.71"/>
</g>
<!-- v7 -->
<g id="node21" class="node">
<title>v7</title>
<ellipse fill="none" stroke="black" cx="624.06" cy="-92" rx="27" ry="18"/>
<text xml:space="preserve" text-anchor="middle" x="624.06" y="-87.33" font-family="Times,serif" font-size="14.00">1&#39;1</text>
</g>
<!-- v7&#45;&gt;c28 -->
<g id="edge29" class="edge">
<title>v7:e&#45;&gt;c28:w</title>
<path fill="none" stroke="black" d="M652.31,-92C683.75,-92 694.37,-92 720.93,-92"/>
<polygon fill="black" stroke="black" points="720.92,-95.5 730.92,-92 720.92,-88.5 720.92,-95.5"/>
</g>
<!-- c28&#45;&gt;n8 -->
<g id="edge19" class="edge">
<title>c28:e&#45;&gt;n8:w</title>
<path fill="none" stroke="black" d="M839.68,-92.25C857.54,-92.25 864.62,-92.09 878.26,-92.02"/>
<polygon fill="black" stroke="black" points="878.1,-95.53 888.09,-92 878.08,-88.53 878.1,-95.53"/>
</g>
<!-- v8 -->
<g id="node23" class="node">
<title>v8</title>
<ellipse fill="none" stroke="black" cx="404.57" cy="-18" rx="32.79" ry="18"/>
<text xml:space="preserve" text-anchor="middle" x="404.57" y="-13.32" font-family="Times,serif" font-size="14.00">2&#39;01</text>
</g>
<!-- v8&#45;&gt;c29 -->
<g id="edge30" class="edge">
<title>v8:e&#45;&gt;c29:w</title>
<path fill="none" stroke="black" stroke-width="3" d="M438.67,-18C484.88,-18 499.2,-17.47 540.3,-17.39"/>
<polygon fill="black" stroke="black" stroke-width="3" points="537.15,-20.89 547.14,-17.38 537.14,-13.89 537.15,-20.89"/>
</g>
<!-- c29&#45;&gt;c28 -->
<g id="edge14" class="edge">
<title>c29:e&#45;&gt;c28:w</title>
<path fill="none" stroke="black" d="M696.43,-30.12C714.44,-30.12 712.23,-52.93 721.71,-62.55"/>
<polygon fill="black" stroke="black" points="720.44,-65.81 731.02,-66.2 722.99,-59.29 720.44,-65.81"/>
</g>
<!-- v9 -->
<g id="node25" class="node">
<title>v9</title>
<ellipse fill="none" stroke="black" cx="624.06" cy="-534" rx="27" ry="18"/>
<text xml:space="preserve" text-anchor="middle" x="624.06" y="-529.33" font-family="Times,serif" font-size="14.00">2&#39;x</text>
</g>
<!-- v9&#45;&gt;c30 -->
<g id="edge31" class="edge">
<title>v9:e&#45;&gt;c30:w</title>
<path fill="none" stroke="black" stroke-width="3" d="M652.31,-534C656.46,-534 701.57,-503.04 722.36,-490.47"/>
<polygon fill="black" stroke="black" stroke-width="3" points="721.13,-495.04 728.4,-487.34 717.91,-488.83 721.13,-495.04"/>
</g>
<!-- v10 -->
<g id="node26" class="node">
<title>v10</title>
<ellipse fill="none" stroke="black" cx="624.06" cy="-480" rx="32.79" ry="18"/>
<text xml:space="preserve" text-anchor="middle" x="624.06" y="-475.32" font-family="Times,serif" font-size="14.00">2&#39;01</text>
</g>
<!-- v10&#45;&gt;c30 -->
<g id="edge23" class="edge">
<title>v10:e&#45;&gt;c30:w</title>
<path fill="none" stroke="black" stroke-width="3" d="M658.16,-480C688.21,-480 696.4,-464.55 721.16,-460.81"/>
<polygon fill="black" stroke="black" stroke-width="3" points="718.18,-464.53 727.9,-460.32 717.68,-457.55 718.18,-464.53"/>
</g>
<!-- c30&#45;&gt;c25 -->
<g id="edge2" class="edge">
<title>c30:e&#45;&gt;c25:w</title>
<path fill="none" stroke="black" stroke-width="3" d="M839.68,-460.25C854.21,-460.25 856.38,-473.89 864.93,-480.5"/>
<polygon fill="black" stroke="black" stroke-width="3" points="860.77,-482.82 871.37,-482.59 862.94,-476.17 860.77,-482.82"/>
</g>
<!-- n4&#45;&gt;x0 -->
<g id="edge13" class="edge">
<title>n4:e&#45;&gt;x0:w</title>
<path fill="none" stroke="black" d="M789.34,-398C830.66,-398 843.42,-390.23 879.61,-388.84"/>
<polygon fill="black" stroke="black" points="879.61,-392.34 889.54,-388.65 879.48,-385.34 879.61,-392.34"/>
</g>
<!-- n4&#45;&gt;c25 -->
<g id="edge11" class="edge">
<title>n4:e&#45;&gt;c25:w</title>
<path fill="none" stroke="black" d="M789.34,-398C812.68,-398 820.37,-399.88 839.68,-413 857.07,-424.82 852.89,-447.63 864.59,-455.77"/>
<polygon fill="black" stroke="black" points="863.66,-459.15 874.22,-458.36 865.47,-452.39 863.66,-459.15"/>
</g>
<!-- n4&#45;&gt;c26 -->
<g id="edge12" class="edge">
<title>n4:e&#45;&gt;c26:w</title>
<path fill="none" stroke="black" d="M789.34,-398C837.91,-398 821.74,-346.14 839.68,-301 859.63,-250.8 823.49,-185.34 864.31,-175.9"/>
<polygon fill="black" stroke="black" points="864.58,-179.39 874.18,-174.9 863.87,-172.43 864.58,-179.39"/>
</g>
</g>
</svg>
