<?xml version="1.0" encoding="UTF-8" standalone="no"?>
<!DOCTYPE svg PUBLIC "-//W3C//DTD SVG 1.1//EN"
 "http://www.w3.org/Graphics/SVG/1.1/DTD/svg11.dtd">
<!-- Generated by graphviz version 14.1.2 (0)
 -->
<!-- Title: mac_unit_v2 Pages: 1 -->
<svg width="346pt" height="123pt"
 viewBox="0.00 0.00 346.00 123.00" xmlns="http://www.w3.org/2000/svg" xmlns:xlink="http://www.w3.org/1999/xlink">
<g id="graph0" class="graph" transform="scale(1 1) rotate(0) translate(4 119.25)">
<title>mac_unit_v2</title>
<polygon fill="white" stroke="none" points="-4,4 -4,-119.25 342.08,-119.25 342.08,4 -4,4"/>
<text xml:space="preserve" text-anchor="middle" x="169.04" y="-7.95" font-family="Times,serif" font-size="14.00">mac_unit_v2</text>
<!-- n1 -->
<g id="node1" class="node">
<title>n1</title>
<polygon fill="none" stroke="black" points="54,-89.79 54,-104.71 38.18,-115.25 15.82,-115.25 0,-104.71 0,-89.79 15.82,-79.25 38.18,-79.25 54,-89.79"/>
<text xml:space="preserve" text-anchor="middle" x="27" y="-92.58" font-family="Times,serif" font-size="14.00">a</text>
</g>
<!-- c7 -->
<g id="node4" class="node">
<title>c7</title>
<polygon fill="none" stroke="black" points="90,-45 90,-95.5 193.5,-95.5 193.5,-45 90,-45"/>
<text xml:space="preserve" text-anchor="middle" x="103.25" y="-78.2" font-family="Times,serif" font-size="14.00">A</text>
<polyline fill="none" stroke="black" points="90,-70.25 116.5,-70.25"/>
<text xml:space="preserve" text-anchor="middle" x="103.25" y="-52.95" font-family="Times,serif" font-size="14.00">B</text>
<polyline fill="none" stroke="black" points="116.5,-45 116.5,-95.5"/>
<text xml:space="preserve" text-anchor="middle" x="142.5" y="-74.2" font-family="Times,serif" font-size="14.00">$1</text>
<text xml:space="preserve" text-anchor="middle" x="142.5" y="-56.95" font-family="Times,serif" font-size="14.00">$mul</text>
<polyline fill="none" stroke="black" points="168.5,-45 168.5,-95.5"/>
<text xml:space="preserve" text-anchor="middle" x="181" y="-65.7" font-family="Times,serif" font-size="14.00">Y</text>
</g>
<!-- n1&#45;&gt;c7 -->
<g id="edge1" class="edge">
<title>n1:e&#45;&gt;c7:w</title>
<path fill="none" stroke="black" stroke-width="3" d="M54,-97.25C66.65,-97.25 70.85,-89.5 79,-85.38"/>
<polygon fill="black" stroke="black" stroke-width="3" points="76.6,-89.52 85.57,-83.88 75.05,-82.69 76.6,-89.52"/>
</g>
<!-- n2 -->
<g id="node2" class="node">
<title>n2</title>
<polygon fill="none" stroke="black" points="54,-35.79 54,-50.71 38.18,-61.25 15.82,-61.25 0,-50.71 0,-35.79 15.82,-25.25 38.18,-25.25 54,-35.79"/>
<text xml:space="preserve" text-anchor="middle" x="27" y="-38.58" font-family="Times,serif" font-size="14.00">b</text>
</g>
<!-- n2&#45;&gt;c7 -->
<g id="edge2" class="edge">
<title>n2:e&#45;&gt;c7:w</title>
<path fill="none" stroke="black" stroke-width="3" d="M54,-43.25C66.65,-43.25 70.85,-51 79,-55.12"/>
<polygon fill="black" stroke="black" stroke-width="3" points="75.05,-57.81 85.57,-56.62 76.6,-50.98 75.05,-57.81"/>
</g>
<!-- n3 -->
<g id="node3" class="node">
<title>n3</title>
<polygon fill="none" stroke="black" points="338.08,-62.79 338.08,-77.71 306.28,-88.25 261.3,-88.25 229.5,-77.71 229.5,-62.79 261.3,-52.25 306.28,-52.25 338.08,-62.79"/>
<text xml:space="preserve" text-anchor="middle" x="283.79" y="-65.58" font-family="Times,serif" font-size="14.00">product</text>
</g>
<!-- c7&#45;&gt;n3 -->
<g id="edge3" class="edge">
<title>c7:e&#45;&gt;n3:w</title>
<path fill="none" stroke="black" stroke-width="3" d="M193.5,-70.38C204.88,-70.38 210.18,-70.31 218.05,-70.28"/>
<polygon fill="black" stroke="black" stroke-width="3" points="214.97,-73.78 224.96,-70.26 214.95,-66.78 214.97,-73.78"/>
</g>
</g>
</svg>
