<?xml version="1.0" encoding="UTF-8" standalone="no"?>
<!DOCTYPE svg PUBLIC "-//W3C//DTD SVG 1.1//EN"
 "http://www.w3.org/Graphics/SVG/1.1/DTD/svg11.dtd">
<!-- Generated by graphviz version 14.1.2 (0)
 -->
<!-- Title: mac_unit Pages: 1 -->
<svg width="346pt" height="98pt"
 viewBox="0.00 0.00 346.00 98.00" xmlns="http://www.w3.org/2000/svg" xmlns:xlink="http://www.w3.org/1999/xlink">
<g id="graph0" class="graph" transform="scale(1 1) rotate(0) translate(4 94)">
<title>mac_unit</title>
<polygon fill="white" stroke="none" points="-4,4 -4,-94 342.08,-94 342.08,4 -4,4"/>
<!-- n1 -->
<g id="node1" class="node">
<title>n1</title>
<polygon fill="none" stroke="black" points="54,-64.54 54,-79.46 38.18,-90 15.82,-90 0,-79.46 0,-64.54 15.82,-54 38.18,-54 54,-64.54"/>
<text xml:space="preserve" text-anchor="middle" x="27" y="-67.33" font-family="Times,serif" font-size="14.00">a</text>
</g>
<!-- c7 -->
<g id="node4" class="node">
<title>c7</title>
<polygon fill="none" stroke="black" points="90,-19.75 90,-70.25 193.5,-70.25 193.5,-19.75 90,-19.75"/>
<text xml:space="preserve" text-anchor="middle" x="103.25" y="-52.95" font-family="Times,serif" font-size="14.00">A</text>
<polyline fill="none" stroke="black" points="90,-45 116.5,-45"/>
<text xml:space="preserve" text-anchor="middle" x="103.25" y="-27.7" font-family="Times,serif" font-size="14.00">B</text>
<polyline fill="none" stroke="black" points="116.5,-19.75 116.5,-70.25"/>
<text xml:space="preserve" text-anchor="middle" x="142.5" y="-48.95" font-family="Times,serif" font-size="14.00">$1</text>
<text xml:space="preserve" text-anchor="middle" x="142.5" y="-31.7" font-family="Times,serif" font-size="14.00">$mul</text>
<polyline fill="none" stroke="black" points="168.5,-19.75 168.5,-70.25"/>
<text xml:space="preserve" text-anchor="middle" x="181" y="-40.45" font-family="Times,serif" font-size="14.00">Y</text>
</g>
<!-- n1&#45;&gt;c7 -->
<g id="edge1" class="edge">
<title>n1:e&#45;&gt;c7:w</title>
<path fill="none" stroke="black" stroke-width="3" d="M54,-72C66.65,-72 70.85,-64.25 79,-60.13"/>
<polygon fill="black" stroke="black" stroke-width="3" points="76.6,-64.27 85.57,-58.63 75.05,-57.44 76.6,-64.27"/>
</g>
<!-- n2 -->
<g id="node2" class="node">
<title>n2</title>
<polygon fill="none" stroke="black" points="54,-10.54 54,-25.46 38.18,-36 15.82,-36 0,-25.46 0,-10.54 15.82,0 38.18,0 54,-10.54"/>
<text xml:space="preserve" text-anchor="middle" x="27" y="-13.32" font-family="Times,serif" font-size="14.00">b</text>
</g>
<!-- n2&#45;&gt;c7 -->
<g id="edge2" class="edge">
<title>n2:e&#45;&gt;c7:w</title>
<path fill="none" stroke="black" stroke-width="3" d="M54,-18C66.65,-18 70.85,-25.75 79,-29.87"/>
<polygon fill="black" stroke="black" stroke-width="3" points="75.05,-32.56 85.57,-31.37 76.6,-25.73 75.05,-32.56"/>
</g>
<!-- n3 -->
<g id="node3" class="node">
<title>n3</title>
<polygon fill="none" stroke="black" points="338.08,-37.54 338.08,-52.46 306.28,-63 261.3,-63 229.5,-52.46 229.5,-37.54 261.3,-27 306.28,-27 338.08,-37.54"/>
<text xml:space="preserve" text-anchor="middle" x="283.79" y="-40.33" font-family="Times,serif" font-size="14.00">product</text>
</g>
<!-- c7&#45;&gt;n3 -->
<g id="edge3" class="edge">
<title>c7:e&#45;&gt;n3:w</title>
<path fill="none" stroke="black" stroke-width="3" d="M193.5,-45.12C204.88,-45.12 210.18,-45.06 218.05,-45.03"/>
<polygon fill="black" stroke="black" stroke-width="3" points="214.97,-48.53 224.96,-45.01 214.95,-41.53 214.97,-48.53"/>
</g>
</g>
</svg>
