<?xml version="1.0" encoding="UTF-8" standalone="no"?>
<!DOCTYPE svg PUBLIC "-//W3C//DTD SVG 1.1//EN"
 "http://www.w3.org/Graphics/SVG/1.1/DTD/svg11.dtd">
<!-- Generated by graphviz version 14.1.2 (0)
 -->
<!-- Title: tinymac_top Pages: 1 -->
<svg width="1194pt" height="517pt"
 viewBox="0.00 0.00 1194.00 517.00" xmlns="http://www.w3.org/2000/svg" xmlns:xlink="http://www.w3.org/1999/xlink">
<g id="graph0" class="graph" transform="scale(1 1) rotate(0) translate(4 512.7)">
<title>tinymac_top</title>
<polygon fill="white" stroke="none" points="-4,4 -4,-512.7 1190.09,-512.7 1190.09,4 -4,4"/>
<!-- n1 -->
<g id="node1" class="node">
<title>n1</title>
<polygon fill="none" stroke="black" points="54,-388.54 54,-403.46 38.18,-414 15.82,-414 0,-403.46 0,-388.54 15.82,-378 38.18,-378 54,-388.54"/>
<text xml:space="preserve" text-anchor="middle" x="27" y="-391.32" font-family="Times,serif" font-size="14.00">a0</text>
</g>
<!-- c32 -->
<g id="node23" class="node">
<title>c32</title>
<polygon fill="none" stroke="black" points="90,-328.75 90,-379.25 267,-379.25 267,-328.75 90,-328.75"/>
<text xml:space="preserve" text-anchor="middle" x="102.5" y="-361.95" font-family="Times,serif" font-size="14.00">a</text>
<polyline fill="none" stroke="black" points="90,-354 115,-354"/>
<text xml:space="preserve" text-anchor="middle" x="102.5" y="-336.7" font-family="Times,serif" font-size="14.00">b</text>
<polyline fill="none" stroke="black" points="115,-328.75 115,-379.25"/>
<text xml:space="preserve" text-anchor="middle" x="155.25" y="-357.95" font-family="Times,serif" font-size="14.00">u_mac0</text>
<text xml:space="preserve" text-anchor="middle" x="155.25" y="-340.7" font-family="Times,serif" font-size="14.00">mac_unit</text>
<polyline fill="none" stroke="black" points="195.5,-328.75 195.5,-379.25"/>
<text xml:space="preserve" text-anchor="middle" x="231.25" y="-349.45" font-family="Times,serif" font-size="14.00">product</text>
</g>
<!-- n1&#45;&gt;c32 -->
<g id="edge1" class="edge">
<title>n1:e&#45;&gt;c32:w</title>
<path fill="none" stroke="black" stroke-width="3" d="M54,-396C69.97,-396 70.42,-378.43 79.36,-370.47"/>
<polygon fill="black" stroke="black" stroke-width="3" points="77.51,-374.85 85.73,-368.17 75.13,-368.27 77.51,-374.85"/>
</g>
<!-- n2 -->
<g id="node2" class="node">
<title>n2</title>
<polygon fill="none" stroke="black" points="54,-280.54 54,-295.46 38.18,-306 15.82,-306 0,-295.46 0,-280.54 15.82,-270 38.18,-270 54,-280.54"/>
<text xml:space="preserve" text-anchor="middle" x="27" y="-283.32" font-family="Times,serif" font-size="14.00">a1</text>
</g>
<!-- c33 -->
<g id="node24" class="node">
<title>c33</title>
<polygon fill="none" stroke="black" points="90,-220.75 90,-271.25 267,-271.25 267,-220.75 90,-220.75"/>
<text xml:space="preserve" text-anchor="middle" x="102.5" y="-253.95" font-family="Times,serif" font-size="14.00">a</text>
<polyline fill="none" stroke="black" points="90,-246 115,-246"/>
<text xml:space="preserve" text-anchor="middle" x="102.5" y="-228.7" font-family="Times,serif" font-size="14.00">b</text>
<polyline fill="none" stroke="black" points="115,-220.75 115,-271.25"/>
<text xml:space="preserve" text-anchor="middle" x="155.25" y="-249.95" font-family="Times,serif" font-size="14.00">u_mac1</text>
<text xml:space="preserve" text-anchor="middle" x="155.25" y="-232.7" font-family="Times,serif" font-size="14.00">mac_unit</text>
<polyline fill="none" stroke="black" points="195.5,-220.75 195.5,-271.25"/>
<text xml:space="preserve" text-anchor="middle" x="231.25" y="-241.45" font-family="Times,serif" font-size="14.00">product</text>
</g>
<!-- n2&#45;&gt;c33 -->
<g id="edge19" class="edge">
<title>n2:e&#45;&gt;c33:w</title>
<path fill="none" stroke="black" stroke-width="3" d="M54,-288C69.97,-288 70.42,-270.43 79.36,-262.47"/>
<polygon fill="black" stroke="black" stroke-width="3" points="77.51,-266.85 85.73,-260.17 75.13,-260.27 77.51,-266.85"/>
</g>
<!-- n3 -->
<g id="node3" class="node">
<title>n3</title>
<polygon fill="none" stroke="black" points="54,-172.54 54,-187.46 38.18,-198 15.82,-198 0,-187.46 0,-172.54 15.82,-162 38.18,-162 54,-172.54"/>
<text xml:space="preserve" text-anchor="middle" x="27" y="-175.32" font-family="Times,serif" font-size="14.00">a2</text>
</g>
<!-- c34 -->
<g id="node25" class="node">
<title>c34</title>
<polygon fill="none" stroke="black" points="90,-142.75 90,-193.25 267,-193.25 267,-142.75 90,-142.75"/>
<text xml:space="preserve" text-anchor="middle" x="102.5" y="-175.95" font-family="Times,serif" font-size="14.00">a</text>
<polyline fill="none" stroke="black" points="90,-168 115,-168"/>
<text xml:space="preserve" text-anchor="middle" x="102.5" y="-150.7" font-family="Times,serif" font-size="14.00">b</text>
<polyline fill="none" stroke="black" points="115,-142.75 115,-193.25"/>
<text xml:space="preserve" text-anchor="middle" x="155.25" y="-171.95" font-family="Times,serif" font-size="14.00">u_mac2</text>
<text xml:space="preserve" text-anchor="middle" x="155.25" y="-154.7" font-family="Times,serif" font-size="14.00">mac_unit</text>
<polyline fill="none" stroke="black" points="195.5,-142.75 195.5,-193.25"/>
<text xml:space="preserve" text-anchor="middle" x="231.25" y="-163.45" font-family="Times,serif" font-size="14.00">product</text>
</g>
<!-- n3&#45;&gt;c34 -->
<g id="edge20" class="edge">
<title>n3:e&#45;&gt;c34:w</title>
<path fill="none" stroke="black" stroke-width="3" d="M54,-180C65.38,-180 70.68,-180.32 78.55,-180.5"/>
<polygon fill="black" stroke="black" stroke-width="3" points="75.42,-183.96 85.46,-180.57 75.5,-176.96 75.42,-183.96"/>
</g>
<!-- n4 -->
<g id="node4" class="node">
<title>n4</title>
<polygon fill="none" stroke="black" points="54,-64.54 54,-79.46 38.18,-90 15.82,-90 0,-79.46 0,-64.54 15.82,-54 38.18,-54 54,-64.54"/>
<text xml:space="preserve" text-anchor="middle" x="27" y="-67.33" font-family="Times,serif" font-size="14.00">a3</text>
</g>
<!-- c35 -->
<g id="node26" class="node">
<title>c35</title>
<polygon fill="none" stroke="black" points="90,-34.75 90,-85.25 267,-85.25 267,-34.75 90,-34.75"/>
<text xml:space="preserve" text-anchor="middle" x="102.5" y="-67.95" font-family="Times,serif" font-size="14.00">a</text>
<polyline fill="none" stroke="black" points="90,-60 115,-60"/>
<text xml:space="preserve" text-anchor="middle" x="102.5" y="-42.7" font-family="Times,serif" font-size="14.00">b</text>
<polyline fill="none" stroke="black" points="115,-34.75 115,-85.25"/>
<text xml:space="preserve" text-anchor="middle" x="155.25" y="-63.95" font-family="Times,serif" font-size="14.00">u_mac3</text>
<text xml:space="preserve" text-anchor="middle" x="155.25" y="-46.7" font-family="Times,serif" font-size="14.00">mac_unit</text>
<polyline fill="none" stroke="black" points="195.5,-34.75 195.5,-85.25"/>
<text xml:space="preserve" text-anchor="middle" x="231.25" y="-55.45" font-family="Times,serif" font-size="14.00">product</text>
</g>
<!-- n4&#45;&gt;c35 -->
<g id="edge21" class="edge">
<title>n4:e&#45;&gt;c35:w</title>
<path fill="none" stroke="black" stroke-width="3" d="M54,-72C65.38,-72 70.68,-72.32 78.55,-72.5"/>
<polygon fill="black" stroke="black" stroke-width="3" points="75.42,-75.96 85.46,-72.57 75.5,-68.96 75.42,-75.96"/>
</g>
<!-- n5 -->
<g id="node5" class="node">
<title>n5</title>
<polygon fill="none" stroke="black" points="54,-334.54 54,-349.46 38.18,-360 15.82,-360 0,-349.46 0,-334.54 15.82,-324 38.18,-324 54,-334.54"/>
<text xml:space="preserve" text-anchor="middle" x="27" y="-337.32" font-family="Times,serif" font-size="14.00">b0</text>
</g>
<!-- n5&#45;&gt;c32 -->
<g id="edge22" class="edge">
<title>n5:e&#45;&gt;c32:w</title>
<path fill="none" stroke="black" stroke-width="3" d="M54,-342C65.38,-342 70.68,-341.68 78.55,-341.5"/>
<polygon fill="black" stroke="black" stroke-width="3" points="75.5,-345.04 85.46,-341.43 75.42,-338.04 75.5,-345.04"/>
</g>
<!-- n6 -->
<g id="node6" class="node">
<title>n6</title>
<polygon fill="none" stroke="black" points="54,-226.54 54,-241.46 38.18,-252 15.82,-252 0,-241.46 0,-226.54 15.82,-216 38.18,-216 54,-226.54"/>
<text xml:space="preserve" text-anchor="middle" x="27" y="-229.32" font-family="Times,serif" font-size="14.00">b1</text>
</g>
<!-- n6&#45;&gt;c33 -->
<g id="edge23" class="edge">
<title>n6:e&#45;&gt;c33:w</title>
<path fill="none" stroke="black" stroke-width="3" d="M54,-234C65.38,-234 70.68,-233.68 78.55,-233.5"/>
<polygon fill="black" stroke="black" stroke-width="3" points="75.5,-237.04 85.46,-233.43 75.42,-230.04 75.5,-237.04"/>
</g>
<!-- n7 -->
<g id="node7" class="node">
<title>n7</title>
<polygon fill="none" stroke="black" points="54,-118.54 54,-133.46 38.18,-144 15.82,-144 0,-133.46 0,-118.54 15.82,-108 38.18,-108 54,-118.54"/>
<text xml:space="preserve" text-anchor="middle" x="27" y="-121.33" font-family="Times,serif" font-size="14.00">b2</text>
</g>
<!-- n7&#45;&gt;c34 -->
<g id="edge24" class="edge">
<title>n7:e&#45;&gt;c34:w</title>
<path fill="none" stroke="black" stroke-width="3" d="M54,-126C69.97,-126 70.42,-143.57 79.36,-151.53"/>
<polygon fill="black" stroke="black" stroke-width="3" points="75.13,-153.73 85.73,-153.83 77.51,-147.15 75.13,-153.73"/>
</g>
<!-- n8 -->
<g id="node8" class="node">
<title>n8</title>
<polygon fill="none" stroke="black" points="54,-10.54 54,-25.46 38.18,-36 15.82,-36 0,-25.46 0,-10.54 15.82,0 38.18,0 54,-10.54"/>
<text xml:space="preserve" text-anchor="middle" x="27" y="-13.32" font-family="Times,serif" font-size="14.00">b3</text>
</g>
<!-- n8&#45;&gt;c35 -->
<g id="edge25" class="edge">
<title>n8:e&#45;&gt;c35:w</title>
<path fill="none" stroke="black" stroke-width="3" d="M54,-18C69.97,-18 70.42,-35.57 79.36,-43.53"/>
<polygon fill="black" stroke="black" stroke-width="3" points="75.13,-45.73 85.73,-45.83 77.51,-39.15 75.13,-45.73"/>
</g>
<!-- n9 -->
<g id="node9" class="node">
<title>n9</title>
<polygon fill="none" stroke="black" points="370.01,-454.54 370.01,-469.46 353.88,-480 331.08,-480 314.96,-469.46 314.96,-454.54 331.08,-444 353.88,-444 370.01,-454.54"/>
<text xml:space="preserve" text-anchor="middle" x="342.48" y="-457.32" font-family="Times,serif" font-size="14.00">clk</text>
</g>
<!-- c25 -->
<g id="node20" class="node">
<title>c25</title>
<polygon fill="none" stroke="black" points="919.52,-292.5 919.52,-393.5 1062.02,-393.5 1062.02,-292.5 919.52,-292.5"/>
<text xml:space="preserve" text-anchor="middle" x="947.02" y="-376.2" font-family="Times,serif" font-size="14.00">ARST</text>
<polyline fill="none" stroke="black" points="919.52,-368.25 974.52,-368.25"/>
<text xml:space="preserve" text-anchor="middle" x="947.02" y="-350.95" font-family="Times,serif" font-size="14.00">CLK</text>
<polyline fill="none" stroke="black" points="919.52,-343 974.52,-343"/>
<text xml:space="preserve" text-anchor="middle" x="947.02" y="-325.7" font-family="Times,serif" font-size="14.00">D</text>
<polyline fill="none" stroke="black" points="919.52,-317.75 974.52,-317.75"/>
<text xml:space="preserve" text-anchor="middle" x="947.02" y="-300.45" font-family="Times,serif" font-size="14.00">EN</text>
<polyline fill="none" stroke="black" points="974.52,-292.5 974.52,-393.5"/>
<text xml:space="preserve" text-anchor="middle" x="1004.64" y="-346.95" font-family="Times,serif" font-size="14.00">$47</text>
<text xml:space="preserve" text-anchor="middle" x="1004.64" y="-329.7" font-family="Times,serif" font-size="14.00">$adffe</text>
<polyline fill="none" stroke="black" points="1034.77,-292.5 1034.77,-393.5"/>
<text xml:space="preserve" text-anchor="middle" x="1048.39" y="-338.7" font-family="Times,serif" font-size="14.00">Q</text>
</g>
<!-- n9&#45;&gt;c25 -->
<g id="edge26" class="edge">
<title>n9:e&#45;&gt;c25:w</title>
<path fill="none" stroke="black" d="M371.26,-462C599.04,-462 697.01,-576.76 883.52,-446 915.18,-423.8 884.41,-369 908.51,-357.69"/>
<polygon fill="black" stroke="black" points="908.84,-361.19 918.03,-355.9 907.56,-354.31 908.84,-361.19"/>
</g>
<!-- c28 -->
<g id="node22" class="node">
<title>c28</title>
<polygon fill="none" stroke="black" points="417.96,-361.12 417.96,-436.88 666.96,-436.88 666.96,-361.12 417.96,-361.12"/>
<text xml:space="preserve" text-anchor="middle" x="443.96" y="-419.57" font-family="Times,serif" font-size="14.00">clk</text>
<polyline fill="none" stroke="black" points="417.96,-411.62 469.96,-411.62"/>
<text xml:space="preserve" text-anchor="middle" x="443.96" y="-394.32" font-family="Times,serif" font-size="14.00">rst_n</text>
<polyline fill="none" stroke="black" points="417.96,-386.38 469.96,-386.38"/>
<text xml:space="preserve" text-anchor="middle" x="443.96" y="-369.07" font-family="Times,serif" font-size="14.00">start</text>
<polyline fill="none" stroke="black" points="469.96,-361.12 469.96,-436.88"/>
<text xml:space="preserve" text-anchor="middle" x="527.46" y="-402.95" font-family="Times,serif" font-size="14.00">u_control_fsm</text>
<text xml:space="preserve" text-anchor="middle" x="527.46" y="-385.7" font-family="Times,serif" font-size="14.00">control_fsm</text>
<polyline fill="none" stroke="black" points="584.96,-361.12 584.96,-436.88"/>
<text xml:space="preserve" text-anchor="middle" x="625.96" y="-413.57" font-family="Times,serif" font-size="14.00">done</text>
<polyline fill="none" stroke="black" points="584.96,-399.62 666.96,-399.62"/>
<text xml:space="preserve" text-anchor="middle" x="625.96" y="-375.82" font-family="Times,serif" font-size="14.00">result_en</text>
</g>
<!-- n9&#45;&gt;c28 -->
<g id="edge27" class="edge">
<title>n9:e&#45;&gt;c28:w</title>
<path fill="none" stroke="black" d="M371.26,-462C393.57,-462 392.57,-435.62 407.23,-426.96"/>
<polygon fill="black" stroke="black" points="407.66,-430.47 416.5,-424.62 405.94,-423.68 407.66,-430.47"/>
</g>
<!-- n10 -->
<g id="node10" class="node">
<title>n10</title>
<polygon fill="none" stroke="black" points="831.58,-411.54 831.58,-426.46 809.12,-437 777.36,-437 754.9,-426.46 754.9,-411.54 777.36,-401 809.12,-401 831.58,-411.54"/>
<text xml:space="preserve" text-anchor="middle" x="793.24" y="-414.32" font-family="Times,serif" font-size="14.00">done</text>
</g>
<!-- n11 -->
<g id="node11" class="node">
<title>n11</title>
<polygon fill="none" stroke="black" points="342.48,-312 308.75,-294 342.48,-276 376.21,-294 342.48,-312"/>
<text xml:space="preserve" text-anchor="middle" x="342.48" y="-289.32" font-family="Times,serif" font-size="14.00">p0</text>
</g>
<!-- c27 -->
<g id="node21" class="node">
<title>c27</title>
<polygon fill="none" stroke="black" points="447.96,-177.5 447.96,-278.5 636.96,-278.5 636.96,-177.5 447.96,-177.5"/>
<text xml:space="preserve" text-anchor="middle" x="464.96" y="-261.2" font-family="Times,serif" font-size="14.00">p0</text>
<polyline fill="none" stroke="black" points="447.96,-253.25 481.96,-253.25"/>
<text xml:space="preserve" text-anchor="middle" x="464.96" y="-235.95" font-family="Times,serif" font-size="14.00">p1</text>
<polyline fill="none" stroke="black" points="447.96,-228 481.96,-228"/>
<text xml:space="preserve" text-anchor="middle" x="464.96" y="-210.7" font-family="Times,serif" font-size="14.00">p2</text>
<polyline fill="none" stroke="black" points="447.96,-202.75 481.96,-202.75"/>
<text xml:space="preserve" text-anchor="middle" x="464.96" y="-185.45" font-family="Times,serif" font-size="14.00">p3</text>
<polyline fill="none" stroke="black" points="481.96,-177.5 481.96,-278.5"/>
<text xml:space="preserve" text-anchor="middle" x="536.46" y="-231.95" font-family="Times,serif" font-size="14.00">u_adder_tree</text>
<text xml:space="preserve" text-anchor="middle" x="536.46" y="-214.7" font-family="Times,serif" font-size="14.00">adder_tree</text>
<polyline fill="none" stroke="black" points="590.96,-177.5 590.96,-278.5"/>
<text xml:space="preserve" text-anchor="middle" x="613.96" y="-223.7" font-family="Times,serif" font-size="14.00">sum</text>
</g>
<!-- n11&#45;&gt;c27 -->
<g id="edge4" class="edge">
<title>n11:e&#45;&gt;c27:w</title>
<path fill="none" stroke="black" stroke-width="3" d="M378.23,-294C406.98,-294 412.75,-272.66 435.58,-267.16"/>
<polygon fill="black" stroke="black" stroke-width="3" points="432.91,-270.98 442.45,-266.38 432.12,-264.02 432.91,-270.98"/>
</g>
<!-- n12 -->
<g id="node12" class="node">
<title>n12</title>
<polygon fill="none" stroke="black" points="342.48,-258 308.75,-240 342.48,-222 376.21,-240 342.48,-258"/>
<text xml:space="preserve" text-anchor="middle" x="342.48" y="-235.32" font-family="Times,serif" font-size="14.00">p1</text>
</g>
<!-- n12&#45;&gt;c27 -->
<g id="edge6" class="edge">
<title>n12:e&#45;&gt;c27:w</title>
<path fill="none" stroke="black" stroke-width="3" d="M378.23,-240C404.6,-240 413.9,-240.47 435.6,-240.59"/>
<polygon fill="black" stroke="black" stroke-width="3" points="432.41,-244.08 442.42,-240.61 432.43,-237.08 432.41,-244.08"/>
</g>
<!-- n13 -->
<g id="node13" class="node">
<title>n13</title>
<polygon fill="none" stroke="black" points="342.48,-192 308.75,-174 342.48,-156 376.21,-174 342.48,-192"/>
<text xml:space="preserve" text-anchor="middle" x="342.48" y="-169.32" font-family="Times,serif" font-size="14.00">p2</text>
</g>
<!-- n13&#45;&gt;c27 -->
<g id="edge8" class="edge">
<title>n13:e&#45;&gt;c27:w</title>
<path fill="none" stroke="black" stroke-width="3" d="M378.23,-174C409.71,-174 411.39,-206.25 435.88,-213.8"/>
<polygon fill="black" stroke="black" stroke-width="3" points="432.08,-216.8 442.47,-214.74 433.06,-209.87 432.08,-216.8"/>
</g>
<!-- n14 -->
<g id="node14" class="node">
<title>n14</title>
<polygon fill="none" stroke="black" points="342.48,-111 308.75,-93 342.48,-75 376.21,-93 342.48,-111"/>
<text xml:space="preserve" text-anchor="middle" x="342.48" y="-88.33" font-family="Times,serif" font-size="14.00">p3</text>
</g>
<!-- n14&#45;&gt;c27 -->
<g id="edge10" class="edge">
<title>n14:e&#45;&gt;c27:w</title>
<path fill="none" stroke="black" stroke-width="3" d="M378.23,-93C426.77,-93 399.55,-174.84 435.67,-188.27"/>
<polygon fill="black" stroke="black" stroke-width="3" points="432.05,-191.22 442.48,-189.39 433.18,-184.32 432.05,-191.22"/>
</g>
<!-- n15 -->
<g id="node15" class="node">
<title>n15</title>
<polygon fill="none" stroke="black" points="1186.09,-335.54 1186.09,-350.46 1160.3,-361 1123.81,-361 1098.02,-350.46 1098.02,-335.54 1123.81,-325 1160.3,-325 1186.09,-335.54"/>
<text xml:space="preserve" text-anchor="middle" x="1142.05" y="-338.32" font-family="Times,serif" font-size="14.00">result</text>
</g>
<!-- n16 -->
<g id="node16" class="node">
<title>n16</title>
<polygon fill="none" stroke="black" points="793.24,-383 711.89,-365 793.24,-347 874.59,-365 793.24,-383"/>
<text xml:space="preserve" text-anchor="middle" x="793.24" y="-360.32" font-family="Times,serif" font-size="14.00">result_en</text>
</g>
<!-- n16&#45;&gt;c25 -->
<g id="edge13" class="edge">
<title>n16:e&#45;&gt;c25:w</title>
<path fill="none" stroke="black" d="M877.61,-365C905.53,-365 892.42,-320.78 908.8,-308.34"/>
<polygon fill="black" stroke="black" points="909.5,-311.79 918.07,-305.56 907.48,-305.09 909.5,-311.79"/>
</g>
<!-- n17 -->
<g id="node17" class="node">
<title>n17</title>
<polygon fill="none" stroke="black" points="381.96,-394.54 381.96,-409.46 358.84,-420 326.13,-420 303,-409.46 303,-394.54 326.13,-384 358.84,-384 381.96,-394.54"/>
<text xml:space="preserve" text-anchor="middle" x="342.48" y="-397.32" font-family="Times,serif" font-size="14.00">rst_n</text>
</g>
<!-- n17&#45;&gt;c25 -->
<g id="edge14" class="edge">
<title>n17:e&#45;&gt;c25:w</title>
<path fill="none" stroke="black" d="M381.96,-402C409.35,-402 393.91,-365.08 417.96,-352 529.38,-291.43 576.18,-341.11 702.96,-338 783.19,-336.03 810.78,-304.1 883.52,-338 901.66,-346.46 897.8,-369.07 908.57,-377.58"/>
<polygon fill="black" stroke="black" points="907.48,-380.9 918.07,-380.44 909.5,-374.2 907.48,-380.9"/>
</g>
<!-- n17&#45;&gt;c28 -->
<g id="edge15" class="edge">
<title>n17:e&#45;&gt;c28:w</title>
<path fill="none" stroke="black" d="M381.96,-402C393.38,-402 398.64,-400.48 406.5,-399.61"/>
<polygon fill="black" stroke="black" points="406.65,-403.1 416.45,-399.08 406.28,-396.11 406.65,-403.1"/>
</g>
<!-- n18 -->
<g id="node18" class="node">
<title>n18</title>
<polygon fill="none" stroke="black" points="380.83,-340.54 380.83,-355.46 358.36,-366 326.6,-366 304.14,-355.46 304.14,-340.54 326.6,-330 358.36,-330 380.83,-340.54"/>
<text xml:space="preserve" text-anchor="middle" x="342.48" y="-343.32" font-family="Times,serif" font-size="14.00">start</text>
</g>
<!-- n18&#45;&gt;c28 -->
<g id="edge16" class="edge">
<title>n18:e&#45;&gt;c28:w</title>
<path fill="none" stroke="black" d="M381.96,-348C397.03,-348 398.6,-363.09 407.33,-370.17"/>
<polygon fill="black" stroke="black" points="405.94,-373.39 416.53,-373.27 408.17,-366.76 405.94,-373.39"/>
</g>
<!-- n19 -->
<g id="node19" class="node">
<title>n19</title>
<polygon fill="none" stroke="black" points="793.24,-290 702.96,-272 793.24,-254 883.52,-272 793.24,-290"/>
<text xml:space="preserve" text-anchor="middle" x="793.24" y="-267.32" font-family="Times,serif" font-size="14.00">sum_comb</text>
</g>
<!-- n19&#45;&gt;c25 -->
<g id="edge18" class="edge">
<title>n19:e&#45;&gt;c25:w</title>
<path fill="none" stroke="black" stroke-width="3" d="M883.52,-272C909.24,-272 895.48,-313.56 908.87,-326.54"/>
<polygon fill="black" stroke="black" stroke-width="3" points="904.65,-328.75 915.24,-328.84 907.02,-322.16 904.65,-328.75"/>
</g>
<!-- c25&#45;&gt;n15 -->
<g id="edge11" class="edge">
<title>c25:e&#45;&gt;n15:w</title>
<path fill="none" stroke="black" stroke-width="3" d="M1062.02,-343.38C1073.39,-343.38 1078.7,-343.19 1086.57,-343.08"/>
<polygon fill="black" stroke="black" stroke-width="3" points="1083.5,-346.6 1093.48,-343.03 1083.45,-339.6 1083.5,-346.6"/>
</g>
<!-- c27&#45;&gt;n19 -->
<g id="edge17" class="edge">
<title>c27:e&#45;&gt;n19:w</title>
<path fill="none" stroke="black" stroke-width="3" d="M637.96,-228.38C668.41,-228.38 668.7,-261.78 691.61,-270.13"/>
<polygon fill="black" stroke="black" stroke-width="3" points="688.05,-273.08 698.48,-271.26 689.19,-266.18 688.05,-273.08"/>
</g>
<!-- c28&#45;&gt;n10 -->
<g id="edge2" class="edge">
<title>c28:e&#45;&gt;n10:w</title>
<path fill="none" stroke="black" d="M666.96,-418.25C701.38,-418.25 712.71,-418.85 742.26,-418.98"/>
<polygon fill="black" stroke="black" points="742.02,-422.48 752.02,-419 742.03,-415.48 742.02,-422.48"/>
</g>
<!-- c28&#45;&gt;n16 -->
<g id="edge12" class="edge">
<title>c28:e&#45;&gt;n16:w</title>
<path fill="none" stroke="black" d="M666.96,-380.5C682.32,-380.5 687.11,-371.23 697.68,-367.03"/>
<polygon fill="black" stroke="black" points="698.16,-370.5 707.38,-365.27 696.91,-363.61 698.16,-370.5"/>
</g>
<!-- c32&#45;&gt;n11 -->
<g id="edge3" class="edge">
<title>c32:e&#45;&gt;n11:w</title>
<path fill="none" stroke="black" stroke-width="3" d="M267,-354.12C294.28,-354.12 280.69,-310.52 295.83,-297.58"/>
<polygon fill="black" stroke="black" stroke-width="3" points="294.01,-301.86 302.42,-295.42 291.83,-295.21 294.01,-301.86"/>
</g>
<!-- c33&#45;&gt;n12 -->
<g id="edge5" class="edge">
<title>c33:e&#45;&gt;n12:w</title>
<path fill="none" stroke="black" stroke-width="3" d="M267,-246.12C280.4,-246.12 286,-242.68 295.5,-240.96"/>
<polygon fill="black" stroke="black" stroke-width="3" points="292.55,-244.72 302.21,-240.39 291.95,-237.75 292.55,-244.72"/>
</g>
<!-- c34&#45;&gt;n13 -->
<g id="edge7" class="edge">
<title>c34:e&#45;&gt;n13:w</title>
<path fill="none" stroke="black" stroke-width="3" d="M267,-168.12C280.39,-168.12 286,-171.43 295.51,-173.08"/>
<polygon fill="black" stroke="black" stroke-width="3" points="291.96,-176.3 302.21,-173.63 292.53,-169.33 291.96,-176.3"/>
</g>
<!-- c35&#45;&gt;n14 -->
<g id="edge9" class="edge">
<title>c35:e&#45;&gt;n14:w</title>
<path fill="none" stroke="black" stroke-width="3" d="M267,-60.12C285.27,-60.12 285.1,-81 295.88,-89.48"/>
<polygon fill="black" stroke="black" stroke-width="3" points="291.83,-91.85 302.42,-91.6 293.98,-85.19 291.83,-91.85"/>
</g>
</g>
</svg>
