<?xml version="1.0" encoding="UTF-8" standalone="no"?>
<!DOCTYPE svg PUBLIC "-//W3C//DTD SVG 1.1//EN"
 "http://www.w3.org/Graphics/SVG/1.1/DTD/svg11.dtd">
<!-- Generated by graphviz version 14.1.2 (0)
 -->
<!-- Title: tinymac_top_v2 Pages: 1 -->
<svg width="1730pt" height="1044pt"
 viewBox="0.00 0.00 1730.00 1044.00" xmlns="http://www.w3.org/2000/svg" xmlns:xlink="http://www.w3.org/1999/xlink">
<g id="graph0" class="graph" transform="scale(1 1) rotate(0) translate(4 1040.25)">
<title>tinymac_top_v2</title>
<polygon fill="white" stroke="none" points="-4,4 -4,-1040.25 1726.29,-1040.25 1726.29,4 -4,4"/>
<text xml:space="preserve" text-anchor="middle" x="861.15" y="-7.95" font-family="Times,serif" font-size="14.00">tinymac_top_v2</text>
<!-- n1 -->
<g id="node1" class="node">
<title>n1</title>
<polygon fill="none" stroke="black" points="66.48,-305.79 66.48,-320.71 50.67,-331.25 28.3,-331.25 12.48,-320.71 12.48,-305.79 28.3,-295.25 50.67,-295.25 66.48,-305.79"/>
<text xml:space="preserve" text-anchor="middle" x="39.48" y="-308.57" font-family="Times,serif" font-size="14.00">a0</text>
</g>
<!-- c45 -->
<g id="node32" class="node">
<title>c45</title>
<polygon fill="none" stroke="black" points="157.71,-242 157.71,-292.5 358.71,-292.5 358.71,-242 157.71,-242"/>
<text xml:space="preserve" text-anchor="middle" x="170.21" y="-275.2" font-family="Times,serif" font-size="14.00">a</text>
<polyline fill="none" stroke="black" points="157.71,-267.25 182.71,-267.25"/>
<text xml:space="preserve" text-anchor="middle" x="170.21" y="-249.95" font-family="Times,serif" font-size="14.00">b</text>
<polyline fill="none" stroke="black" points="182.71,-242 182.71,-292.5"/>
<text xml:space="preserve" text-anchor="middle" x="234.96" y="-271.2" font-family="Times,serif" font-size="14.00">u_mac0</text>
<text xml:space="preserve" text-anchor="middle" x="234.96" y="-253.95" font-family="Times,serif" font-size="14.00">mac_unit_v2</text>
<polyline fill="none" stroke="black" points="287.21,-242 287.21,-292.5"/>
<text xml:space="preserve" text-anchor="middle" x="322.96" y="-262.7" font-family="Times,serif" font-size="14.00">product</text>
</g>
<!-- n1&#45;&gt;c45 -->
<g id="edge1" class="edge">
<title>n1:e&#45;&gt;c45:w</title>
<path fill="none" stroke="black" stroke-width="3" d="M67.74,-313.25C105.85,-313.25 113.24,-286.08 145.35,-280.77"/>
<polygon fill="black" stroke="black" stroke-width="3" points="142.49,-284.5 152.19,-280.23 141.94,-277.52 142.49,-284.5"/>
</g>
<!-- n2 -->
<g id="node2" class="node">
<title>n2</title>
<polygon fill="none" stroke="black" points="66.48,-1010.79 66.48,-1025.71 50.67,-1036.25 28.3,-1036.25 12.48,-1025.71 12.48,-1010.79 28.3,-1000.25 50.67,-1000.25 66.48,-1010.79"/>
<text xml:space="preserve" text-anchor="middle" x="39.48" y="-1013.58" font-family="Times,serif" font-size="14.00">a1</text>
</g>
<!-- c46 -->
<g id="node33" class="node">
<title>c46</title>
<polygon fill="none" stroke="black" points="157.71,-966 157.71,-1016.5 358.71,-1016.5 358.71,-966 157.71,-966"/>
<text xml:space="preserve" text-anchor="middle" x="170.21" y="-999.2" font-family="Times,serif" font-size="14.00">a</text>
<polyline fill="none" stroke="black" points="157.71,-991.25 182.71,-991.25"/>
<text xml:space="preserve" text-anchor="middle" x="170.21" y="-973.95" font-family="Times,serif" font-size="14.00">b</text>
<polyline fill="none" stroke="black" points="182.71,-966 182.71,-1016.5"/>
<text xml:space="preserve" text-anchor="middle" x="234.96" y="-995.2" font-family="Times,serif" font-size="14.00">u_mac1</text>
<text xml:space="preserve" text-anchor="middle" x="234.96" y="-977.95" font-family="Times,serif" font-size="14.00">mac_unit_v2</text>
<polyline fill="none" stroke="black" points="287.21,-966 287.21,-1016.5"/>
<text xml:space="preserve" text-anchor="middle" x="322.96" y="-986.7" font-family="Times,serif" font-size="14.00">product</text>
</g>
<!-- n2&#45;&gt;c46 -->
<g id="edge24" class="edge">
<title>n2:e&#45;&gt;c46:w</title>
<path fill="none" stroke="black" stroke-width="3" d="M67.74,-1018.25C103.73,-1018.25 114.53,-1006.65 145.41,-1004.29"/>
<polygon fill="black" stroke="black" stroke-width="3" points="142.31,-1007.91 152.18,-1004.04 142.06,-1000.91 142.31,-1007.91"/>
</g>
<!-- n3 -->
<g id="node3" class="node">
<title>n3</title>
<polygon fill="none" stroke="black" points="66.48,-89.79 66.48,-104.71 50.67,-115.25 28.3,-115.25 12.48,-104.71 12.48,-89.79 28.3,-79.25 50.67,-79.25 66.48,-89.79"/>
<text xml:space="preserve" text-anchor="middle" x="39.48" y="-92.58" font-family="Times,serif" font-size="14.00">a2</text>
</g>
<!-- c47 -->
<g id="node34" class="node">
<title>c47</title>
<polygon fill="none" stroke="black" points="157.71,-60 157.71,-110.5 358.71,-110.5 358.71,-60 157.71,-60"/>
<text xml:space="preserve" text-anchor="middle" x="170.21" y="-93.2" font-family="Times,serif" font-size="14.00">a</text>
<polyline fill="none" stroke="black" points="157.71,-85.25 182.71,-85.25"/>
<text xml:space="preserve" text-anchor="middle" x="170.21" y="-67.95" font-family="Times,serif" font-size="14.00">b</text>
<polyline fill="none" stroke="black" points="182.71,-60 182.71,-110.5"/>
<text xml:space="preserve" text-anchor="middle" x="234.96" y="-89.2" font-family="Times,serif" font-size="14.00">u_mac2</text>
<text xml:space="preserve" text-anchor="middle" x="234.96" y="-71.95" font-family="Times,serif" font-size="14.00">mac_unit_v2</text>
<polyline fill="none" stroke="black" points="287.21,-60 287.21,-110.5"/>
<text xml:space="preserve" text-anchor="middle" x="322.96" y="-80.7" font-family="Times,serif" font-size="14.00">product</text>
</g>
<!-- n3&#45;&gt;c47 -->
<g id="edge37" class="edge">
<title>n3:e&#45;&gt;c47:w</title>
<path fill="none" stroke="black" stroke-width="3" d="M67.74,-97.25C103.27,-97.25 114.85,-97.75 145.52,-97.86"/>
<polygon fill="black" stroke="black" stroke-width="3" points="142.17,-101.35 152.17,-97.87 142.18,-94.35 142.17,-101.35"/>
</g>
<!-- n4 -->
<g id="node4" class="node">
<title>n4</title>
<polygon fill="none" stroke="black" points="66.48,-197.79 66.48,-212.71 50.67,-223.25 28.3,-223.25 12.48,-212.71 12.48,-197.79 28.3,-187.25 50.67,-187.25 66.48,-197.79"/>
<text xml:space="preserve" text-anchor="middle" x="39.48" y="-200.57" font-family="Times,serif" font-size="14.00">a3</text>
</g>
<!-- c48 -->
<g id="node35" class="node">
<title>c48</title>
<polygon fill="none" stroke="black" points="157.71,-168 157.71,-218.5 358.71,-218.5 358.71,-168 157.71,-168"/>
<text xml:space="preserve" text-anchor="middle" x="170.21" y="-201.2" font-family="Times,serif" font-size="14.00">a</text>
<polyline fill="none" stroke="black" points="157.71,-193.25 182.71,-193.25"/>
<text xml:space="preserve" text-anchor="middle" x="170.21" y="-175.95" font-family="Times,serif" font-size="14.00">b</text>
<polyline fill="none" stroke="black" points="182.71,-168 182.71,-218.5"/>
<text xml:space="preserve" text-anchor="middle" x="234.96" y="-197.2" font-family="Times,serif" font-size="14.00">u_mac3</text>
<text xml:space="preserve" text-anchor="middle" x="234.96" y="-179.95" font-family="Times,serif" font-size="14.00">mac_unit_v2</text>
<polyline fill="none" stroke="black" points="287.21,-168 287.21,-218.5"/>
<text xml:space="preserve" text-anchor="middle" x="322.96" y="-188.7" font-family="Times,serif" font-size="14.00">product</text>
</g>
<!-- n4&#45;&gt;c48 -->
<g id="edge38" class="edge">
<title>n4:e&#45;&gt;c48:w</title>
<path fill="none" stroke="black" stroke-width="3" d="M67.74,-205.25C103.27,-205.25 114.85,-205.75 145.52,-205.86"/>
<polygon fill="black" stroke="black" stroke-width="3" points="142.17,-209.35 152.17,-205.87 142.18,-202.35 142.17,-209.35"/>
</g>
<!-- n5 -->
<g id="node5" class="node">
<title>n5</title>
<polygon fill="none" stroke="black" points="66.48,-251.79 66.48,-266.71 50.67,-277.25 28.3,-277.25 12.48,-266.71 12.48,-251.79 28.3,-241.25 50.67,-241.25 66.48,-251.79"/>
<text xml:space="preserve" text-anchor="middle" x="39.48" y="-254.57" font-family="Times,serif" font-size="14.00">b0</text>
</g>
<!-- n5&#45;&gt;c45 -->
<g id="edge39" class="edge">
<title>n5:e&#45;&gt;c45:w</title>
<path fill="none" stroke="black" stroke-width="3" d="M67.74,-259.25C103.31,-259.25 114.82,-255.52 145.51,-254.76"/>
<polygon fill="black" stroke="black" stroke-width="3" points="142.22,-258.3 152.17,-254.68 142.13,-251.3 142.22,-258.3"/>
</g>
<!-- n6 -->
<g id="node6" class="node">
<title>n6</title>
<polygon fill="none" stroke="black" points="66.48,-956.79 66.48,-971.71 50.67,-982.25 28.3,-982.25 12.48,-971.71 12.48,-956.79 28.3,-946.25 50.67,-946.25 66.48,-956.79"/>
<text xml:space="preserve" text-anchor="middle" x="39.48" y="-959.58" font-family="Times,serif" font-size="14.00">b1</text>
</g>
<!-- n6&#45;&gt;c46 -->
<g id="edge40" class="edge">
<title>n6:e&#45;&gt;c46:w</title>
<path fill="none" stroke="black" stroke-width="3" d="M67.74,-964.25C103.73,-964.25 114.53,-975.85 145.41,-978.21"/>
<polygon fill="black" stroke="black" stroke-width="3" points="142.06,-981.59 152.18,-978.46 142.31,-974.59 142.06,-981.59"/>
</g>
<!-- n7 -->
<g id="node7" class="node">
<title>n7</title>
<polygon fill="none" stroke="black" points="66.48,-35.79 66.48,-50.71 50.67,-61.25 28.3,-61.25 12.48,-50.71 12.48,-35.79 28.3,-25.25 50.67,-25.25 66.48,-35.79"/>
<text xml:space="preserve" text-anchor="middle" x="39.48" y="-38.58" font-family="Times,serif" font-size="14.00">b2</text>
</g>
<!-- n7&#45;&gt;c47 -->
<g id="edge41" class="edge">
<title>n7:e&#45;&gt;c47:w</title>
<path fill="none" stroke="black" stroke-width="3" d="M67.74,-43.25C105.31,-43.25 113.62,-67.17 145.48,-71.84"/>
<polygon fill="black" stroke="black" stroke-width="3" points="141.97,-75.1 152.19,-72.31 142.45,-68.12 141.97,-75.1"/>
</g>
<!-- n8 -->
<g id="node8" class="node">
<title>n8</title>
<polygon fill="none" stroke="black" points="66.48,-143.79 66.48,-158.71 50.67,-169.25 28.3,-169.25 12.48,-158.71 12.48,-143.79 28.3,-133.25 50.67,-133.25 66.48,-143.79"/>
<text xml:space="preserve" text-anchor="middle" x="39.48" y="-146.57" font-family="Times,serif" font-size="14.00">b3</text>
</g>
<!-- n8&#45;&gt;c48 -->
<g id="edge42" class="edge">
<title>n8:e&#45;&gt;c48:w</title>
<path fill="none" stroke="black" stroke-width="3" d="M67.74,-151.25C105.31,-151.25 113.62,-175.17 145.48,-179.84"/>
<polygon fill="black" stroke="black" stroke-width="3" points="141.97,-183.1 152.19,-180.31 142.45,-176.12 141.97,-183.1"/>
</g>
<!-- n9 -->
<g id="node9" class="node">
<title>n9</title>
<polygon fill="none" stroke="black" points="67.01,-780.79 67.01,-795.71 50.88,-806.25 28.08,-806.25 11.96,-795.71 11.96,-780.79 28.08,-770.25 50.88,-770.25 67.01,-780.79"/>
<text xml:space="preserve" text-anchor="middle" x="39.48" y="-783.58" font-family="Times,serif" font-size="14.00">clk</text>
</g>
<!-- c30 -->
<g id="node25" class="node">
<title>c30</title>
<polygon fill="none" stroke="black" points="662.94,-579.75 662.94,-680.75 805.44,-680.75 805.44,-579.75 662.94,-579.75"/>
<text xml:space="preserve" text-anchor="middle" x="690.44" y="-663.45" font-family="Times,serif" font-size="14.00">ARST</text>
<polyline fill="none" stroke="black" points="662.94,-655.5 717.94,-655.5"/>
<text xml:space="preserve" text-anchor="middle" x="690.44" y="-638.2" font-family="Times,serif" font-size="14.00">CLK</text>
<polyline fill="none" stroke="black" points="662.94,-630.25 717.94,-630.25"/>
<text xml:space="preserve" text-anchor="middle" x="690.44" y="-612.95" font-family="Times,serif" font-size="14.00">D</text>
<polyline fill="none" stroke="black" points="662.94,-605 717.94,-605"/>
<text xml:space="preserve" text-anchor="middle" x="690.44" y="-587.7" font-family="Times,serif" font-size="14.00">EN</text>
<polyline fill="none" stroke="black" points="717.94,-579.75 717.94,-680.75"/>
<text xml:space="preserve" text-anchor="middle" x="748.07" y="-634.2" font-family="Times,serif" font-size="14.00">$85</text>
<text xml:space="preserve" text-anchor="middle" x="748.07" y="-616.95" font-family="Times,serif" font-size="14.00">$adffe</text>
<polyline fill="none" stroke="black" points="778.19,-579.75 778.19,-680.75"/>
<text xml:space="preserve" text-anchor="middle" x="791.82" y="-625.95" font-family="Times,serif" font-size="14.00">Q</text>
</g>
<!-- n9&#45;&gt;c30 -->
<g id="edge43" class="edge">
<title>n9:e&#45;&gt;c30:w</title>
<path fill="none" stroke="black" d="M68.26,-788.25C192.42,-788.25 529.19,-859.8 626.94,-783.25 674.19,-746.25 608.75,-656.35 651.66,-644.23"/>
<polygon fill="black" stroke="black" points="651.93,-647.73 661.44,-643.06 651.1,-640.78 651.93,-647.73"/>
</g>
<!-- c31 -->
<g id="node26" class="node">
<title>c31</title>
<polygon fill="none" stroke="black" points="662.94,-699.75 662.94,-800.75 805.44,-800.75 805.44,-699.75 662.94,-699.75"/>
<text xml:space="preserve" text-anchor="middle" x="690.44" y="-783.45" font-family="Times,serif" font-size="14.00">ARST</text>
<polyline fill="none" stroke="black" points="662.94,-775.5 717.94,-775.5"/>
<text xml:space="preserve" text-anchor="middle" x="690.44" y="-758.2" font-family="Times,serif" font-size="14.00">CLK</text>
<polyline fill="none" stroke="black" points="662.94,-750.25 717.94,-750.25"/>
<text xml:space="preserve" text-anchor="middle" x="690.44" y="-732.95" font-family="Times,serif" font-size="14.00">D</text>
<polyline fill="none" stroke="black" points="662.94,-725 717.94,-725"/>
<text xml:space="preserve" text-anchor="middle" x="690.44" y="-707.7" font-family="Times,serif" font-size="14.00">EN</text>
<polyline fill="none" stroke="black" points="717.94,-699.75 717.94,-800.75"/>
<text xml:space="preserve" text-anchor="middle" x="748.07" y="-754.2" font-family="Times,serif" font-size="14.00">$86</text>
<text xml:space="preserve" text-anchor="middle" x="748.07" y="-736.95" font-family="Times,serif" font-size="14.00">$adffe</text>
<polyline fill="none" stroke="black" points="778.19,-699.75 778.19,-800.75"/>
<text xml:space="preserve" text-anchor="middle" x="791.82" y="-745.95" font-family="Times,serif" font-size="14.00">Q</text>
</g>
<!-- n9&#45;&gt;c31 -->
<g id="edge44" class="edge">
<title>n9:e&#45;&gt;c31:w</title>
<path fill="none" stroke="black" d="M68.26,-788.25C93.68,-788.25 91.54,-811.4 114.96,-821.25 249.28,-877.73 292.35,-867.09 437.46,-880.25 521.33,-887.86 559.23,-930.31 626.94,-880.25 667.22,-850.47 617.91,-776.46 651.76,-764.51"/>
<polygon fill="black" stroke="black" points="652.06,-768.01 661.45,-763.09 651.05,-761.08 652.06,-768.01"/>
</g>
<!-- c32 -->
<g id="node27" class="node">
<title>c32</title>
<polygon fill="none" stroke="black" points="662.94,-339.75 662.94,-440.75 805.44,-440.75 805.44,-339.75 662.94,-339.75"/>
<text xml:space="preserve" text-anchor="middle" x="690.44" y="-423.45" font-family="Times,serif" font-size="14.00">ARST</text>
<polyline fill="none" stroke="black" points="662.94,-415.5 717.94,-415.5"/>
<text xml:space="preserve" text-anchor="middle" x="690.44" y="-398.2" font-family="Times,serif" font-size="14.00">CLK</text>
<polyline fill="none" stroke="black" points="662.94,-390.25 717.94,-390.25"/>
<text xml:space="preserve" text-anchor="middle" x="690.44" y="-372.95" font-family="Times,serif" font-size="14.00">D</text>
<polyline fill="none" stroke="black" points="662.94,-365 717.94,-365"/>
<text xml:space="preserve" text-anchor="middle" x="690.44" y="-347.7" font-family="Times,serif" font-size="14.00">EN</text>
<polyline fill="none" stroke="black" points="717.94,-339.75 717.94,-440.75"/>
<text xml:space="preserve" text-anchor="middle" x="748.07" y="-394.2" font-family="Times,serif" font-size="14.00">$87</text>
<text xml:space="preserve" text-anchor="middle" x="748.07" y="-376.95" font-family="Times,serif" font-size="14.00">$adffe</text>
<polyline fill="none" stroke="black" points="778.19,-339.75 778.19,-440.75"/>
<text xml:space="preserve" text-anchor="middle" x="791.82" y="-385.95" font-family="Times,serif" font-size="14.00">Q</text>
</g>
<!-- n9&#45;&gt;c32 -->
<g id="edge45" class="edge">
<title>n9:e&#45;&gt;c32:w</title>
<path fill="none" stroke="black" d="M68.26,-788.25C91.81,-788.25 92.44,-770.1 114.96,-763.25 169.66,-746.61 586.19,-752.34 626.94,-712.25 673.3,-666.65 603.24,-433.68 651.98,-405.64"/>
<polygon fill="black" stroke="black" points="652.64,-409.08 661.48,-403.24 650.93,-402.29 652.64,-409.08"/>
</g>
<!-- c33 -->
<g id="node28" class="node">
<title>c33</title>
<polygon fill="none" stroke="black" points="1455.72,-667.75 1455.72,-768.75 1598.22,-768.75 1598.22,-667.75 1455.72,-667.75"/>
<text xml:space="preserve" text-anchor="middle" x="1483.22" y="-751.45" font-family="Times,serif" font-size="14.00">ARST</text>
<polyline fill="none" stroke="black" points="1455.72,-743.5 1510.72,-743.5"/>
<text xml:space="preserve" text-anchor="middle" x="1483.22" y="-726.2" font-family="Times,serif" font-size="14.00">CLK</text>
<polyline fill="none" stroke="black" points="1455.72,-718.25 1510.72,-718.25"/>
<text xml:space="preserve" text-anchor="middle" x="1483.22" y="-700.95" font-family="Times,serif" font-size="14.00">D</text>
<polyline fill="none" stroke="black" points="1455.72,-693 1510.72,-693"/>
<text xml:space="preserve" text-anchor="middle" x="1483.22" y="-675.7" font-family="Times,serif" font-size="14.00">EN</text>
<polyline fill="none" stroke="black" points="1510.72,-667.75 1510.72,-768.75"/>
<text xml:space="preserve" text-anchor="middle" x="1540.84" y="-722.2" font-family="Times,serif" font-size="14.00">$88</text>
<text xml:space="preserve" text-anchor="middle" x="1540.84" y="-704.95" font-family="Times,serif" font-size="14.00">$adffe</text>
<polyline fill="none" stroke="black" points="1570.97,-667.75 1570.97,-768.75"/>
<text xml:space="preserve" text-anchor="middle" x="1584.59" y="-713.95" font-family="Times,serif" font-size="14.00">Q</text>
</g>
<!-- n9&#45;&gt;c33 -->
<g id="edge46" class="edge">
<title>n9:e&#45;&gt;c33:w</title>
<path fill="none" stroke="black" d="M68.26,-788.25C107.53,-788.25 81.97,-841.95 114.96,-863.25 306.81,-987.09 399.84,-930.02 626.94,-906.25 649,-903.94 1344.61,-750.24 1444.39,-732.53"/>
<polygon fill="black" stroke="black" points="1444.83,-736 1454.22,-731.09 1443.82,-729.08 1444.83,-736"/>
</g>
<!-- c34 -->
<g id="node29" class="node">
<title>c34</title>
<polygon fill="none" stroke="black" points="662.94,-459.75 662.94,-560.75 805.44,-560.75 805.44,-459.75 662.94,-459.75"/>
<text xml:space="preserve" text-anchor="middle" x="690.44" y="-543.45" font-family="Times,serif" font-size="14.00">ARST</text>
<polyline fill="none" stroke="black" points="662.94,-535.5 717.94,-535.5"/>
<text xml:space="preserve" text-anchor="middle" x="690.44" y="-518.2" font-family="Times,serif" font-size="14.00">CLK</text>
<polyline fill="none" stroke="black" points="662.94,-510.25 717.94,-510.25"/>
<text xml:space="preserve" text-anchor="middle" x="690.44" y="-492.95" font-family="Times,serif" font-size="14.00">D</text>
<polyline fill="none" stroke="black" points="662.94,-485 717.94,-485"/>
<text xml:space="preserve" text-anchor="middle" x="690.44" y="-467.7" font-family="Times,serif" font-size="14.00">EN</text>
<polyline fill="none" stroke="black" points="717.94,-459.75 717.94,-560.75"/>
<text xml:space="preserve" text-anchor="middle" x="748.07" y="-514.2" font-family="Times,serif" font-size="14.00">$89</text>
<text xml:space="preserve" text-anchor="middle" x="748.07" y="-496.95" font-family="Times,serif" font-size="14.00">$adffe</text>
<polyline fill="none" stroke="black" points="778.19,-459.75 778.19,-560.75"/>
<text xml:space="preserve" text-anchor="middle" x="791.82" y="-505.95" font-family="Times,serif" font-size="14.00">Q</text>
</g>
<!-- n9&#45;&gt;c34 -->
<g id="edge47" class="edge">
<title>n9:e&#45;&gt;c34:w</title>
<path fill="none" stroke="black" d="M68.26,-788.25C83.83,-788.25 615.49,-755.79 626.94,-745.25 660.63,-714.28 620.99,-554.13 652.16,-526.83"/>
<polygon fill="black" stroke="black" points="653.34,-530.13 661.52,-523.4 650.93,-523.55 653.34,-530.13"/>
</g>
<!-- c41 -->
<g id="node31" class="node">
<title>c41</title>
<polygon fill="none" stroke="black" points="114.96,-627.38 114.96,-703.12 401.46,-703.12 401.46,-627.38 114.96,-627.38"/>
<text xml:space="preserve" text-anchor="middle" x="140.96" y="-685.83" font-family="Times,serif" font-size="14.00">clk</text>
<polyline fill="none" stroke="black" points="114.96,-677.88 166.96,-677.88"/>
<text xml:space="preserve" text-anchor="middle" x="140.96" y="-660.58" font-family="Times,serif" font-size="14.00">rst_n</text>
<polyline fill="none" stroke="black" points="114.96,-652.62 166.96,-652.62"/>
<text xml:space="preserve" text-anchor="middle" x="140.96" y="-635.33" font-family="Times,serif" font-size="14.00">start</text>
<polyline fill="none" stroke="black" points="166.96,-627.38 166.96,-703.12"/>
<text xml:space="preserve" text-anchor="middle" x="236.46" y="-669.2" font-family="Times,serif" font-size="14.00">u_control_fsm_v2</text>
<text xml:space="preserve" text-anchor="middle" x="236.46" y="-651.95" font-family="Times,serif" font-size="14.00">control_fsm_v2</text>
<polyline fill="none" stroke="black" points="305.96,-627.38 305.96,-703.12"/>
<text xml:space="preserve" text-anchor="middle" x="353.71" y="-685.83" font-family="Times,serif" font-size="14.00">done</text>
<polyline fill="none" stroke="black" points="305.96,-677.88 401.46,-677.88"/>
<text xml:space="preserve" text-anchor="middle" x="353.71" y="-660.58" font-family="Times,serif" font-size="14.00">product_en</text>
<polyline fill="none" stroke="black" points="305.96,-652.62 401.46,-652.62"/>
<text xml:space="preserve" text-anchor="middle" x="353.71" y="-635.33" font-family="Times,serif" font-size="14.00">result_en</text>
</g>
<!-- n9&#45;&gt;c41 -->
<g id="edge48" class="edge">
<title>n9:e&#45;&gt;c41:w</title>
<path fill="none" stroke="black" d="M68.26,-788.25C111.9,-788.25 75.26,-707.97 103.84,-692.92"/>
<polygon fill="black" stroke="black" points="104.46,-696.36 113.49,-690.82 102.97,-689.52 104.46,-696.36"/>
</g>
<!-- n10 -->
<g id="node10" class="node">
<title>n10</title>
<polygon fill="none" stroke="black" points="570.55,-677.79 570.55,-692.71 548.09,-703.25 516.32,-703.25 493.86,-692.71 493.86,-677.79 516.32,-667.25 548.09,-667.25 570.55,-677.79"/>
<text xml:space="preserve" text-anchor="middle" x="532.2" y="-680.58" font-family="Times,serif" font-size="14.00">done</text>
</g>
<!-- n11 -->
<g id="node11" class="node">
<title>n11</title>
<polygon fill="none" stroke="black" points="532.2,-535.25 453.83,-517.25 532.2,-499.25 610.58,-517.25 532.2,-535.25"/>
<text xml:space="preserve" text-anchor="middle" x="532.2" y="-512.58" font-family="Times,serif" font-size="14.00">p0_comb</text>
</g>
<!-- n11&#45;&gt;c30 -->
<g id="edge4" class="edge">
<title>n11:e&#45;&gt;c30:w</title>
<path fill="none" stroke="black" stroke-width="3" d="M613.53,-517.25C658.79,-517.25 621.41,-600.4 651.81,-615.34"/>
<polygon fill="black" stroke="black" stroke-width="3" points="648,-618.13 658.5,-616.71 649.41,-611.27 648,-618.13"/>
</g>
<!-- n12 -->
<g id="node12" class="node">
<title>n12</title>
<polygon fill="none" stroke="black" points="905.68,-648.25 841.44,-630.25 905.68,-612.25 969.91,-630.25 905.68,-648.25"/>
<text xml:space="preserve" text-anchor="middle" x="905.68" y="-625.58" font-family="Times,serif" font-size="14.00">p0_reg</text>
</g>
<!-- c40 -->
<g id="node30" class="node">
<title>c40</title>
<polygon fill="none" stroke="black" points="1005.91,-542.75 1005.91,-643.75 1203.16,-643.75 1203.16,-542.75 1005.91,-542.75"/>
<text xml:space="preserve" text-anchor="middle" x="1022.91" y="-626.45" font-family="Times,serif" font-size="14.00">p0</text>
<polyline fill="none" stroke="black" points="1005.91,-618.5 1039.91,-618.5"/>
<text xml:space="preserve" text-anchor="middle" x="1022.91" y="-601.2" font-family="Times,serif" font-size="14.00">p1</text>
<polyline fill="none" stroke="black" points="1005.91,-593.25 1039.91,-593.25"/>
<text xml:space="preserve" text-anchor="middle" x="1022.91" y="-575.95" font-family="Times,serif" font-size="14.00">p2</text>
<polyline fill="none" stroke="black" points="1005.91,-568 1039.91,-568"/>
<text xml:space="preserve" text-anchor="middle" x="1022.91" y="-550.7" font-family="Times,serif" font-size="14.00">p3</text>
<polyline fill="none" stroke="black" points="1039.91,-542.75 1039.91,-643.75"/>
<text xml:space="preserve" text-anchor="middle" x="1098.54" y="-597.2" font-family="Times,serif" font-size="14.00">u_adder_tree</text>
<text xml:space="preserve" text-anchor="middle" x="1098.54" y="-579.95" font-family="Times,serif" font-size="14.00">adder_tree_v2</text>
<polyline fill="none" stroke="black" points="1157.16,-542.75 1157.16,-643.75"/>
<text xml:space="preserve" text-anchor="middle" x="1180.16" y="-588.95" font-family="Times,serif" font-size="14.00">sum</text>
</g>
<!-- n12&#45;&gt;c40 -->
<g id="edge6" class="edge">
<title>n12:e&#45;&gt;c40:w</title>
<path fill="none" stroke="black" stroke-width="3" d="M969.91,-630.25C981.29,-630.25 986.6,-630.69 994.47,-630.95"/>
<polygon fill="black" stroke="black" stroke-width="3" points="991.32,-634.4 1001.37,-631.05 991.43,-627.4 991.32,-634.4"/>
</g>
<!-- n13 -->
<g id="node13" class="node">
<title>n13</title>
<polygon fill="none" stroke="black" points="532.2,-871.25 453.83,-853.25 532.2,-835.25 610.58,-853.25 532.2,-871.25"/>
<text xml:space="preserve" text-anchor="middle" x="532.2" y="-848.58" font-family="Times,serif" font-size="14.00">p1_comb</text>
</g>
<!-- n13&#45;&gt;c31 -->
<g id="edge8" class="edge">
<title>n13:e&#45;&gt;c31:w</title>
<path fill="none" stroke="black" stroke-width="3" d="M613.53,-853.25C665.05,-853.25 616.08,-754.99 651.9,-739.63"/>
<polygon fill="black" stroke="black" stroke-width="3" points="649.26,-743.67 658.48,-738.44 648.01,-736.78 649.26,-743.67"/>
</g>
<!-- n14 -->
<g id="node14" class="node">
<title>n14</title>
<polygon fill="none" stroke="black" points="905.68,-735.25 841.44,-717.25 905.68,-699.25 969.91,-717.25 905.68,-735.25"/>
<text xml:space="preserve" text-anchor="middle" x="905.68" y="-712.58" font-family="Times,serif" font-size="14.00">p1_reg</text>
</g>
<!-- n14&#45;&gt;c40 -->
<g id="edge10" class="edge">
<title>n14:e&#45;&gt;c40:w</title>
<path fill="none" stroke="black" stroke-width="3" d="M969.91,-717.25C1017.47,-717.25 964.7,-624.2 995.01,-608.2"/>
<polygon fill="black" stroke="black" stroke-width="3" points="992.42,-612.33 1001.47,-606.82 990.96,-605.49 992.42,-612.33"/>
</g>
<!-- n15 -->
<g id="node15" class="node">
<title>n15</title>
<polygon fill="none" stroke="black" points="532.2,-132.25 453.83,-114.25 532.2,-96.25 610.58,-114.25 532.2,-132.25"/>
<text xml:space="preserve" text-anchor="middle" x="532.2" y="-109.58" font-family="Times,serif" font-size="14.00">p2_comb</text>
</g>
<!-- n15&#45;&gt;c34 -->
<g id="edge12" class="edge">
<title>n15:e&#45;&gt;c34:w</title>
<path fill="none" stroke="black" stroke-width="3" d="M613.53,-114.25C695.23,-114.25 588.5,-461.1 651.8,-494.97"/>
<polygon fill="black" stroke="black" stroke-width="3" points="647.99,-497.66 658.53,-496.57 649.61,-490.85 647.99,-497.66"/>
</g>
<!-- n16 -->
<g id="node16" class="node">
<title>n16</title>
<polygon fill="none" stroke="black" points="905.68,-573.25 841.44,-555.25 905.68,-537.25 969.91,-555.25 905.68,-573.25"/>
<text xml:space="preserve" text-anchor="middle" x="905.68" y="-550.58" font-family="Times,serif" font-size="14.00">p2_reg</text>
</g>
<!-- n16&#45;&gt;c40 -->
<g id="edge14" class="edge">
<title>n16:e&#45;&gt;c40:w</title>
<path fill="none" stroke="black" stroke-width="3" d="M969.91,-555.25C984.75,-555.25 986.53,-569.82 995.04,-576.88"/>
<polygon fill="black" stroke="black" stroke-width="3" points="991.03,-579.2 1001.62,-579.15 993.31,-572.58 991.03,-579.2"/>
</g>
<!-- n17 -->
<g id="node17" class="node">
<title>n17</title>
<polygon fill="none" stroke="black" points="532.2,-254.25 453.83,-236.25 532.2,-218.25 610.58,-236.25 532.2,-254.25"/>
<text xml:space="preserve" text-anchor="middle" x="532.2" y="-231.57" font-family="Times,serif" font-size="14.00">p3_comb</text>
</g>
<!-- n17&#45;&gt;c32 -->
<g id="edge16" class="edge">
<title>n17:e&#45;&gt;c32:w</title>
<path fill="none" stroke="black" stroke-width="3" d="M613.53,-236.25C675.67,-236.25 606.84,-359.47 651.58,-375.84"/>
<polygon fill="black" stroke="black" stroke-width="3" points="648.04,-378.82 658.46,-376.92 649.12,-371.91 648.04,-378.82"/>
</g>
<!-- n18 -->
<g id="node18" class="node">
<title>n18</title>
<polygon fill="none" stroke="black" points="905.68,-478.25 841.44,-460.25 905.68,-442.25 969.91,-460.25 905.68,-478.25"/>
<text xml:space="preserve" text-anchor="middle" x="905.68" y="-455.57" font-family="Times,serif" font-size="14.00">p3_reg</text>
</g>
<!-- n18&#45;&gt;c40 -->
<g id="edge18" class="edge">
<title>n18:e&#45;&gt;c40:w</title>
<path fill="none" stroke="black" stroke-width="3" d="M969.91,-460.25C1010.53,-460.25 970.73,-537.03 995.01,-552.63"/>
<polygon fill="black" stroke="black" stroke-width="3" points="990.96,-555.22 1001.51,-554.27 992.67,-548.43 990.96,-555.22"/>
</g>
<!-- n19 -->
<g id="node19" class="node">
<title>n19</title>
<polygon fill="none" stroke="black" points="532.2,-481.25 437.46,-463.25 532.2,-445.25 626.94,-463.25 532.2,-481.25"/>
<text xml:space="preserve" text-anchor="middle" x="532.2" y="-458.57" font-family="Times,serif" font-size="14.00">product_en</text>
</g>
<!-- n19&#45;&gt;c30 -->
<g id="edge20" class="edge">
<title>n19:e&#45;&gt;c30:w</title>
<path fill="none" stroke="black" d="M626.94,-463.25C682.1,-463.25 614.92,-573.92 651.92,-590.35"/>
<polygon fill="black" stroke="black" points="650.99,-593.73 661.46,-592.1 652.25,-586.85 650.99,-593.73"/>
</g>
<!-- n19&#45;&gt;c31 -->
<g id="edge21" class="edge">
<title>n19:e&#45;&gt;c31:w</title>
<path fill="none" stroke="black" d="M626.94,-463.25C678.73,-463.25 617.54,-676.77 652.56,-708.46"/>
<polygon fill="black" stroke="black" points="650.94,-711.59 661.53,-711.84 653.41,-705.04 650.94,-711.59"/>
</g>
<!-- n19&#45;&gt;c32 -->
<g id="edge22" class="edge">
<title>n19:e&#45;&gt;c32:w</title>
<path fill="none" stroke="black" d="M626.94,-463.25C674.3,-463.25 621.87,-370.61 652.08,-354.69"/>
<polygon fill="black" stroke="black" points="652.41,-358.2 661.46,-352.69 650.95,-351.35 652.41,-358.2"/>
</g>
<!-- n19&#45;&gt;c34 -->
<g id="edge23" class="edge">
<title>n19:e&#45;&gt;c34:w</title>
<path fill="none" stroke="black" d="M626.94,-463.25C638.81,-463.25 643.69,-467.96 651.62,-470.62"/>
<polygon fill="black" stroke="black" points="651.03,-474.07 661.45,-472.14 652.11,-467.15 651.03,-474.07"/>
</g>
<!-- n20 -->
<g id="node20" class="node">
<title>n20</title>
<polygon fill="none" stroke="black" points="1722.29,-710.79 1722.29,-725.71 1696.5,-736.25 1660.01,-736.25 1634.22,-725.71 1634.22,-710.79 1660.01,-700.25 1696.5,-700.25 1722.29,-710.79"/>
<text xml:space="preserve" text-anchor="middle" x="1678.25" y="-713.58" font-family="Times,serif" font-size="14.00">result</text>
</g>
<!-- n21 -->
<g id="node21" class="node">
<title>n21</title>
<polygon fill="none" stroke="black" points="1104.54,-772.25 1023.19,-754.25 1104.54,-736.25 1185.89,-754.25 1104.54,-772.25"/>
<text xml:space="preserve" text-anchor="middle" x="1104.54" y="-749.58" font-family="Times,serif" font-size="14.00">result_en</text>
</g>
<!-- n21&#45;&gt;c33 -->
<g id="edge27" class="edge">
<title>n21:e&#45;&gt;c33:w</title>
<path fill="none" stroke="black" d="M1188.91,-754.25C1233.18,-754.25 1200.77,-690.28 1239.16,-668.25 1308.76,-628.31 1340.53,-655.27 1419.72,-668.25 1431.82,-670.23 1436.43,-675.74 1444.52,-678.6"/>
<polygon fill="black" stroke="black" points="1443.8,-682.03 1454.22,-680.14 1444.89,-675.11 1443.8,-682.03"/>
</g>
<!-- n22 -->
<g id="node22" class="node">
<title>n22</title>
<polygon fill="none" stroke="black" points="78.96,-481.79 78.96,-496.71 55.84,-507.25 23.13,-507.25 0,-496.71 0,-481.79 23.13,-471.25 55.84,-471.25 78.96,-481.79"/>
<text xml:space="preserve" text-anchor="middle" x="39.48" y="-484.57" font-family="Times,serif" font-size="14.00">rst_n</text>
</g>
<!-- n22&#45;&gt;c30 -->
<g id="edge28" class="edge">
<title>n22:e&#45;&gt;c30:w</title>
<path fill="none" stroke="black" d="M78.96,-489.25C109.89,-489.25 602.6,-568.18 626.94,-587.25 654.29,-608.67 630.75,-655.3 651.92,-665.94"/>
<polygon fill="black" stroke="black" points="650.97,-669.31 661.46,-667.83 652.33,-662.45 650.97,-669.31"/>
</g>
<!-- n22&#45;&gt;c31 -->
<g id="edge29" class="edge">
<title>n22:e&#45;&gt;c31:w</title>
<path fill="none" stroke="black" d="M78.96,-489.25C103.21,-489.25 93.88,-518.27 114.96,-530.25 165.26,-558.84 585.34,-585.04 626.94,-625.25 677.13,-673.75 599.03,-775.28 651.56,-787.01"/>
<polygon fill="black" stroke="black" points="651.15,-790.49 661.44,-787.98 651.83,-783.52 651.15,-790.49"/>
</g>
<!-- n22&#45;&gt;c32 -->
<g id="edge30" class="edge">
<title>n22:e&#45;&gt;c32:w</title>
<path fill="none" stroke="black" d="M78.96,-489.25C111.99,-489.25 86.88,-441.63 114.96,-424.25 308.53,-304.46 405.33,-358.26 626.94,-410.25 639.85,-413.28 643.59,-421.66 651.96,-425.78"/>
<polygon fill="black" stroke="black" points="650.95,-429.14 661.46,-427.81 652.42,-422.3 650.95,-429.14"/>
</g>
<!-- n22&#45;&gt;c33 -->
<g id="edge31" class="edge">
<title>n22:e&#45;&gt;c33:w</title>
<path fill="none" stroke="black" d="M78.96,-489.25C143.64,-489.25 64.54,-388.76 114.96,-348.25 174.79,-300.18 730.83,-312.31 805.44,-330.25 998.4,-376.65 1084.08,-374.49 1203.16,-533.25 1254.47,-601.66 1177.71,-662.79 1239.16,-722.25 1306.37,-787.27 1354.33,-758.67 1444.24,-756.28"/>
<polygon fill="black" stroke="black" points="1444.25,-759.78 1454.2,-756.15 1444.16,-752.78 1444.25,-759.78"/>
</g>
<!-- n22&#45;&gt;c34 -->
<g id="edge32" class="edge">
<title>n22:e&#45;&gt;c34:w</title>
<path fill="none" stroke="black" d="M78.96,-489.25C201.31,-489.25 528.07,-364.2 626.94,-436.25 665.53,-464.37 620.01,-534.56 651.8,-546.41"/>
<polygon fill="black" stroke="black" points="651.03,-549.83 661.45,-547.9 652.1,-542.92 651.03,-549.83"/>
</g>
<!-- n22&#45;&gt;c41 -->
<g id="edge33" class="edge">
<title>n22:e&#45;&gt;c41:w</title>
<path fill="none" stroke="black" d="M78.96,-489.25C154.44,-489.25 48.04,-646.53 103.63,-663.73"/>
<polygon fill="black" stroke="black" points="103.09,-667.19 113.46,-665.05 104.02,-660.25 103.09,-667.19"/>
</g>
<!-- n23 -->
<g id="node23" class="node">
<title>n23</title>
<polygon fill="none" stroke="black" points="77.83,-632.79 77.83,-647.71 55.36,-658.25 23.6,-658.25 1.14,-647.71 1.14,-632.79 23.6,-622.25 55.36,-622.25 77.83,-632.79"/>
<text xml:space="preserve" text-anchor="middle" x="39.48" y="-635.58" font-family="Times,serif" font-size="14.00">start</text>
</g>
<!-- n23&#45;&gt;c41 -->
<g id="edge34" class="edge">
<title>n23:e&#45;&gt;c41:w</title>
<path fill="none" stroke="black" d="M78.96,-640.25C90.34,-640.25 95.65,-640.12 103.52,-640.05"/>
<polygon fill="black" stroke="black" points="103.47,-643.55 113.45,-640.01 103.44,-636.55 103.47,-643.55"/>
</g>
<!-- n24 -->
<g id="node24" class="node">
<title>n24</title>
<polygon fill="none" stroke="black" points="1329.44,-713.25 1239.16,-695.25 1329.44,-677.25 1419.72,-695.25 1329.44,-713.25"/>
<text xml:space="preserve" text-anchor="middle" x="1329.44" y="-690.58" font-family="Times,serif" font-size="14.00">sum_comb</text>
</g>
<!-- n24&#45;&gt;c33 -->
<g id="edge36" class="edge">
<title>n24:e&#45;&gt;c33:w</title>
<path fill="none" stroke="black" stroke-width="3" d="M1419.72,-695.25C1431.81,-695.25 1436.55,-700.73 1444.62,-703.72"/>
<polygon fill="black" stroke="black" stroke-width="3" points="1440.79,-706.62 1451.24,-704.86 1441.98,-699.72 1440.79,-706.62"/>
</g>
<!-- c30&#45;&gt;n12 -->
<g id="edge5" class="edge">
<title>c30:e&#45;&gt;n12:w</title>
<path fill="none" stroke="black" stroke-width="3" d="M805.44,-630.62C816.82,-630.62 822.13,-630.44 830,-630.33"/>
<polygon fill="black" stroke="black" stroke-width="3" points="826.93,-633.85 836.9,-630.28 826.88,-626.85 826.93,-633.85"/>
</g>
<!-- c31&#45;&gt;n14 -->
<g id="edge9" class="edge">
<title>c31:e&#45;&gt;n14:w</title>
<path fill="none" stroke="black" stroke-width="3" d="M805.44,-750.62C822.49,-750.62 821.56,-730.25 830.74,-721.34"/>
<polygon fill="black" stroke="black" stroke-width="3" points="829.11,-725.71 837.2,-718.87 826.61,-719.17 829.11,-725.71"/>
</g>
<!-- c32&#45;&gt;n18 -->
<g id="edge17" class="edge">
<title>c32:e&#45;&gt;n18:w</title>
<path fill="none" stroke="black" stroke-width="3" d="M805.44,-390.62C835.65,-390.62 814.34,-442.98 830.87,-456.89"/>
<polygon fill="black" stroke="black" stroke-width="3" points="826.53,-459.19 837.12,-458.88 828.65,-452.51 826.53,-459.19"/>
</g>
<!-- c33&#45;&gt;n20 -->
<g id="edge25" class="edge">
<title>c33:e&#45;&gt;n20:w</title>
<path fill="none" stroke="black" stroke-width="3" d="M1598.22,-718.62C1609.59,-718.62 1614.9,-718.44 1622.77,-718.33"/>
<polygon fill="black" stroke="black" stroke-width="3" points="1619.7,-721.85 1629.68,-718.28 1619.65,-714.85 1619.7,-721.85"/>
</g>
<!-- c34&#45;&gt;n16 -->
<g id="edge13" class="edge">
<title>c34:e&#45;&gt;n16:w</title>
<path fill="none" stroke="black" stroke-width="3" d="M805.44,-510.62C826.15,-510.62 820.15,-540.08 830.84,-551.13"/>
<polygon fill="black" stroke="black" stroke-width="3" points="826.62,-553.25 837.21,-553.61 829.16,-546.72 826.62,-553.25"/>
</g>
<!-- c40&#45;&gt;n24 -->
<g id="edge35" class="edge">
<title>c40:e&#45;&gt;n24:w</title>
<path fill="none" stroke="black" stroke-width="3" d="M1203.16,-593.62C1246.4,-593.62 1201.91,-676.37 1228.01,-692.53"/>
<polygon fill="black" stroke="black" stroke-width="3" points="1224.21,-695.21 1234.75,-694.18 1225.87,-688.41 1224.21,-695.21"/>
</g>
<!-- c41&#45;&gt;n10 -->
<g id="edge2" class="edge">
<title>c41:e&#45;&gt;n10:w</title>
<path fill="none" stroke="black" d="M401.46,-690.5C437.88,-690.5 449.63,-686.26 481.03,-685.4"/>
<polygon fill="black" stroke="black" points="481.04,-688.9 490.99,-685.27 480.94,-681.9 481.04,-688.9"/>
</g>
<!-- c41&#45;&gt;n19 -->
<g id="edge19" class="edge">
<title>c41:e&#45;&gt;n19:w</title>
<path fill="none" stroke="black" d="M401.46,-665.25C488.38,-665.25 359.47,-481.74 426.16,-464.54"/>
<polygon fill="black" stroke="black" points="426.42,-468.03 435.96,-463.42 425.63,-461.08 426.42,-468.03"/>
</g>
<!-- c41&#45;&gt;n21 -->
<g id="edge26" class="edge">
<title>c41:e&#45;&gt;n21:w</title>
<path fill="none" stroke="black" d="M401.46,-640C502.01,-640 550.67,-592.75 626.94,-658.25 679.62,-703.48 608.49,-767.19 662.94,-810.25 786.04,-907.6 856.13,-761.41 1009.01,-754.5"/>
<polygon fill="black" stroke="black" points="1008.73,-758.01 1018.65,-754.28 1008.58,-751.01 1008.73,-758.01"/>
</g>
<!-- c45&#45;&gt;n11 -->
<g id="edge3" class="edge">
<title>c45:e&#45;&gt;n11:w</title>
<path fill="none" stroke="black" stroke-width="3" d="M359.71,-267.38C473.89,-267.38 342.29,-500.46 439.66,-516.39"/>
<polygon fill="black" stroke="black" stroke-width="3" points="436.12,-519.63 446.35,-516.9 436.65,-512.65 436.12,-519.63"/>
</g>
<!-- c46&#45;&gt;n13 -->
<g id="edge7" class="edge">
<title>c46:e&#45;&gt;n13:w</title>
<path fill="none" stroke="black" stroke-width="3" d="M359.71,-991.38C429.1,-991.38 383.25,-868.45 439.58,-854.53"/>
<polygon fill="black" stroke="black" stroke-width="3" points="436.83,-858.36 446.37,-853.76 436.04,-851.41 436.83,-858.36"/>
</g>
<!-- c47&#45;&gt;n15 -->
<g id="edge11" class="edge">
<title>c47:e&#45;&gt;n15:w</title>
<path fill="none" stroke="black" stroke-width="3" d="M359.71,-85.38C398.07,-85.38 406.83,-108.89 439.4,-113.48"/>
<polygon fill="black" stroke="black" stroke-width="3" points="436.14,-116.77 446.35,-113.95 436.61,-109.78 436.14,-116.77"/>
</g>
<!-- c48&#45;&gt;n17 -->
<g id="edge15" class="edge">
<title>c48:e&#45;&gt;n17:w</title>
<path fill="none" stroke="black" stroke-width="3" d="M359.71,-193.38C400.47,-193.38 405.47,-228.89 439.8,-235.27"/>
<polygon fill="black" stroke="black" stroke-width="3" points="436.09,-238.46 446.36,-235.85 436.7,-231.49 436.09,-238.46"/>
</g>
</g>
</svg>
